; OM File Header - Saved 2023/04/07 12:38:05
; (7.01 :patc (om-make-point 496 10) (om-make-point 1888 70) (om-make-point 1148 869) "" 183 0 nil nil)
; End File Header
; External resources 
; (list (list (quote :abstraction) "#P\"../Twine/006-ivc-dyi.omp\""))
(in-package :om)(load-lib-for (quote nil))(setf *om-current-persistent* (om-load-patch1 "001-pcset-to-rhythm" (quote ((let ((box (om-load-editor-box1 "POLY" (quote poly) (quote ((om-load-inputfun (quote input-funbox) "object" "self" nil) (om-load-inputfun (quote input-funbox) "list of VOICE objects" "voices" (list (let ((newobj (when (find-class (quote voice) nil) (make-instance (quote voice) :tree (quote (1 (((4 4) (1 1 1 1))))) :chords (load-obj-list-from-save (quote ((let ((thechord (make-instance (quote chord) :lmidic (quote (6000)) :ldur (quote (1000)) :lvel (quote (100)) :loffset (quote (0)) :lchan (quote (1))))) (load-port-info thechord (quote (0))) (init-mus-color thechord (quote nil)) (set-extra-pairs thechord (quote nil)) (set-tonalite thechord nil) thechord) (let ((thechord (make-instance (quote chord) :lmidic (quote (6000)) :ldur (quote (1000)) :lvel (quote (100)) :loffset (quote (0)) :lchan (quote (1))))) (load-port-info thechord (quote (0))) (init-mus-color thechord (quote nil)) (set-extra-pairs thechord (quote nil)) (set-tonalite thechord nil) thechord) (let ((thechord (make-instance (quote chord) :lmidic (quote (6000)) :ldur (quote (1000)) :lvel (quote (100)) :loffset (quote (0)) :lchan (quote (1))))) (load-port-info thechord (quote (0))) (init-mus-color thechord (quote nil)) (set-extra-pairs thechord (quote nil)) (set-tonalite thechord nil) thechord) (let ((thechord (make-instance (quote chord) :lmidic (quote (6000)) :ldur (quote (1000)) :lvel (quote (100)) :loffset (quote (0)) :lchan (quote (1))))) (load-port-info thechord (quote (0))) (init-mus-color thechord (quote nil)) (set-extra-pairs thechord (quote nil)) (set-tonalite thechord nil) thechord)))) :tempo (quote ((1/4 60) nil)) :legato 100 :ties (quote (nil nil nil nil)))))) (load-port-info newobj (quote nil)) (init-mus-color newobj (quote nil)) (set-extra-pairs newobj (quote nil)) (set-patch-pairs newobj (quote nil)) (set-name newobj nil) (set-tonalite newobj nil) newobj))))) (om-make-point 268 627) (om-make-point 131 102) (if (find-class (quote poly) nil) (let ((newobj (make-instance (quote poly) :voices (list (let ((newobj (when (find-class (quote voice) nil) (make-instance (quote voice) :tree (quote (2 (((4 4) (-1 (1 (-1 1)) (1 (4 1.0 1)) 1.0)) ((4 4) ((1 (1.0 2)) 1.0 (1 (1.0 3 -2)) -1))))) :chords (load-obj-list-from-save (quote ((let ((thechord (make-instance (quote chord) :lmidic (quote (6000)) :ldur (quote (500)) :lvel (quote (100)) :loffset (quote (0)) :lchan (quote (1))))) (load-port-info thechord (quote (0))) (init-mus-color thechord (quote nil)) (set-extra-pairs thechord (quote nil)) (set-tonalite thechord nil) thechord) (let ((thechord (make-instance (quote chord) :lmidic (quote (6000)) :ldur (quote (667)) :lvel (quote (100)) :loffset (quote (0)) :lchan (quote (1))))) (load-port-info thechord (quote (0))) (init-mus-color thechord (quote nil)) (set-extra-pairs thechord (quote nil)) (set-tonalite thechord nil) thechord) (let ((thechord (make-instance (quote chord) :lmidic (quote (6000)) :ldur (quote (167)) :lvel (quote (100)) :loffset (quote (0)) :lchan (quote (1))))) (load-port-info thechord (quote (0))) (init-mus-color thechord (quote nil)) (set-extra-pairs thechord (quote nil)) (set-tonalite thechord nil) thechord) (let ((thechord (make-instance (quote chord) :lmidic (quote (6000)) :ldur (quote (667)) :lvel (quote (100)) :loffset (quote (0)) :lchan (quote (1))))) (load-port-info thechord (quote (0))) (init-mus-color thechord (quote nil)) (set-extra-pairs thechord (quote nil)) (set-tonalite thechord nil) thechord) (let ((thechord (make-instance (quote chord) :lmidic (quote (6000)) :ldur (quote (500)) :lvel (quote (100)) :loffset (quote (0)) :lchan (quote (1))))) (load-port-info thechord (quote (0))) (init-mus-color thechord (quote nil)) (set-extra-pairs thechord (quote nil)) (set-tonalite thechord nil) thechord)))) :tempo (quote ((1/4 60) nil)) :legato 100 :ties (quote (nil nil nil nil nil)))))) (load-port-info newobj (quote nil)) (init-mus-color newobj (quote nil)) (set-extra-pairs newobj (quote nil)) (set-patch-pairs newobj (quote nil)) (set-name newobj nil) (set-tonalite newobj nil) newobj) (let ((newobj (when (find-class (quote voice) nil) (make-instance (quote voice) :tree (quote (2 (((4 4) ((1 (-2 3 1)) (1 (2.0 1)) 1.0 (1 (1.0 4 1.0)))) ((4 4) (1.0 (1 (1 -1)) -2))))) :chords (load-obj-list-from-save (quote ((let ((thechord (make-instance (quote chord) :lmidic (quote (6000)) :ldur (quote (500)) :lvel (quote (100)) :loffset (quote (0)) :lchan (quote (1))))) (load-port-info thechord (quote (0))) (init-mus-color thechord (quote nil)) (set-extra-pairs thechord (quote nil)) (set-tonalite thechord nil) thechord) (let ((thechord (make-instance (quote chord) :lmidic (quote (6000)) :ldur (quote (167)) :lvel (quote (100)) :loffset (quote (0)) :lchan (quote (1))))) (load-port-info thechord (quote (0))) (init-mus-color thechord (quote nil)) (set-extra-pairs thechord (quote nil)) (set-tonalite thechord nil) thechord) (let ((thechord (make-instance (quote chord) :lmidic (quote (6000)) :ldur (quote (333)) :lvel (quote (100)) :loffset (quote (0)) :lchan (quote (1))))) (load-port-info thechord (quote (0))) (init-mus-color thechord (quote nil)) (set-extra-pairs thechord (quote nil)) (set-tonalite thechord nil) thechord) (let ((thechord (make-instance (quote chord) :lmidic (quote (6000)) :ldur (quote (667)) :lvel (quote (100)) :loffset (quote (0)) :lchan (quote (1))))) (load-port-info thechord (quote (0))) (init-mus-color thechord (quote nil)) (set-extra-pairs thechord (quote nil)) (set-tonalite thechord nil) thechord) (let ((thechord (make-instance (quote chord) :lmidic (quote (6000)) :ldur (quote (500)) :lvel (quote (100)) :loffset (quote (0)) :lchan (quote (1))))) (load-port-info thechord (quote (0))) (init-mus-color thechord (quote nil)) (set-extra-pairs thechord (quote nil)) (set-tonalite thechord nil) thechord)))) :tempo (quote ((1/4 60) nil)) :legato 100 :ties (quote (nil nil nil nil nil)))))) (load-port-info newobj (quote nil)) (init-mus-color newobj (quote nil)) (set-extra-pairs newobj (quote nil)) (set-patch-pairs newobj (quote nil)) (set-name newobj nil) (set-tonalite newobj nil) newobj)) :from-file t))) (load-port-info newobj (quote (nil nil))) (init-mus-color newobj (quote nil)) (set-extra-pairs newobj (quote nil)) (set-patch-pairs newobj (quote ((nil (om-load-patch-abs1 "patch" (quote nil) (quote nil) 7.01 nil "" (om-make-point 200 200) (om-make-point 400 500)))))) (set-name newobj nil) (set-tonalite newobj nil) newobj)) nil nil (pairlis (quote (scale show-stems cursor-mode obj-mode score-mode winpos winsize mode grillestep notechancolor? zoom player inport outport deltapict cmnpref staff fontsize approx)) (list nil (quote t) (quote :normal) 1 0 (om-make-point 202 165) (om-make-point 1043 370) 0 1000 nil 219/100 (quote :osc-scoreplayer) nil nil (om-make-point 0 0) (let ((newobj (make-instance (quote edition-values)))) (setf (paper-size newobj) (om-make-point 600 800)) (setf (top-margin newobj) 2) (setf (left-margin newobj) 1) (setf (right-margin newobj) 1) (setf (bottom-margin newobj) 1) (setf (orientation newobj) nil) (setf (scale newobj) nil) (setf (system-space newobj) (quote (2 2))) (setf (system-color newobj) (quote nil)) (setf (line-space newobj) 1) (setf (title newobj) nil) (setf (show-title? newobj) nil) (setf (show-page? newobj) nil) (setf (sheet-id newobj) nil) (setf (page-mode newobj) nil) newobj) (list (quote g) (quote g)) 24 2)) t nil nil nil))) (when (fboundp (quote set-active)) (set-active box nil)) box) (let ((box (om-load-boxcall (quote lispfun) "LIST 9" (quote list) (quote ((om-load-inputfun (quote input-funbox) "add-input" "add-input" nil) (om-load-inputfun (quote input-funbox) "add-input" "add-input" nil))) (om-make-point 325 551) (om-make-point 90 43) nil nil nil 1))) (when (fboundp (quote set-active)) (set-active box nil)) box) (let ((box (om-load-boxcall (quote bastype) "list 7" (quote list) (quote nil) (om-make-point 853 345) (om-make-point 24 30) 12 "12" nil))) (when (fboundp (quote set-active)) (set-active box nil)) box) (let ((box (om-load-boxwithed1 (quote box-with-win) "modx 2" (quote omloop) (quote ((om-load-inputfun (quote input-funbox) "" "pc-set" nil) (om-load-inputfun (quote input-funbox) "" "input" nil))) (om-make-point 811 372) nil nil nil (list (let ((box (om-load-boxcall (quote genfun) "collect" (quote listing) (quote ((om-load-inputfun (quote input-funbox) "anything" "DATA" nil))) (om-make-point 217 168) nil nil nil nil 3))) (when (fboundp (quote set-active)) (set-active box nil)) box) (let ((box (om-load-boxin "mod" 1 (om-make-point 203 59) "" "mod" nil nil))) (when (fboundp (quote set-active)) (set-active box nil)) box) (let ((box (om-load-boxcall (quote lispfun) "MOD" (quote mod) (quote ((om-load-inputfun (quote input-funbox) "X" "X" nil) (om-load-inputfun (quote input-funbox) "Y" "Y" nil))) (om-make-point 130 130) nil nil nil nil 1))) (when (fboundp (quote set-active)) (set-active box nil)) box) (let ((box (om-load-boxcall (quote genfun) "inlist" (quote listloop) (quote ((om-load-inputfun (quote input-funbox) "list to iterate" "LIST" nil))) (om-make-point 63 80) nil nil nil nil 1))) (when (fboundp (quote set-active)) (set-active box nil)) box) (let ((box (om-load-boxin "pc-set" 0 (om-make-point 5 45) "" "pc-set" nil nil))) (when (fboundp (quote set-active)) (set-active box nil)) box) (let ((box (om-load-seqbox "finally" (quote finaldo) (quote ((om-load-inputfun (quote input-funbox) "value to return" "VAL" nil))) (om-make-point 300 250) nil nil nil 0))) (when (fboundp (quote set-active)) (set-active box nil)) box) (let ((box (om-load-seqbox "eachTime" (quote loopdo) (quote ((om-load-inputfun (quote input-funbox) "operations to do" "OP" nil))) (om-make-point 200 250) nil nil nil 0))) (when (fboundp (quote set-active)) (set-active box nil)) box)) (quote ((2 0 0 0 nil 0) (3 0 2 0 nil 0) (1 0 2 1 nil 0) (4 0 3 0 nil 0) (0 1 5 0 nil 0) (0 0 6 0 nil 0))) 1 "modx" nil))) (when (fboundp (quote set-active)) (set-active box nil)) box) (let ((box (om-load-boxcall (quote bastype) "list 6" (quote list) (quote nil) (om-make-point 902 485) (om-make-point 38 30) (list 4 4) "(4 4)" nil))) (when (fboundp (quote set-active)) (set-active box nil)) box) (let ((box (om-load-boxcall (quote abstraction) "pcset->timepoint 3" (om-load-patch-abs1 "pcset->timepoint" (quote ((let ((box (om-load-boxcall (quote bastype) "list 2" (quote list) (quote nil) (om-make-point 59 465) (om-make-point 17 30) 0 "0" nil))) (when (fboundp (quote set-active)) (set-active box nil)) box) (let ((box (om-load-boxcall (quote lispfun) "REMOVE" (quote remove) (quote ((om-load-inputfun (quote input-funbox) "ITEM" "ITEM" nil) (om-load-inputfun (quote input-funbox) "SEQUENCE" "SEQUENCE" nil))) (om-make-point 94 506) nil nil nil nil 1))) (when (fboundp (quote set-active)) (set-active box nil)) box) (let ((box (om-load-boxin "t-signs" 2 (om-make-point 311 408) "" "t-signs" nil nil))) (when (fboundp (quote set-active)) (set-active box nil)) box) (let ((box (om-load-boxcall (quote genfun) "MKTREE" (quote mktree) (quote ((om-load-inputfun (quote input-funbox) "list of integer ratios" "RHYTHM" (list 1/4 1/4 1/4 1/4)) (om-load-inputfun (quote input-funbox) "list of time signatures" "TIMESIGNS" (list 4 4)))) (om-make-point 243 504) nil nil nil nil 1))) (when (fboundp (quote set-active)) (set-active box nil)) box) (let ((box (om-load-boxcall (quote genfun) "X-APPEND" (quote x-append) (quote ((om-load-inputfun (quote input-funbox) "first element" "L1?" nil) (om-load-inputfun (quote input-funbox) "second element" "L2?" nil))) (om-make-point 181 416) nil nil nil nil 1))) (when (fboundp (quote set-active)) (set-active box nil)) box) (let ((box (om-load-boxcall (quote bastype) "list" (quote list) (quote nil) (om-make-point 147 304) (om-make-point 22 30) -1 "-1" nil))) (when (fboundp (quote set-active)) (set-active box nil)) box) (let ((box (om-load-boxcall (quote genfun) "OM* 3" (quote om*) (quote ((om-load-inputfun (quote input-funbox) "number or list" "SELF" 0) (om-load-inputfun (quote input-funbox) "number or list" "NUM" 0))) (om-make-point 104 338) (om-make-point 44 35) nil nil nil 1))) (when (fboundp (quote set-active)) (set-active box nil)) box) (let ((box (om-load-boxcall (quote genfun) "OM* 2" (quote om*) (quote ((om-load-inputfun (quote input-funbox) "number or list" "SELF" 0) (om-load-inputfun (quote input-funbox) "number or list" "NUM" 0))) (om-make-point 78 280) nil nil nil nil 1))) (when (fboundp (quote set-active)) (set-active box nil)) box) (let ((box (om-load-boxcall (quote lispfun) "FIRST 2" (quote first) (quote ((om-load-inputfun (quote input-funbox) "LIST" "LIST" nil))) (om-make-point 39 229) nil nil nil nil 1))) (when (fboundp (quote set-active)) (set-active box nil)) box) (let ((box (om-load-boxin "dur-mod" 1 (om-make-point 220 95) "" "dur-mod" nil nil))) (when (fboundp (quote set-active)) (set-active box nil)) box) (let ((box (om-load-boxout "output" 0 (om-make-point 301 588) (quote ((om-load-inputfun (quote input-funbox) "" "out" nil))) "voice" nil))) (when (fboundp (quote set-active)) (set-active box nil)) box) (let ((box (om-load-boxcall (quote genfun) "OM*" (quote om*) (quote ((om-load-inputfun (quote input-funbox) "number or list" "SELF" 0) (om-load-inputfun (quote input-funbox) "number or list" "NUM" 0))) (om-make-point 191 187) nil nil nil nil 1))) (when (fboundp (quote set-active)) (set-active box nil)) box) (let ((box (om-load-boxwithed1 (quote box-with-win) "opci" (quote omloop) (quote ((om-load-inputfun (quote input-funbox) "" "list" nil))) (om-make-point 115 113) nil nil nil (list (let ((box (om-load-boxcall (quote bastype) "list 2" (quote list) (quote nil) (om-make-point 155 350) (om-make-point 24 30) 12 "12" nil))) (when (fboundp (quote set-active)) (set-active box nil)) box) (let ((box (om-load-boxcall (quote lispfun) "MOD" (quote mod) (quote ((om-load-inputfun (quote input-funbox) "X" "X" nil) (om-load-inputfun (quote input-funbox) "Y" "Y" nil))) (om-make-point 119 396) nil nil nil nil 1))) (when (fboundp (quote set-active)) (set-active box nil)) box) (let ((box (om-load-boxcall (quote genfun) "OM-" (quote om-) (quote ((om-load-inputfun (quote input-funbox) "number or list" "ARG1" 0) (om-load-inputfun (quote input-funbox) "number or list" "ARG2" 0))) (om-make-point 63 346) nil nil nil nil 1))) (when (fboundp (quote set-active)) (set-active box nil)) box) (let ((box (om-load-boxcall (quote lispfun) "BUTLAST" (quote butlast) (quote ((om-load-inputfun (quote input-funbox) "LIST" "LIST" nil))) (om-make-point 18 121) nil nil nil nil 1))) (when (fboundp (quote set-active)) (set-active box nil)) box) (let ((box (om-load-boxcall (quote genfun) "collect" (quote listing) (quote ((om-load-inputfun (quote input-funbox) "anything" "DATA" nil))) (om-make-point 289 370) nil nil nil nil 3))) (when (fboundp (quote set-active)) (set-active box nil)) box) (let ((box (om-load-boxcall (quote lispfun) "NTH" (quote nth) (quote ((om-load-inputfun (quote input-funbox) "ORIG-N" "ORIG-N" nil) (om-load-inputfun (quote input-funbox) "ORIG-LIST" "ORIG-LIST" nil))) (om-make-point 240 231) nil nil nil nil 1))) (when (fboundp (quote set-active)) (set-active box nil)) box) (let ((box (om-load-boxcall (quote genfun) "count" (quote counter) (quote ((om-load-inputfun (quote input-funbox) "things to count" "SOMETHING" nil))) (om-make-point 160 171) nil nil nil nil 3))) (when (fboundp (quote set-active)) (set-active box nil)) box) (let ((box (om-load-boxcall (quote genfun) "inlist" (quote listloop) (quote ((om-load-inputfun (quote input-funbox) "list to iterate" "LIST" nil))) (om-make-point 4 186) nil nil nil nil 1))) (when (fboundp (quote set-active)) (set-active box nil)) box) (let ((box (om-load-boxin "list" 0 (om-make-point 5 45) "" "list" nil nil))) (when (fboundp (quote set-active)) (set-active box nil)) box) (let ((box (om-load-seqbox "finally" (quote finaldo) (quote ((om-load-inputfun (quote input-funbox) "value to return" "VAL" nil))) (om-make-point 352 482) nil nil nil 0))) (when (fboundp (quote set-active)) (set-active box nil)) box) (let ((box (om-load-seqbox "eachTime" (quote loopdo) (quote ((om-load-inputfun (quote input-funbox) "operations to do" "OP" nil))) (om-make-point 212 483) nil nil nil 0))) (when (fboundp (quote set-active)) (set-active box nil)) box)) (quote ((2 0 1 0 nil 0) (0 0 1 1 nil 0) (5 0 2 0 nil 0) (7 0 2 1 nil 0) (8 0 3 0 nil 0) (1 0 4 0 nil 0) (6 0 5 0 nil 0) (8 0 5 1 nil 0) (7 0 6 0 nil 0) (3 0 7 0 nil 0) (4 1 9 0 nil 0) (4 0 10 0 nil 0))) 1 "opci" nil))) (when (fboundp (quote set-active)) (set-active box nil)) box) (let ((box (om-load-boxin "pc-set" 0 (om-make-point 5 45) "" "pc-set" nil nil))) (when (fboundp (quote set-active)) (set-active box nil)) box))) (quote ((0 0 1 0 nil 0) (4 0 1 1 nil 0) (1 0 3 0 nil 0) (2 0 3 1 nil 0) (6 0 4 0 nil 0) (11 0 4 1 nil 0) (7 0 6 0 nil 0) (5 0 6 1 nil 0) (8 0 7 0 nil 0) (9 0 7 1 nil 0) (13 0 8 0 nil 0) (3 0 10 0 nil 0) (12 0 11 0 nil 0) (9 0 11 1 nil 0) (13 0 12 0 nil 0))) 7.01 nil "" (om-make-point 200 200) (om-make-point 500 400)) (quote ((om-load-inputfun (quote input-funbox) "" "pc-set" nil) (om-load-inputfun (quote input-funbox) "" "dur-mod" nil) (om-load-inputfun (quote input-funbox) "" "input" nil))) (om-make-point 763 473) nil (list (list (quote ?) (list (list (list 4 4) (list (list 1 (list -2 1)) (list 1 (list 1.0 5)) 1 (list 1 (list 1.0 1)))) (list (list 4 4) (list 1.0 (list 1 (list 2.0 3 -1)) -2))))) nil "pcset->timepoint"))) (when (fboundp (quote set-active)) (set-active box nil)) box) (let ((box (om-load-boxcall (quote bastype) "list 5" (quote list) (quote nil) (om-make-point 875 434) (om-make-point 46 30) 1/24 "1/24" nil))) (when (fboundp (quote set-active)) (set-active box nil)) box) (let ((box (om-load-editor-box1 "VOICE 3" (quote voice) (quote ((om-load-inputfun (quote input-funbox) "object" "self" nil) (om-load-inputfun (quote input-funbox) "a list representing a rhythm tree" "tree" (list (quote ?) (list (list (list 4 4) (list 1 1 1 1))))) (om-load-inputfun (quote input-funbox) "a chord object, a list of chords, a list of midics, a list of lists of midics..." "chords" (list (let ((thechord (make-instance (quote chord) :lmidic (quote (6000)) :ldur (quote (1000)) :lvel (quote (100)) :loffset (quote (0)) :lchan (quote (1))))) (load-port-info thechord (quote (0))) (init-mus-color thechord (quote nil)) (set-extra-pairs thechord (quote nil)) (set-tonalite thechord nil) thechord))) (om-load-inputfun (quote input-funbox) "frequency of the quarter-note (default 60/mn)" "tempo" 60) (om-load-inputfun (quote input-funbox) "overlapping percentage between every successive chords, calculated from the second chord's duration" "legato" 100) (om-load-inputfun (quote input-funbox) "sub lists (one sub list per chord) indicating notes to be tied to notes of the same value, in a next chord" "ties" nil))) (om-make-point 752 560) (om-make-point 130 70) (let ((newobj (when (find-class (quote voice) nil) (make-instance (quote voice) :tree (quote (2 (((4 4) ((1 (-2 1)) (1 (1.0 4 1.0)) 1 (1 (1.0 1)))) ((4 4) (1.0 (1 (2.0 3 -1)) -2))))) :chords (load-obj-list-from-save (quote ((let ((thechord (make-instance (quote chord) :lmidic (quote (6000)) :ldur (quote (333)) :lvel (quote (100)) :loffset (quote (0)) :lchan (quote (1))))) (load-port-info thechord (quote (0))) (init-mus-color thechord (quote nil)) (set-extra-pairs thechord (quote nil)) (set-tonalite thechord nil) thechord) (let ((thechord (make-instance (quote chord) :lmidic (quote (6000)) :ldur (quote (667)) :lvel (quote (100)) :loffset (quote (0)) :lchan (quote (1))))) (load-port-info thechord (quote (0))) (init-mus-color thechord (quote nil)) (set-extra-pairs thechord (quote nil)) (set-tonalite thechord nil) thechord) (let ((thechord (make-instance (quote chord) :lmidic (quote (6000)) :ldur (quote (1000)) :lvel (quote (100)) :loffset (quote (0)) :lchan (quote (1))))) (load-port-info thechord (quote (0))) (init-mus-color thechord (quote nil)) (set-extra-pairs thechord (quote nil)) (set-tonalite thechord nil) thechord) (let ((thechord (make-instance (quote chord) :lmidic (quote (6000)) :ldur (quote (500)) :lvel (quote (100)) :loffset (quote (0)) :lchan (quote (1))))) (load-port-info thechord (quote (0))) (init-mus-color thechord (quote nil)) (set-extra-pairs thechord (quote nil)) (set-tonalite thechord nil) thechord) (let ((thechord (make-instance (quote chord) :lmidic (quote (6000)) :ldur (quote (500)) :lvel (quote (100)) :loffset (quote (0)) :lchan (quote (1))))) (load-port-info thechord (quote (0))) (init-mus-color thechord (quote nil)) (set-extra-pairs thechord (quote nil)) (set-tonalite thechord nil) thechord)))) :tempo (quote ((1/4 60) nil)) :legato 100 :ties (quote (nil nil nil nil nil)))))) (load-port-info newobj (quote nil)) (init-mus-color newobj (quote nil)) (set-extra-pairs newobj (quote nil)) (set-patch-pairs newobj (quote ((nil (om-load-patch-abs1 "patch" (quote nil) (quote nil) 7.01 nil "" (om-make-point 200 200) (om-make-point 400 500)))))) (set-name newobj nil) (set-tonalite newobj nil) newobj) nil nil (pairlis (quote (scale show-stems cursor-mode obj-mode score-mode winpos winsize mode grillestep notechancolor? zoom player inport outport deltapict cmnpref staff fontsize approx)) (list nil (quote t) (quote :normal) 1 0 (om-make-point 102 25) (om-make-point 846 327) 0 1000 nil 49/25 (quote :osc-scoreplayer) nil nil (om-make-point 0 0) (let ((newobj (make-instance (quote edition-values)))) (setf (paper-size newobj) (om-make-point 600 800)) (setf (top-margin newobj) 2) (setf (left-margin newobj) 1) (setf (right-margin newobj) 1) (setf (bottom-margin newobj) 1) (setf (orientation newobj) nil) (setf (scale newobj) nil) (setf (system-space newobj) (quote (1))) (setf (system-color newobj) (quote nil)) (setf (line-space newobj) 1) (setf (title newobj) nil) (setf (show-title? newobj) nil) (setf (show-page? newobj) nil) (setf (sheet-id newobj) nil) (setf (page-mode newobj) nil) newobj) (quote g) 24 2)) t nil nil nil))) (when (fboundp (quote set-active)) (set-active box nil)) box) (let ((box (om-load-boxcall (quote bastype) "list 4" (quote list) (quote nil) (om-make-point 595 356) (om-make-point 24 30) 12 "12" nil))) (when (fboundp (quote set-active)) (set-active box nil)) box) (let ((box (om-load-boxwithed1 (quote box-with-win) "modx" (quote omloop) (quote ((om-load-inputfun (quote input-funbox) "" "pc-set" nil) (om-load-inputfun (quote input-funbox) "" "input" nil))) (om-make-point 553 383) nil nil nil (list (let ((box (om-load-boxcall (quote genfun) "collect" (quote listing) (quote ((om-load-inputfun (quote input-funbox) "anything" "DATA" nil))) (om-make-point 217 168) nil nil nil nil 3))) (when (fboundp (quote set-active)) (set-active box nil)) box) (let ((box (om-load-boxin "mod" 1 (om-make-point 203 59) "" "mod" nil nil))) (when (fboundp (quote set-active)) (set-active box nil)) box) (let ((box (om-load-boxcall (quote lispfun) "MOD" (quote mod) (quote ((om-load-inputfun (quote input-funbox) "X" "X" nil) (om-load-inputfun (quote input-funbox) "Y" "Y" nil))) (om-make-point 130 130) nil nil nil nil 1))) (when (fboundp (quote set-active)) (set-active box nil)) box) (let ((box (om-load-boxcall (quote genfun) "inlist" (quote listloop) (quote ((om-load-inputfun (quote input-funbox) "list to iterate" "LIST" nil))) (om-make-point 63 80) nil nil nil nil 1))) (when (fboundp (quote set-active)) (set-active box nil)) box) (let ((box (om-load-boxin "pc-set" 0 (om-make-point 5 45) "" "pc-set" nil nil))) (when (fboundp (quote set-active)) (set-active box nil)) box) (let ((box (om-load-seqbox "finally" (quote finaldo) (quote ((om-load-inputfun (quote input-funbox) "value to return" "VAL" nil))) (om-make-point 300 250) nil nil nil 0))) (when (fboundp (quote set-active)) (set-active box nil)) box) (let ((box (om-load-seqbox "eachTime" (quote loopdo) (quote ((om-load-inputfun (quote input-funbox) "operations to do" "OP" nil))) (om-make-point 200 250) nil nil nil 0))) (when (fboundp (quote set-active)) (set-active box nil)) box)) (quote ((2 0 0 0 nil 0) (3 0 2 0 nil 0) (1 0 2 1 nil 0) (4 0 3 0 nil 0) (0 1 5 0 nil 0) (0 0 6 0 nil 0))) 1 "modx" nil))) (when (fboundp (quote set-active)) (set-active box nil)) box) (let ((box (om-load-boxcall (quote bastype) "list 2" (quote list) (quote nil) (om-make-point 345 290) (om-make-point 38 30) (list 4 4) "(4 4)" nil))) (when (fboundp (quote set-active)) (set-active box nil)) box) (let ((box (om-load-boxcall (quote bastype) "list" (quote list) (quote nil) (om-make-point 289 289) (om-make-point 46 30) 1/24 "1/24" nil))) (when (fboundp (quote set-active)) (set-active box nil)) box) (let ((box (om-load-boxcall (quote abstraction) "pcset->timepoint 2" (om-load-patch-abs1 "pcset->timepoint" (quote ((let ((box (om-load-boxcall (quote bastype) "list 2" (quote list) (quote nil) (om-make-point 106 490) (om-make-point 17 30) 0 "0" nil))) (when (fboundp (quote set-active)) (set-active box nil)) box) (let ((box (om-load-boxcall (quote lispfun) "REMOVE" (quote remove) (quote ((om-load-inputfun (quote input-funbox) "ITEM" "ITEM" nil) (om-load-inputfun (quote input-funbox) "SEQUENCE" "SEQUENCE" nil))) (om-make-point 126 513) nil nil nil nil 1))) (when (fboundp (quote set-active)) (set-active box nil)) box) (let ((box (om-load-boxin "t-signs" 2 (om-make-point 311 408) "" "t-signs" nil nil))) (when (fboundp (quote set-active)) (set-active box nil)) box) (let ((box (om-load-boxcall (quote genfun) "MKTREE" (quote mktree) (quote ((om-load-inputfun (quote input-funbox) "list of integer ratios" "RHYTHM" (list 1/4 1/4 1/4 1/4)) (om-load-inputfun (quote input-funbox) "list of time signatures" "TIMESIGNS" (list 4 4)))) (om-make-point 243 504) nil nil nil nil 1))) (when (fboundp (quote set-active)) (set-active box nil)) box) (let ((box (om-load-boxcall (quote genfun) "X-APPEND" (quote x-append) (quote ((om-load-inputfun (quote input-funbox) "first element" "L1?" nil) (om-load-inputfun (quote input-funbox) "second element" "L2?" nil))) (om-make-point 181 416) nil nil nil nil 1))) (when (fboundp (quote set-active)) (set-active box nil)) box) (let ((box (om-load-boxcall (quote bastype) "list" (quote list) (quote nil) (om-make-point 147 304) (om-make-point 22 30) -1 "-1" nil))) (when (fboundp (quote set-active)) (set-active box nil)) box) (let ((box (om-load-boxcall (quote genfun) "OM* 3" (quote om*) (quote ((om-load-inputfun (quote input-funbox) "number or list" "SELF" 0) (om-load-inputfun (quote input-funbox) "number or list" "NUM" 0))) (om-make-point 104 338) (om-make-point 44 35) nil nil nil 1))) (when (fboundp (quote set-active)) (set-active box nil)) box) (let ((box (om-load-boxcall (quote genfun) "OM* 2" (quote om*) (quote ((om-load-inputfun (quote input-funbox) "number or list" "SELF" 0) (om-load-inputfun (quote input-funbox) "number or list" "NUM" 0))) (om-make-point 78 280) nil nil nil nil 1))) (when (fboundp (quote set-active)) (set-active box nil)) box) (let ((box (om-load-boxcall (quote lispfun) "FIRST 2" (quote first) (quote ((om-load-inputfun (quote input-funbox) "LIST" "LIST" nil))) (om-make-point 39 229) nil nil nil nil 1))) (when (fboundp (quote set-active)) (set-active box nil)) box) (let ((box (om-load-boxin "dur-mod" 1 (om-make-point 220 95) "" "dur-mod" nil nil))) (when (fboundp (quote set-active)) (set-active box nil)) box) (let ((box (om-load-boxout "output" 0 (om-make-point 301 588) (quote ((om-load-inputfun (quote input-funbox) "" "out" nil))) "voice" nil))) (when (fboundp (quote set-active)) (set-active box nil)) box) (let ((box (om-load-boxcall (quote genfun) "OM*" (quote om*) (quote ((om-load-inputfun (quote input-funbox) "number or list" "SELF" 0) (om-load-inputfun (quote input-funbox) "number or list" "NUM" 0))) (om-make-point 191 187) nil nil nil nil 1))) (when (fboundp (quote set-active)) (set-active box nil)) box) (let ((box (om-load-boxwithed1 (quote box-with-win) "opci" (quote omloop) (quote ((om-load-inputfun (quote input-funbox) "" "list" nil))) (om-make-point 115 113) nil nil nil (list (let ((box (om-load-boxcall (quote bastype) "list 2" (quote list) (quote nil) (om-make-point 155 350) (om-make-point 24 30) 12 "12" nil))) (when (fboundp (quote set-active)) (set-active box nil)) box) (let ((box (om-load-boxcall (quote lispfun) "MOD" (quote mod) (quote ((om-load-inputfun (quote input-funbox) "X" "X" nil) (om-load-inputfun (quote input-funbox) "Y" "Y" nil))) (om-make-point 119 396) nil nil nil nil 1))) (when (fboundp (quote set-active)) (set-active box nil)) box) (let ((box (om-load-boxcall (quote genfun) "OM-" (quote om-) (quote ((om-load-inputfun (quote input-funbox) "number or list" "ARG1" 0) (om-load-inputfun (quote input-funbox) "number or list" "ARG2" 0))) (om-make-point 63 346) nil nil nil nil 1))) (when (fboundp (quote set-active)) (set-active box nil)) box) (let ((box (om-load-boxcall (quote lispfun) "BUTLAST" (quote butlast) (quote ((om-load-inputfun (quote input-funbox) "LIST" "LIST" nil))) (om-make-point 18 121) nil nil nil nil 1))) (when (fboundp (quote set-active)) (set-active box nil)) box) (let ((box (om-load-boxcall (quote genfun) "collect" (quote listing) (quote ((om-load-inputfun (quote input-funbox) "anything" "DATA" nil))) (om-make-point 289 370) nil nil nil nil 3))) (when (fboundp (quote set-active)) (set-active box nil)) box) (let ((box (om-load-boxcall (quote lispfun) "NTH" (quote nth) (quote ((om-load-inputfun (quote input-funbox) "ORIG-N" "ORIG-N" nil) (om-load-inputfun (quote input-funbox) "ORIG-LIST" "ORIG-LIST" nil))) (om-make-point 240 231) nil nil nil nil 1))) (when (fboundp (quote set-active)) (set-active box nil)) box) (let ((box (om-load-boxcall (quote genfun) "count" (quote counter) (quote ((om-load-inputfun (quote input-funbox) "things to count" "SOMETHING" nil))) (om-make-point 160 171) nil nil nil nil 3))) (when (fboundp (quote set-active)) (set-active box nil)) box) (let ((box (om-load-boxcall (quote genfun) "inlist" (quote listloop) (quote ((om-load-inputfun (quote input-funbox) "list to iterate" "LIST" nil))) (om-make-point 4 186) nil nil nil nil 1))) (when (fboundp (quote set-active)) (set-active box nil)) box) (let ((box (om-load-boxin "list" 0 (om-make-point 5 45) "" "list" nil nil))) (when (fboundp (quote set-active)) (set-active box nil)) box) (let ((box (om-load-seqbox "finally" (quote finaldo) (quote ((om-load-inputfun (quote input-funbox) "value to return" "VAL" nil))) (om-make-point 352 482) nil nil nil 0))) (when (fboundp (quote set-active)) (set-active box nil)) box) (let ((box (om-load-seqbox "eachTime" (quote loopdo) (quote ((om-load-inputfun (quote input-funbox) "operations to do" "OP" nil))) (om-make-point 212 483) nil nil nil 0))) (when (fboundp (quote set-active)) (set-active box nil)) box)) (quote ((2 0 1 0 nil 0) (0 0 1 1 nil 0) (5 0 2 0 nil 0) (7 0 2 1 nil 0) (8 0 3 0 nil 0) (1 0 4 0 nil 0) (6 0 5 0 nil 0) (8 0 5 1 nil 0) (7 0 6 0 nil 0) (3 0 7 0 nil 0) (4 1 9 0 nil 0) (4 0 10 0 nil 0))) 1 "opci" nil))) (when (fboundp (quote set-active)) (set-active box nil)) box) (let ((box (om-load-boxin "pc-set" 0 (om-make-point 5 45) "" "pc-set" nil nil))) (when (fboundp (quote set-active)) (set-active box nil)) box))) (quote ((0 0 1 0 nil 0) (4 0 1 1 nil 0) (1 0 3 0 nil 0) (2 0 3 1 nil 0) (6 0 4 0 nil 0) (11 0 4 1 nil 0) (7 0 6 0 nil 0) (5 0 6 1 nil 0) (8 0 7 0 nil 0) (9 0 7 1 nil 0) (13 0 8 0 nil 0) (3 0 10 0 nil 0) (12 0 11 0 nil 0) (9 0 11 1 nil 0) (13 0 12 0 nil 0))) 7.01 nil "" (om-make-point 200 200) (om-make-point 500 400)) (quote ((om-load-inputfun (quote input-funbox) "" "pc-set" nil) (om-load-inputfun (quote input-funbox) "" "dur-mod" nil) (om-load-inputfun (quote input-funbox) "" "input" nil))) (om-make-point 243 335) nil (list (list (quote ?) (list (list (list 4 4) (list -1 (list 1 (list -1 1)) (list 1 (list 5 1)) 1.0)) (list (list 4 4) (list (list 1 (list 1.0 2)) 1.0 (list 1 (list 1.0 3 -2)) -1))))) nil "pcset->timepoint"))) (when (fboundp (quote set-active)) (set-active box nil)) box) (let ((box (om-load-boxcall (quote bastype) "list 8" (quote list) (quote nil) (om-make-point 644 496) (om-make-point 38 30) (list 4 4) "(4 4)" nil))) (when (fboundp (quote set-active)) (set-active box nil)) box) (let ((box (om-load-boxcall (quote bastype) "list 3" (quote list) (quote nil) (om-make-point 617 445) (om-make-point 46 30) 1/24 "1/24" nil))) (when (fboundp (quote set-active)) (set-active box nil)) box) (let ((box (om-load-editor-box1 "VOICE 2" (quote voice) (quote ((om-load-inputfun (quote input-funbox) "object" "self" nil) (om-load-inputfun (quote input-funbox) "a list representing a rhythm tree" "tree" (list (quote ?) (list (list (list 4 4) (list 1 1 1 1))))) (om-load-inputfun (quote input-funbox) "a chord object, a list of chords, a list of midics, a list of lists of midics..." "chords" (list (let ((thechord (make-instance (quote chord) :lmidic (quote (6000)) :ldur (quote (1000)) :lvel (quote (100)) :loffset (quote (0)) :lchan (quote (1))))) (load-port-info thechord (quote (0))) (init-mus-color thechord (quote nil)) (set-extra-pairs thechord (quote nil)) (set-tonalite thechord nil) thechord))) (om-load-inputfun (quote input-funbox) "frequency of the quarter-note (default 60/mn)" "tempo" 60) (om-load-inputfun (quote input-funbox) "overlapping percentage between every successive chords, calculated from the second chord's duration" "legato" 100) (om-load-inputfun (quote input-funbox) "sub lists (one sub list per chord) indicating notes to be tied to notes of the same value, in a next chord" "ties" nil))) (om-make-point 494 571) (om-make-point 130 70) (let ((newobj (when (find-class (quote voice) nil) (make-instance (quote voice) :tree (quote (2 (((4 4) ((1 (-2 3 1)) (1 (2.0 1)) 1.0 (1 (1.0 4 1.0)))) ((4 4) (1.0 (1 (1 -1)) -2))))) :chords (load-obj-list-from-save (quote ((let ((thechord (make-instance (quote chord) :lmidic (quote (6000)) :ldur (quote (500)) :lvel (quote (100)) :loffset (quote (0)) :lchan (quote (1))))) (load-port-info thechord (quote (0))) (init-mus-color thechord (quote nil)) (set-extra-pairs thechord (quote nil)) (set-tonalite thechord nil) thechord) (let ((thechord (make-instance (quote chord) :lmidic (quote (6000)) :ldur (quote (167)) :lvel (quote (100)) :loffset (quote (0)) :lchan (quote (1))))) (load-port-info thechord (quote (0))) (init-mus-color thechord (quote nil)) (set-extra-pairs thechord (quote nil)) (set-tonalite thechord nil) thechord) (let ((thechord (make-instance (quote chord) :lmidic (quote (6000)) :ldur (quote (333)) :lvel (quote (100)) :loffset (quote (0)) :lchan (quote (1))))) (load-port-info thechord (quote (0))) (init-mus-color thechord (quote nil)) (set-extra-pairs thechord (quote nil)) (set-tonalite thechord nil) thechord) (let ((thechord (make-instance (quote chord) :lmidic (quote (6000)) :ldur (quote (667)) :lvel (quote (100)) :loffset (quote (0)) :lchan (quote (1))))) (load-port-info thechord (quote (0))) (init-mus-color thechord (quote nil)) (set-extra-pairs thechord (quote nil)) (set-tonalite thechord nil) thechord) (let ((thechord (make-instance (quote chord) :lmidic (quote (6000)) :ldur (quote (500)) :lvel (quote (100)) :loffset (quote (0)) :lchan (quote (1))))) (load-port-info thechord (quote (0))) (init-mus-color thechord (quote nil)) (set-extra-pairs thechord (quote nil)) (set-tonalite thechord nil) thechord)))) :tempo (quote ((1/4 60) nil)) :legato 100 :ties (quote (nil nil nil nil nil)))))) (load-port-info newobj (quote nil)) (init-mus-color newobj (quote nil)) (set-extra-pairs newobj (quote nil)) (set-patch-pairs newobj (quote nil)) (set-name newobj nil) (set-tonalite newobj nil) newobj) nil nil (pairlis (quote (scale show-stems cursor-mode obj-mode score-mode winpos winsize mode grillestep notechancolor? zoom player inport outport deltapict cmnpref staff fontsize approx)) (list nil (quote t) (quote :normal) 1 0 (om-make-point 102 25) (om-make-point 846 327) 0 1000 nil 1 (quote :osc-scoreplayer) nil nil (om-make-point 0 0) (let ((newobj (make-instance (quote edition-values)))) (setf (paper-size newobj) (om-make-point 600 800)) (setf (top-margin newobj) 2) (setf (left-margin newobj) 1) (setf (right-margin newobj) 1) (setf (bottom-margin newobj) 1) (setf (orientation newobj) nil) (setf (scale newobj) nil) (setf (system-space newobj) (quote (1))) (setf (system-color newobj) (quote nil)) (setf (line-space newobj) 1) (setf (title newobj) nil) (setf (show-title? newobj) nil) (setf (show-page? newobj) nil) (setf (sheet-id newobj) nil) (setf (page-mode newobj) nil) newobj) (quote g) 24 2)) t nil nil nil))) (when (fboundp (quote set-active)) (set-active box nil)) box) (let ((box (om-load-boxcall (quote abstraction) "pcset->timepoint" (om-load-patch-abs1 "pcset->timepoint" (quote ((let ((box (om-load-boxcall (quote bastype) "list 2" (quote list) (quote nil) (om-make-point 101 487) (om-make-point 25 28) 0 "0" nil))) (when (fboundp (quote set-active)) (set-active box nil)) box) (let ((box (om-load-boxcall (quote lispfun) "REMOVE" (quote remove) (quote ((om-load-inputfun (quote input-funbox) "ITEM" "ITEM" nil) (om-load-inputfun (quote input-funbox) "SEQUENCE" "SEQUENCE" nil))) (om-make-point 133 532) nil nil nil nil 1))) (when (fboundp (quote set-active)) (set-active box nil)) box) (let ((box (om-load-boxin "t-signs" 2 (om-make-point 311 408) "" "t-signs" nil nil))) (when (fboundp (quote set-active)) (set-active box nil)) box) (let ((box (om-load-boxcall (quote genfun) "MKTREE" (quote mktree) (quote ((om-load-inputfun (quote input-funbox) "list of integer ratios" "RHYTHM" (list 1/4 1/4 1/4 1/4)) (om-load-inputfun (quote input-funbox) "list of time signatures" "TIMESIGNS" (list 4 4)))) (om-make-point 243 504) nil nil nil nil 1))) (when (fboundp (quote set-active)) (set-active box nil)) box) (let ((box (om-load-boxcall (quote genfun) "X-APPEND" (quote x-append) (quote ((om-load-inputfun (quote input-funbox) "first element" "L1?" nil) (om-load-inputfun (quote input-funbox) "second element" "L2?" nil))) (om-make-point 181 416) nil nil nil nil 1))) (when (fboundp (quote set-active)) (set-active box nil)) box) (let ((box (om-load-boxcall (quote bastype) "list" (quote list) (quote nil) (om-make-point 147 304) (om-make-point 22 30) -1 "-1" nil))) (when (fboundp (quote set-active)) (set-active box nil)) box) (let ((box (om-load-boxcall (quote genfun) "OM* 3" (quote om*) (quote ((om-load-inputfun (quote input-funbox) "number or list" "SELF" 0) (om-load-inputfun (quote input-funbox) "number or list" "NUM" 0))) (om-make-point 104 338) (om-make-point 44 35) nil nil nil 1))) (when (fboundp (quote set-active)) (set-active box nil)) box) (let ((box (om-load-boxcall (quote genfun) "OM* 2" (quote om*) (quote ((om-load-inputfun (quote input-funbox) "number or list" "SELF" 0) (om-load-inputfun (quote input-funbox) "number or list" "NUM" 0))) (om-make-point 78 280) nil nil nil nil 1))) (when (fboundp (quote set-active)) (set-active box nil)) box) (let ((box (om-load-boxcall (quote lispfun) "FIRST 2" (quote first) (quote ((om-load-inputfun (quote input-funbox) "LIST" "LIST" nil))) (om-make-point 39 229) nil nil nil nil 1))) (when (fboundp (quote set-active)) (set-active box nil)) box) (let ((box (om-load-boxin "dur-mod" 1 (om-make-point 220 95) "" "dur-mod" nil nil))) (when (fboundp (quote set-active)) (set-active box nil)) box) (let ((box (om-load-boxout "output" 0 (om-make-point 301 588) (quote ((om-load-inputfun (quote input-funbox) "" "out" nil))) "voice" nil))) (when (fboundp (quote set-active)) (set-active box nil)) box) (let ((box (om-load-boxcall (quote genfun) "OM*" (quote om*) (quote ((om-load-inputfun (quote input-funbox) "number or list" "SELF" 0) (om-load-inputfun (quote input-funbox) "number or list" "NUM" 0))) (om-make-point 191 187) nil nil nil nil 1))) (when (fboundp (quote set-active)) (set-active box nil)) box) (let ((box (om-load-boxwithed1 (quote box-with-win) "opci" (quote omloop) (quote ((om-load-inputfun (quote input-funbox) "" "list" nil))) (om-make-point 115 113) nil nil nil (list (let ((box (om-load-boxcall (quote bastype) "list 2" (quote list) (quote nil) (om-make-point 155 350) (om-make-point 24 30) 12 "12" nil))) (when (fboundp (quote set-active)) (set-active box nil)) box) (let ((box (om-load-boxcall (quote lispfun) "MOD" (quote mod) (quote ((om-load-inputfun (quote input-funbox) "X" "X" nil) (om-load-inputfun (quote input-funbox) "Y" "Y" nil))) (om-make-point 119 396) nil nil nil nil 1))) (when (fboundp (quote set-active)) (set-active box nil)) box) (let ((box (om-load-boxcall (quote genfun) "OM-" (quote om-) (quote ((om-load-inputfun (quote input-funbox) "number or list" "ARG1" 0) (om-load-inputfun (quote input-funbox) "number or list" "ARG2" 0))) (om-make-point 63 346) nil nil nil nil 1))) (when (fboundp (quote set-active)) (set-active box nil)) box) (let ((box (om-load-boxcall (quote lispfun) "BUTLAST" (quote butlast) (quote ((om-load-inputfun (quote input-funbox) "LIST" "LIST" nil))) (om-make-point 18 121) nil nil nil nil 1))) (when (fboundp (quote set-active)) (set-active box nil)) box) (let ((box (om-load-boxcall (quote genfun) "collect" (quote listing) (quote ((om-load-inputfun (quote input-funbox) "anything" "DATA" nil))) (om-make-point 289 370) nil nil nil nil 3))) (when (fboundp (quote set-active)) (set-active box nil)) box) (let ((box (om-load-boxcall (quote lispfun) "NTH" (quote nth) (quote ((om-load-inputfun (quote input-funbox) "ORIG-N" "ORIG-N" nil) (om-load-inputfun (quote input-funbox) "ORIG-LIST" "ORIG-LIST" nil))) (om-make-point 240 231) nil nil nil nil 1))) (when (fboundp (quote set-active)) (set-active box nil)) box) (let ((box (om-load-boxcall (quote genfun) "count" (quote counter) (quote ((om-load-inputfun (quote input-funbox) "things to count" "SOMETHING" nil))) (om-make-point 160 171) nil nil nil nil 3))) (when (fboundp (quote set-active)) (set-active box nil)) box) (let ((box (om-load-boxcall (quote genfun) "inlist" (quote listloop) (quote ((om-load-inputfun (quote input-funbox) "list to iterate" "LIST" nil))) (om-make-point 4 186) nil nil nil nil 1))) (when (fboundp (quote set-active)) (set-active box nil)) box) (let ((box (om-load-boxin "list" 0 (om-make-point 5 45) "" "list" nil nil))) (when (fboundp (quote set-active)) (set-active box nil)) box) (let ((box (om-load-seqbox "finally" (quote finaldo) (quote ((om-load-inputfun (quote input-funbox) "value to return" "VAL" nil))) (om-make-point 352 482) nil nil nil 0))) (when (fboundp (quote set-active)) (set-active box nil)) box) (let ((box (om-load-seqbox "eachTime" (quote loopdo) (quote ((om-load-inputfun (quote input-funbox) "operations to do" "OP" nil))) (om-make-point 212 483) nil nil nil 0))) (when (fboundp (quote set-active)) (set-active box nil)) box)) (quote ((2 0 1 0 nil 0) (0 0 1 1 nil 0) (5 0 2 0 nil 0) (7 0 2 1 nil 0) (8 0 3 0 nil 0) (1 0 4 0 nil 0) (6 0 5 0 nil 0) (8 0 5 1 nil 0) (7 0 6 0 nil 0) (3 0 7 0 nil 0) (4 1 9 0 nil 0) (4 0 10 0 nil 0))) 1 "opci" nil))) (when (fboundp (quote set-active)) (set-active box nil)) box) (let ((box (om-load-boxin "pc-set" 0 (om-make-point 5 45) "" "pc-set" nil nil))) (when (fboundp (quote set-active)) (set-active box nil)) box))) (quote ((0 0 1 0 nil 0) (4 0 1 1 nil 0) (1 0 3 0 nil 0) (2 0 3 1 nil 0) (6 0 4 0 nil 0) (11 0 4 1 nil 0) (7 0 6 0 nil 0) (5 0 6 1 nil 0) (8 0 7 0 nil 0) (9 0 7 1 nil 0) (13 0 8 0 nil 0) (3 0 10 0 nil 0) (12 0 11 0 nil 0) (9 0 11 1 nil 0) (13 0 12 0 nil 0))) 7.01 nil "" (om-make-point 1497 81) (om-make-point 837 858)) (quote ((om-load-inputfun (quote input-funbox) "" "pc-set" nil) (om-load-inputfun (quote input-funbox) "" "dur-mod" nil) (om-load-inputfun (quote input-funbox) "" "input" nil))) (om-make-point 505 484) nil (list (list (quote ?) (list (list (list 4 4) (list (list 1 (list -2 3 1)) (list 1 (list 2.0 1)) 1.0 (list 1 (list 1.0 5)))) (list (list 4 4) (list 1.0 (list 1 (list 1 -1)) -2))))) nil "pcset->timepoint"))) (when (fboundp (quote set-active)) (set-active box nil)) box) (let ((box (om-load-boxcall (quote genfun) "OM+ 2" (quote om+) (quote ((om-load-inputfun (quote input-funbox) "number or list" "SELF" 0) (om-load-inputfun (quote input-funbox) "number or list" "NUM" 0))) (om-make-point 767 312) (om-make-point 35 35) nil nil nil 1))) (when (fboundp (quote set-active)) (set-active box nil)) box) (let ((box (om-load-boxcall (quote genfun) "OM+" (quote om+) (quote ((om-load-inputfun (quote input-funbox) "number or list" "SELF" 0) (om-load-inputfun (quote input-funbox) "number or list" "NUM" 0))) (om-make-point 591 287) (om-make-point 35 35) nil nil nil 1))) (when (fboundp (quote set-active)) (set-active box nil)) box) (let ((box (om-load-boxcall (quote lispfun) "SECOND" (quote second) (quote ((om-load-inputfun (quote input-funbox) "LIST" "LIST" nil))) (om-make-point 757 246) nil nil nil nil 1))) (when (fboundp (quote set-active)) (set-active box nil)) box) (let ((box (om-load-boxcall (quote lispfun) "FIRST 2" (quote first) (quote ((om-load-inputfun (quote input-funbox) "LIST" "LIST" nil))) (om-make-point 667 246) nil nil nil nil 1))) (when (fboundp (quote set-active)) (set-active box nil)) box) (let ((box (om-load-boxwithed1 (quote box-with-win) "tlevel-comb" (quote omloop) (quote ((om-load-inputfun (quote input-funbox) "" "index-vector" nil))) (om-make-point 668 159) nil nil nil (list (let ((box (om-load-boxcall (quote genfun) "FLAT" (quote flat) (quote ((om-load-inputfun (quote input-funbox) "a list" "LST" nil))) (om-make-point 510 655) nil nil nil nil 1))) (when (fboundp (quote set-active)) (set-active box nil)) box) (let ((box (om-load-boxcall (quote genfun) "X-APPEND" (quote x-append) (quote ((om-load-inputfun (quote input-funbox) "first element" "L1?" nil) (om-load-inputfun (quote input-funbox) "second element" "L2?" nil))) (om-make-point 385 500) nil nil nil nil 1))) (when (fboundp (quote set-active)) (set-active box nil)) box) (let ((box (om-load-boxcall (quote bastype) "list 4" (quote list) (quote nil) (om-make-point 358 308) (om-make-point 24 30) 12 "12" nil))) (when (fboundp (quote set-active)) (set-active box nil)) box) (let ((box (om-load-boxcall (quote genfun) "OM- 2" (quote om-) (quote ((om-load-inputfun (quote input-funbox) "number or list" "ARG1" 0) (om-load-inputfun (quote input-funbox) "number or list" "ARG2" 0))) (om-make-point 397 345) nil nil nil nil 1))) (when (fboundp (quote set-active)) (set-active box nil)) box) (let ((box (om-load-boxcall (quote bastype) "list" (quote list) (quote nil) (om-make-point 359 700) (om-make-point 23 30) nil "nil" nil))) (when (fboundp (quote set-active)) (set-active box nil)) box) (let ((box (om-load-boxcall (quote lispfun) "REMOVE" (quote remove) (quote ((om-load-inputfun (quote input-funbox) "ITEM" "ITEM" nil) (om-load-inputfun (quote input-funbox) "SEQUENCE" "SEQUENCE" nil))) (om-make-point 400 690) nil nil nil nil 1))) (when (fboundp (quote set-active)) (set-active box nil)) box) (let ((box (om-load-boxcall (quote bastype) "list 3" (quote list) (quote nil) (om-make-point 283 350) (om-make-point 30 30) 0 "0" nil))) (when (fboundp (quote set-active)) (set-active box nil)) box) (let ((box (om-load-boxcall (quote genfun) "OM=" (quote om=) (quote ((om-load-inputfun (quote input-funbox) "a number" "A" 0) (om-load-inputfun (quote input-funbox) "a number" "B" 0))) (om-make-point 249 384) (om-make-point 20 35) nil nil nil 1))) (when (fboundp (quote set-active)) (set-active box nil)) box) (let ((box (om-load-boxcall (quote genfun) "OMIF" (quote omif) (quote ((om-load-inputfun (quote input-funbox) "IF" "TEST" nil) (om-load-inputfun (quote input-funbox) "THEN" "ACTION" nil))) (om-make-point 295 402) nil nil nil nil 1))) (when (fboundp (quote set-active)) (set-active box nil)) box) (let ((box (om-load-boxcall (quote genfun) "collect" (quote listing) (quote ((om-load-inputfun (quote input-funbox) "anything" "DATA" nil))) (om-make-point 341 585) (om-make-point 93 59) nil nil nil 3))) (when (fboundp (quote set-active)) (set-active box nil)) box) (let ((box (om-load-boxcall (quote genfun) "inlist" (quote listloop) (quote ((om-load-inputfun (quote input-funbox) "list to iterate" "LIST" nil))) (om-make-point 149 278) nil nil nil nil 1))) (when (fboundp (quote set-active)) (set-active box nil)) box) (let ((box (om-load-boxcall (quote lispfun) "LENGTH 2" (quote length) (quote ((om-load-inputfun (quote input-funbox) "SEQUENCE" "SEQUENCE" nil))) (om-make-point 108 114) nil nil nil nil 1))) (when (fboundp (quote set-active)) (set-active box nil)) box) (let ((box (om-load-boxcall (quote lispfun) "NTH" (quote nth) (quote ((om-load-inputfun (quote input-funbox) "ORIG-N" "ORIG-N" nil) (om-load-inputfun (quote input-funbox) "ORIG-LIST" "ORIG-LIST" nil))) (om-make-point 225 327) nil nil nil nil 1))) (when (fboundp (quote set-active)) (set-active box nil)) box) (let ((box (om-load-boxcall (quote genfun) "ARITHM-SER" (quote arithm-ser) (quote ((om-load-inputfun (quote input-funbox) "begin" "BEGIN" 0) (om-load-inputfun (quote input-funbox) "end " "END" 10) (om-load-inputfun (quote input-funbox) "step" "STEP" 1))) (om-make-point 75 224) nil nil nil nil 1))) (when (fboundp (quote set-active)) (set-active box nil)) box) (let ((box (om-load-boxcall (quote bastype) "list 2" (quote list) (quote nil) (om-make-point 175 158) (om-make-point 17 30) 1 "1" nil))) (when (fboundp (quote set-active)) (set-active box nil)) box) (let ((box (om-load-boxcall (quote genfun) "OM-" (quote om-) (quote ((om-load-inputfun (quote input-funbox) "number or list" "ARG1" 0) (om-load-inputfun (quote input-funbox) "number or list" "ARG2" 0))) (om-make-point 130 179) (om-make-point 21 35) nil nil nil 1))) (when (fboundp (quote set-active)) (set-active box nil)) box) (let ((box (om-load-boxin "index-vector" 0 (om-make-point 11 51) "" "index-vector" nil nil))) (when (fboundp (quote set-active)) (set-active box nil)) box) (let ((box (om-load-seqbox "finally" (quote finaldo) (quote ((om-load-inputfun (quote input-funbox) "value to return" "VAL" nil))) (om-make-point 556 739) nil nil nil 0))) (when (fboundp (quote set-active)) (set-active box nil)) box) (let ((box (om-load-seqbox "eachTime" (quote loopdo) (quote ((om-load-inputfun (quote input-funbox) "operations to do" "OP" nil))) (om-make-point 301 717) nil nil nil 0))) (when (fboundp (quote set-active)) (set-active box nil)) box)) (quote ((5 0 0 0 nil 0) (8 0 1 0 nil 0) (3 0 1 1 nil 0) (2 0 3 0 nil 0) (8 0 3 1 nil 0) (4 0 5 0 nil 0) (9 1 5 1 nil 0) (12 0 7 0 nil 0) (6 0 7 1 nil 0) (7 0 8 0 nil 0) (10 0 8 1 nil 0) (1 0 9 0 nil 0) (13 0 10 0 nil 0) (16 0 11 0 nil 0) (10 0 12 0 nil 0) (16 0 12 1 nil 0) (15 0 13 1 nil 0) (11 0 15 0 nil 0) (14 0 15 1 nil 0) (0 0 17 0 nil 0) (9 0 18 0 nil 0))) 1 "tlevel-comb" nil))) (when (fboundp (quote set-active)) (set-active box nil)) box) (let ((box (om-load-boxcall (quote patch-box) "006-ivc-dyi" (quote ("elements" "Twine" "006-ivc-dyi")) (quote ((om-load-inputfun (quote input-funbox) "" "input" nil))) (om-make-point 636 79) nil nil nil nil 1))) (when (fboundp (quote set-active)) (set-active box nil)) box) (let ((box (om-load-editor-box1 "VOICE" (quote voice) (quote ((om-load-inputfun (quote input-funbox) "object" "self" nil) (om-load-inputfun (quote input-funbox) "a list representing a rhythm tree" "tree" (list (quote ?) (list (list (list 4 4) (list 1 1 1 1))))) (om-load-inputfun (quote input-funbox) "a chord object, a list of chords, a list of midics, a list of lists of midics..." "chords" (list (let ((thechord (make-instance (quote chord) :lmidic (quote (6000)) :ldur (quote (1000)) :lvel (quote (100)) :loffset (quote (0)) :lchan (quote (1))))) (load-port-info thechord (quote (0))) (init-mus-color thechord (quote nil)) (set-extra-pairs thechord (quote nil)) (set-tonalite thechord nil) thechord))) (om-load-inputfun (quote input-funbox) "frequency of the quarter-note (default 60/mn)" "tempo" 60) (om-load-inputfun (quote input-funbox) "overlapping percentage between every successive chords, calculated from the second chord's duration" "legato" 100) (om-load-inputfun (quote input-funbox) "sub lists (one sub list per chord) indicating notes to be tied to notes of the same value, in a next chord" "ties" nil))) (om-make-point 242 426) (om-make-point 130 70) (let ((newobj (when (find-class (quote voice) nil) (make-instance (quote voice) :tree (quote (2 (((4 4) (-1 (1 (-1 1)) (1 (4 1.0 1)) 1.0)) ((4 4) ((1 (1.0 2)) 1.0 (1 (1.0 3 -2)) -1))))) :chords (load-obj-list-from-save (quote ((let ((thechord (make-instance (quote chord) :lmidic (quote (6000)) :ldur (quote (500)) :lvel (quote (100)) :loffset (quote (0)) :lchan (quote (1))))) (load-port-info thechord (quote (0))) (init-mus-color thechord (quote nil)) (set-extra-pairs thechord (quote nil)) (set-tonalite thechord nil) thechord) (let ((thechord (make-instance (quote chord) :lmidic (quote (6000)) :ldur (quote (667)) :lvel (quote (100)) :loffset (quote (0)) :lchan (quote (1))))) (load-port-info thechord (quote (0))) (init-mus-color thechord (quote nil)) (set-extra-pairs thechord (quote nil)) (set-tonalite thechord nil) thechord) (let ((thechord (make-instance (quote chord) :lmidic (quote (6000)) :ldur (quote (167)) :lvel (quote (100)) :loffset (quote (0)) :lchan (quote (1))))) (load-port-info thechord (quote (0))) (init-mus-color thechord (quote nil)) (set-extra-pairs thechord (quote nil)) (set-tonalite thechord nil) thechord) (let ((thechord (make-instance (quote chord) :lmidic (quote (6000)) :ldur (quote (667)) :lvel (quote (100)) :loffset (quote (0)) :lchan (quote (1))))) (load-port-info thechord (quote (0))) (init-mus-color thechord (quote nil)) (set-extra-pairs thechord (quote nil)) (set-tonalite thechord nil) thechord) (let ((thechord (make-instance (quote chord) :lmidic (quote (6000)) :ldur (quote (500)) :lvel (quote (100)) :loffset (quote (0)) :lchan (quote (1))))) (load-port-info thechord (quote (0))) (init-mus-color thechord (quote nil)) (set-extra-pairs thechord (quote nil)) (set-tonalite thechord nil) thechord)))) :tempo (quote ((1/4 60) nil)) :legato 100 :ties (quote (nil nil nil nil nil)))))) (load-port-info newobj (quote nil)) (init-mus-color newobj (quote nil)) (set-extra-pairs newobj (quote nil)) (set-patch-pairs newobj (quote nil)) (set-name newobj nil) (set-tonalite newobj nil) newobj) nil nil (pairlis (quote (scale show-stems cursor-mode obj-mode score-mode winpos winsize mode grillestep notechancolor? zoom player inport outport deltapict cmnpref staff fontsize approx)) (list nil (quote t) (quote :normal) 1 0 (om-make-point 298 228) (om-make-point 751 298) 0 1000 nil 1 (quote :osc-scoreplayer) nil nil (om-make-point 0 0) (let ((newobj (make-instance (quote edition-values)))) (setf (paper-size newobj) (om-make-point 600 800)) (setf (top-margin newobj) 2) (setf (left-margin newobj) 1) (setf (right-margin newobj) 1) (setf (bottom-margin newobj) 1) (setf (orientation newobj) nil) (setf (scale newobj) nil) (setf (system-space newobj) (quote (1))) (setf (system-color newobj) (quote nil)) (setf (line-space newobj) 1) (setf (title newobj) nil) (setf (show-title? newobj) nil) (setf (show-page? newobj) nil) (setf (sheet-id newobj) nil) (setf (page-mode newobj) nil) newobj) (quote g) 24 2)) t nil nil nil))) (when (fboundp (quote set-active)) (set-active box nil)) box) (let ((box (om-load-editor-box1 "TEXT-BOX" (quote text-box) (quote ((om-load-inputfun (quote input-funbox) "dialog-item text (string)" "text" "untitled"))) (om-make-point 253 171) (om-make-point 209 40) (om-make-dialog-item (quote text-box) (om-make-point 1 1) (om-make-point 181 20) "(9 0 5 2 1 4)" :font (om-make-font "Verdana" 11.0D0 :family "Verdana" :style (quote (:plain)) :mode (quote nil))) nil nil (pairlis (quote (winsize winpos)) (list (om-make-point 335 275) (om-make-point 10 40))) nil nil nil nil))) (when (fboundp (quote set-active)) (set-active box nil)) box) (let ((box (om-load-boxcall (quote genfun) "PERMUT-RANDOM" (quote permut-random) (quote ((om-load-inputfun (quote input-funbox) "a list" "LIST" nil))) (om-make-point 209 83) nil (list (list 9 0 5 2 1 4)) "x" nil 1))) (when (fboundp (quote set-active)) (set-active box nil)) box) (let ((box (om-load-editor-box1 "N-CERCLE3" (quote n-cercle) (quote ((om-load-inputfun (quote input-funbox) "objs" "SELF" nil) (om-load-inputfun (quote input-funbox) "no documentation" "N" 12) (om-load-inputfun (quote input-funbox) "no documentation" "PUNTOS" (list 0 5 7)))) (om-make-point 34 290) (om-make-point 114 100) (if (find-class (quote n-cercle) nil) (make-instance (quote n-cercle) :n 12 :puntos (list (list 0 1 2 4 5 9)) :from-file t)) nil nil (pairlis (quote (show-stems winpos winsize mode grillestep notechancolor? cmnpref obj-mode palette-mode zoom inport outport deltapict)) (list (quote t) (om-make-point 10 40) (om-make-point 370 280) 0 1000 nil (let ((newobj (make-instance (quote edition-values)))) (setf (paper-size newobj) (om-make-point 600 800)) (setf (top-margin newobj) 2) (setf (left-margin newobj) 1) (setf (right-margin newobj) 1) (setf (bottom-margin newobj) 1) (setf (orientation newobj) nil) (setf (scale newobj) nil) (setf (system-space newobj) (quote (1))) (setf (system-color newobj) (quote nil)) (setf (line-space newobj) 1) (setf (title newobj) nil) (setf (show-title? newobj) nil) (setf (show-page? newobj) nil) (setf (sheet-id newobj) nil) (setf (page-mode newobj) nil) newobj) 0 0 1 0 0 (om-make-point 0 0))) t nil nil nil))) (when (fboundp (quote set-active)) (set-active box nil)) box) (let ((box (om-load-boxcall (quote lispfun) "NTH1" (quote nth) (quote ((om-load-inputfun (quote input-funbox) "N" "N" nil) (om-load-inputfun (quote input-funbox) "LIST" "LIST" nil))) (om-make-point 72 220) (om-make-point 24 39) nil nil nil 1))) (when (fboundp (quote set-active)) (set-active box nil)) box) (let ((box (om-load-boxcall (quote bastype) "aux" (quote t) (quote nil) (om-make-point 29 199) (om-make-point 27 30) 5 "5" nil))) (when (fboundp (quote set-active)) (set-active box nil)) box) (let ((box (om-load-boxcall (quote bastype) "aux1" (quote t) (quote nil) (om-make-point 59 57) (om-make-point 27 30) 8 "8" nil))) (when (fboundp (quote set-active)) (set-active box nil)) box) (let ((box (om-load-boxcall (quote genfun) "FAMILLE" (quote famille) (quote ((om-load-inputfun (quote input-funbox) "Zn" "N" 12) (om-load-inputfunmenu1 (quote input-funmenu) "familly" "FAMILLY" "tac" (list (list "tac" "tac") (list "tai" "tai") (list "tic" "tic") (list "ttl" "ttl") (list "tp" "tp") (list "tid" "tid"))) (om-load-inputfun (quote input-funbox) "number of elements" "K" 6) (om-load-inputfun (quote input-funbox) "howmany answers" "HOWMANY" 20))) (om-make-point 49 111) nil (list (list (list 0 2 4 6 8 10) (list 0 1 4 5 8 9) (list 0 1 3 5 8 10) (list 0 1 2 6 7 8) (list 0 1 2 5 9 10) (list 0 1 2 4 5 9) (list 0 1 2 3 5 10) (list 0 1 2 3 4 5))) "x" nil 1))) (when (fboundp (quote set-active)) (set-active box nil)) box))) (quote ((1 0 0 1 nil 0) (23 0 1 0 nil 0) (15 0 1 1 nil 0) (17 0 3 0 nil 0) (2 0 3 1 nil 0) (3 0 5 0 nil 0) (6 0 5 1 nil 0) (4 0 5 2 nil 0) (5 0 7 1 nil 0) (18 0 9 0 nil 0) (8 0 9 1 nil 0) (24 0 12 0 nil 0) (11 0 12 1 nil 0) (10 0 12 2 nil 0) (16 0 15 1 nil 0) (9 0 16 0 nil 0) (14 0 16 1 nil 0) (13 0 16 2 nil 0) (24 0 17 0 nil 0) (19 0 17 1 nil 0) (24 0 18 0 nil 0) (20 0 18 1 nil 0) (21 0 19 0 nil 0) (21 0 20 0 nil 0) (22 0 21 0 nil 0) (25 0 22 0 nil 0) (12 0 23 1 nil 0) (25 0 24 0 nil 0) (27 0 25 0 nil 0) (27 0 26 2 nil 0) (28 0 27 0 nil 0) (30 0 27 1 nil 0) (29 0 30 3 nil 0))) nil 7.01))
