; OM File Header - Saved 2023/04/07 12:38:05
; (7.01 :patc (om-make-point 15 92) (om-make-point 50 50) (om-make-point 1338 962) "No documentation " 183 0 nil nil)
; End File Header
(in-package :om)(load-lib-for (quote nil))(setf *om-current-persistent* (om-load-patch1 "004-assymetric-tiling-canons" (quote ((let ((box (om-load-boxcall (quote genfun) "TRANSP-COMB1" (quote transp-comb) (quote ((om-load-inputfun (quote input-funbox) "no documentation" "A" nil) (om-load-inputfun (quote input-funbox) "no documentation" "TID" nil) (om-load-inputfun (quote input-funbox) "no documentation" "N" 12))) (om-make-point 323 117) nil nil nil nil 1))) (when (fboundp (quote set-active)) (set-active box nil)) box) (let ((box (om-load-boxcomment "comment" (om-make-point 810 40) (quote "R.W. Hall & P. Klingsberg: \"Asymmetric Rhythms and Tiling Canons\" (to appear in AMM)") "" (om-make-point 157 50) nil (om-make-color 8/17 13/85 46/255) (om-make-font "Geneva" 18 :family "Geneva" :style (quote (:plain)) :mode (quote nil))))) (when (fboundp (quote set-active)) (set-active box nil)) box) (let ((box (om-load-editor-box1 "VOICE" (quote voice) (quote ((om-load-inputfun (quote input-funbox) "objs" "SELF" nil) (om-load-inputfun (quote input-funbox) "a list representing a rhythm tree" "TREE" (list (quote ?) (list (list (quote |4//4|) (list 1 1 1 1))))) (om-load-inputfun (quote input-funbox) "a chord object , a list of chord objects, a list of midics, a list of lists of midics." "CHORDS" (list (let ((thechord (make-instance (quote chord) :lmidic (quote (6000)) :ldur (quote (1000)) :lvel (quote (100)) :loffset (quote (0)) :lchan (quote (1))))) (load-port-info thechord (quote (0))) (init-mus-color thechord (quote nil)) (set-extra-pairs thechord (quote nil)) (set-tonalite thechord nil) thechord))) (om-load-inputfun (quote input-funbox) "a number indicating the frequency of the quarter-note (default 60/mn)" "TEMPO" 60) (om-load-inputfun (quote input-funbox) "no documentation" "LEGATO" 100) (om-load-inputfun (quote input-funbox) "no documentation" "TIES" nil))) (om-make-point 11 409) (om-make-point 136 99) (let ((newobj (when (find-class (quote voice) nil) (make-instance (quote voice) :tree (quote (9/2 (((12 8) (1 2 7 2)) ((12 8) (1 2 7 2)) ((12 8) (1 2 7 2))))) :chords (load-obj-list-from-save (quote ((let ((thechord (make-instance (quote chord) :lmidic (quote (6000)) :ldur (quote (500)) :lvel (quote (100)) :loffset (quote (0)) :lchan (quote (1))))) (load-port-info thechord (quote (0))) (init-mus-color thechord (quote nil)) (set-extra-pairs thechord (quote nil)) (set-tonalite thechord nil) thechord) (let ((thechord (make-instance (quote chord) :lmidic (quote (6000)) :ldur (quote (1000)) :lvel (quote (100)) :loffset (quote (0)) :lchan (quote (1))))) (load-port-info thechord (quote (0))) (init-mus-color thechord (quote nil)) (set-extra-pairs thechord (quote nil)) (set-tonalite thechord nil) thechord) (let ((thechord (make-instance (quote chord) :lmidic (quote (6000)) :ldur (quote (3500)) :lvel (quote (100)) :loffset (quote (0)) :lchan (quote (1))))) (load-port-info thechord (quote (0))) (init-mus-color thechord (quote nil)) (set-extra-pairs thechord (quote nil)) (set-tonalite thechord nil) thechord) (let ((thechord (make-instance (quote chord) :lmidic (quote (6000)) :ldur (quote (1000)) :lvel (quote (100)) :loffset (quote (0)) :lchan (quote (1))))) (load-port-info thechord (quote (0))) (init-mus-color thechord (quote nil)) (set-extra-pairs thechord (quote nil)) (set-tonalite thechord nil) thechord) (let ((thechord (make-instance (quote chord) :lmidic (quote (6000)) :ldur (quote (500)) :lvel (quote (100)) :loffset (quote (0)) :lchan (quote (1))))) (load-port-info thechord (quote (0))) (init-mus-color thechord (quote nil)) (set-extra-pairs thechord (quote nil)) (set-tonalite thechord nil) thechord) (let ((thechord (make-instance (quote chord) :lmidic (quote (6000)) :ldur (quote (1000)) :lvel (quote (100)) :loffset (quote (0)) :lchan (quote (1))))) (load-port-info thechord (quote (0))) (init-mus-color thechord (quote nil)) (set-extra-pairs thechord (quote nil)) (set-tonalite thechord nil) thechord) (let ((thechord (make-instance (quote chord) :lmidic (quote (6000)) :ldur (quote (3500)) :lvel (quote (100)) :loffset (quote (0)) :lchan (quote (1))))) (load-port-info thechord (quote (0))) (init-mus-color thechord (quote nil)) (set-extra-pairs thechord (quote nil)) (set-tonalite thechord nil) thechord) (let ((thechord (make-instance (quote chord) :lmidic (quote (6000)) :ldur (quote (1000)) :lvel (quote (100)) :loffset (quote (0)) :lchan (quote (1))))) (load-port-info thechord (quote (0))) (init-mus-color thechord (quote nil)) (set-extra-pairs thechord (quote nil)) (set-tonalite thechord nil) thechord) (let ((thechord (make-instance (quote chord) :lmidic (quote (6000)) :ldur (quote (500)) :lvel (quote (100)) :loffset (quote (0)) :lchan (quote (1))))) (load-port-info thechord (quote (0))) (init-mus-color thechord (quote nil)) (set-extra-pairs thechord (quote nil)) (set-tonalite thechord nil) thechord) (let ((thechord (make-instance (quote chord) :lmidic (quote (6000)) :ldur (quote (1000)) :lvel (quote (100)) :loffset (quote (0)) :lchan (quote (1))))) (load-port-info thechord (quote (0))) (init-mus-color thechord (quote nil)) (set-extra-pairs thechord (quote nil)) (set-tonalite thechord nil) thechord) (let ((thechord (make-instance (quote chord) :lmidic (quote (6000)) :ldur (quote (3500)) :lvel (quote (100)) :loffset (quote (0)) :lchan (quote (1))))) (load-port-info thechord (quote (0))) (init-mus-color thechord (quote nil)) (set-extra-pairs thechord (quote nil)) (set-tonalite thechord nil) thechord) (let ((thechord (make-instance (quote chord) :lmidic (quote (6000)) :ldur (quote (1000)) :lvel (quote (100)) :loffset (quote (0)) :lchan (quote (1))))) (load-port-info thechord (quote (0))) (init-mus-color thechord (quote nil)) (set-extra-pairs thechord (quote nil)) (set-tonalite thechord nil) thechord)))) :tempo (quote ((1/4 60) nil)) :legato 100 :ties (quote (nil nil nil nil nil nil nil nil nil nil nil nil)))))) (load-port-info newobj (quote nil)) (init-mus-color newobj (quote nil)) (set-extra-pairs newobj (quote nil)) (set-patch-pairs newobj (quote nil)) (set-name newobj nil) (set-tonalite newobj nil) newobj) nil nil (pairlis (quote (player approx fontsize staff cmnpref deltapict outport inport zoom notechancolor? grillestep mode winsize winpos palette-mode obj-mode show-stems scale)) (list (quote :osc-scoreplayer) 2 24 (quote g) (let ((newobj (make-instance (quote edition-values)))) (setf (paper-size newobj) (om-make-point 600 800)) (setf (top-margin newobj) 2) (setf (left-margin newobj) 1) (setf (right-margin newobj) 1) (setf (bottom-margin newobj) 1) (setf (orientation newobj) nil) (setf (scale newobj) nil) (setf (system-space newobj) (quote (1))) (setf (system-color newobj) (quote nil)) (setf (line-space newobj) 1) (setf (title newobj) nil) (setf (show-title? newobj) nil) (setf (show-page? newobj) nil) (setf (sheet-id newobj) nil) (setf (page-mode newobj) nil) newobj) (om-make-point 0 0) 0 0 1 nil 1000 0 18350450 2621450 0 0 (quote t) nil)) t nil nil nil))) (when (fboundp (quote set-active)) (set-active box nil)) box) (let ((box (om-load-boxcall (quote genfun) "C2RHYTHM" (quote c2rhythm) (quote ((om-load-inputfun (quote input-funbox) "the cercle" "SELF" nil) (om-load-inputfun (quote input-funbox) "index" "INDEX" 0) (om-load-inputfun (quote input-funbox) "signature" "SIGNATURE" (list 12 8)) (om-load-inputfun (quote input-funbox) "times" "TIMES" 3))) (om-make-point 24 301) nil nil nil nil 1))) (when (fboundp (quote set-active)) (set-active box nil)) box) (let ((box (om-load-editor-box1 "N-CERCLE2" (quote n-cercle) (quote ((om-load-inputfun (quote input-funbox) "objs" "SELF" nil) (om-load-inputfun (quote input-funbox) "no documentation" "N" 12) (om-load-inputfun (quote input-funbox) "no documentation" "PUNTOS" (list 0 5 7)))) (om-make-point 271 194) (om-make-point 148 92) (if (find-class (quote n-cercle) nil) (make-instance (quote n-cercle) :n 12 :puntos (list (list 0 1 3 10) (list 4 5 7 2) (list 8 9 11 6)) :from-file t)) nil nil (pairlis (quote (show-stems winpos winsize mode grillestep notechancolor? cmnpref obj-mode palette-mode zoom inport outport deltapict)) (list (quote t) 2621450 18350450 0 1000 nil (let ((newobj (make-instance (quote edition-values)))) (setf (paper-size newobj) (om-make-point 600 800)) (setf (top-margin newobj) 2) (setf (left-margin newobj) 1) (setf (right-margin newobj) 1) (setf (bottom-margin newobj) 1) (setf (orientation newobj) nil) (setf (scale newobj) nil) (setf (system-space newobj) (quote (1))) (setf (system-color newobj) (quote nil)) (setf (line-space newobj) 1) (setf (title newobj) nil) (setf (show-title? newobj) nil) (setf (show-page? newobj) nil) (setf (sheet-id newobj) nil) (setf (page-mode newobj) nil) newobj) 0 0 1 0 0 (om-make-point 0 0))) t nil nil nil))) (when (fboundp (quote set-active)) (set-active box nil)) box) (let ((box (om-load-boxcall (quote bastype) "aux9" (quote t) (quote nil) (om-make-point 179 106) (om-make-point 59 30) (list 0 4 8) "(0 4 8)" nil))) (when (fboundp (quote set-active)) (set-active box nil)) box) (let ((box (om-load-editor-box1 "N-CERCLE" (quote n-cercle) (quote ((om-load-inputfun (quote input-funbox) "objs" "SELF" nil) (om-load-inputfun (quote input-funbox) "no documentation" "N" 12) (om-load-inputfun (quote input-funbox) "no documentation" "PUNTOS" (list 0 5 7)))) (om-make-point 9 105) (om-make-point 110 133) (if (find-class (quote n-cercle) nil) (make-instance (quote n-cercle) :n 12 :puntos (list (list 0 1 3 10)) :from-file t)) nil nil (pairlis (quote (show-stems winpos winsize mode grillestep notechancolor? cmnpref obj-mode palette-mode zoom inport outport deltapict)) (list (quote t) 2621450 18350450 0 1000 nil (let ((newobj (make-instance (quote edition-values)))) (setf (paper-size newobj) (om-make-point 600 800)) (setf (top-margin newobj) 2) (setf (left-margin newobj) 1) (setf (right-margin newobj) 1) (setf (bottom-margin newobj) 1) (setf (orientation newobj) nil) (setf (scale newobj) nil) (setf (system-space newobj) (quote (1))) (setf (system-color newobj) (quote nil)) (setf (line-space newobj) 1) (setf (title newobj) nil) (setf (show-title? newobj) nil) (setf (show-page? newobj) nil) (setf (sheet-id newobj) nil) (setf (page-mode newobj) nil) newobj) 0 0 1 0 0 (om-make-point 0 0))) t nil nil nil))) (when (fboundp (quote set-active)) (set-active box nil)) box) (let ((box (om-load-boxcall (quote bastype) "aux7" (quote t) (quote nil) (om-make-point 66 46) (om-make-point 77 30) (list 0 1 3 10) "(0 1 3 10)" nil))) (when (fboundp (quote set-active)) (set-active box nil)) box) (let ((box (om-load-boxcall (quote bastype) "aux8" (quote t) (quote nil) (om-make-point 16 47) (om-make-point 34 30) 12 "12" nil))) (when (fboundp (quote set-active)) (set-active box nil)) box) (let ((box (om-load-boxcall (quote bastype) "aux1" (quote t) (quote nil) (om-make-point 548 278) (om-make-point 27 30) 6 "6" nil))) (when (fboundp (quote set-active)) (set-active box nil)) box) (let ((box (om-load-editor-box1 "MULTI-SEQ1" (quote multi-seq) (quote ((om-load-inputfun (quote input-funbox) "objs" "SELF" nil) (om-load-inputfun (quote input-funbox) "no documentation" "CHORD-SEQS" (list (let ((newobj (when (find-class (quote chord-seq) nil) (make-instance (quote chord-seq) :lmidic (quote ((6000))) :lonset (quote (0 1000)) :ldur (quote ((1000))) :lvel (quote ((100))) :loffset (quote ((0))) :lchan (quote ((1))) :legato 0)))) (load-port-info newobj (quote ((0)))) (init-mus-color newobj (quote nil)) (set-extra-pairs newobj (quote nil)) (set-patch-pairs newobj (quote nil)) (set-name newobj nil) (set-tonalite newobj nil) newobj))))) (om-make-point 653 499) (om-make-point 560 192) (if (find-class (quote multi-seq) nil) (let ((newobj (make-instance (quote multi-seq) :chord-seqs (list (let ((newobj (when (find-class (quote chord-seq) nil) (make-instance (quote chord-seq) :lmidic (quote ((6100) (6100) (6100) (6100) (6100) (6100) (6100) (6100) (6100) (6100) (6100) (6100) (6100) (6100) (6100) (6100) (6100) (6100) (6100) (6100) (6100) (6100) (6100) (6100))) :lonset (quote (0 200 600 2000 2400 2600 3000 4400 4800 5000 5400 6800 7200 7400 7800 9200 9600 9800 10200 11600 12000 12200 12600 14000 15000)) :ldur (quote ((1000) (1000) (1000) (1000) (1000) (1000) (1000) (1000) (1000) (1000) (1000) (1000) (1000) (1000) (1000) (1000) (1000) (1000) (1000) (1000) (1000) (1000) (1000) (1000))) :lvel (quote ((100) (100) (100) (100) (100) (100) (100) (100) (100) (100) (100) (100) (100) (100) (100) (100) (100) (100) (100) (100) (100) (100) (100) (100))) :loffset (quote ((0) (0) (0) (0) (0) (0) (0) (0) (0) (0) (0) (0) (0) (0) (0) (0) (0) (0) (0) (0) (0) (0) (0) (0))) :lchan (quote ((1) (1) (1) (1) (1) (1) (1) (1) (1) (1) (1) (1) (1) (1) (1) (1) (1) (1) (1) (1) (1) (1) (1) (1))) :legato 0)))) (load-port-info newobj (quote ((0) (0) (0) (0) (0) (0) (0) (0) (0) (0) (0) (0) (0) (0) (0) (0) (0) (0) (0) (0) (0) (0) (0) (0)))) (init-mus-color newobj (quote nil)) (set-extra-pairs newobj (quote nil)) (set-patch-pairs newobj (quote nil)) (set-name newobj nil) (set-tonalite newobj nil) newobj) (let ((newobj (when (find-class (quote chord-seq) nil) (make-instance (quote chord-seq) :lmidic (quote ((6200) (6200) (6200) (6200) (6200) (6200) (6200) (6200) (6200) (6200) (6200) (6200) (6200) (6200) (6200) (6200) (6200) (6200) (6200) (6200) (6200) (6200) (6200) (6200))) :lonset (quote (800 1000 1400 2800 3200 3400 3800 5200 5600 5800 6200 7600 8000 8200 8600 10000 10400 10600 11000 12400 12800 13000 13400 14800 15800)) :ldur (quote ((1000) (1000) (1000) (1000) (1000) (1000) (1000) (1000) (1000) (1000) (1000) (1000) (1000) (1000) (1000) (1000) (1000) (1000) (1000) (1000) (1000) (1000) (1000) (1000))) :lvel (quote ((100) (100) (100) (100) (100) (100) (100) (100) (100) (100) (100) (100) (100) (100) (100) (100) (100) (100) (100) (100) (100) (100) (100) (100))) :loffset (quote ((0) (0) (0) (0) (0) (0) (0) (0) (0) (0) (0) (0) (0) (0) (0) (0) (0) (0) (0) (0) (0) (0) (0) (0))) :lchan (quote ((2) (2) (2) (2) (2) (2) (2) (2) (2) (2) (2) (2) (2) (2) (2) (2) (2) (2) (2) (2) (2) (2) (2) (2))) :legato 0)))) (load-port-info newobj (quote ((0) (0) (0) (0) (0) (0) (0) (0) (0) (0) (0) (0) (0) (0) (0) (0) (0) (0) (0) (0) (0) (0) (0) (0)))) (init-mus-color newobj (quote nil)) (set-extra-pairs newobj (quote nil)) (set-patch-pairs newobj (quote nil)) (set-name newobj nil) (set-tonalite newobj nil) newobj) (let ((newobj (when (find-class (quote chord-seq) nil) (make-instance (quote chord-seq) :lmidic (quote ((6300) (6300) (6300) (6300) (6300) (6300) (6300) (6300) (6300) (6300) (6300) (6300) (6300) (6300) (6300) (6300) (6300) (6300) (6300) (6300) (6300) (6300) (6300) (6300))) :lonset (quote (1600 1800 2200 3600 4000 4200 4600 6000 6400 6600 7000 8400 8800 9000 9400 10800 11200 11400 11800 13200 13600 13800 14200 15600 16600)) :ldur (quote ((1000) (1000) (1000) (1000) (1000) (1000) (1000) (1000) (1000) (1000) (1000) (1000) (1000) (1000) (1000) (1000) (1000) (1000) (1000) (1000) (1000) (1000) (1000) (1000))) :lvel (quote ((100) (100) (100) (100) (100) (100) (100) (100) (100) (100) (100) (100) (100) (100) (100) (100) (100) (100) (100) (100) (100) (100) (100) (100))) :loffset (quote ((0) (0) (0) (0) (0) (0) (0) (0) (0) (0) (0) (0) (0) (0) (0) (0) (0) (0) (0) (0) (0) (0) (0) (0))) :lchan (quote ((3) (3) (3) (3) (3) (3) (3) (3) (3) (3) (3) (3) (3) (3) (3) (3) (3) (3) (3) (3) (3) (3) (3) (3))) :legato 0)))) (load-port-info newobj (quote ((0) (0) (0) (0) (0) (0) (0) (0) (0) (0) (0) (0) (0) (0) (0) (0) (0) (0) (0) (0) (0) (0) (0) (0)))) (init-mus-color newobj (quote nil)) (set-extra-pairs newobj (quote nil)) (set-patch-pairs newobj (quote nil)) (set-name newobj nil) (set-tonalite newobj nil) newobj)) :from-file t))) (load-port-info newobj (quote (((0) (0) (0) (0) (0) (0) (0) (0) (0) (0) (0) (0) (0) (0) (0) (0) (0) (0) (0) (0) (0) (0) (0) (0)) ((0) (0) (0) (0) (0) (0) (0) (0) (0) (0) (0) (0) (0) (0) (0) (0) (0) (0) (0) (0) (0) (0) (0) (0)) ((0) (0) (0) (0) (0) (0) (0) (0) (0) (0) (0) (0) (0) (0) (0) (0) (0) (0) (0) (0) (0) (0) (0) (0))))) (init-mus-color newobj (quote nil)) (set-extra-pairs newobj (quote nil)) (set-patch-pairs newobj (quote ((nil (om-load-patch-abs1 "patch" (quote nil) (quote nil) 7.01 nil "" (om-make-point 200 200) (om-make-point 400 500)))))) (set-name newobj nil) (set-tonalite newobj nil) newobj)) nil nil (pairlis (quote (score-mode cursor-mode player show-stems approx fontsize staff cmnpref deltapict outport inport zoom notechancolor? grillestep mode winsize winpos palette-mode obj-mode scale)) (list 0 (quote :normal) (quote :osc-scoreplayer) (quote t) 2 46 (list (quote g) (quote g) (quote g)) (let ((newobj (make-instance (quote edition-values)))) (setf (paper-size newobj) (om-make-point 600 800)) (setf (top-margin newobj) 2) (setf (left-margin newobj) 1) (setf (right-margin newobj) 1) (setf (bottom-margin newobj) 1) (setf (orientation newobj) nil) (setf (scale newobj) nil) (setf (system-space newobj) (quote (1 1 3))) (setf (system-color newobj) (quote nil)) (setf (line-space newobj) 1) (setf (title newobj) nil) (setf (show-title? newobj) nil) (setf (show-page? newobj) nil) (setf (sheet-id newobj) nil) (setf (page-mode newobj) nil) newobj) (om-make-point 0 0) 0 1 129/100 nil 500 0 (om-make-point 1280 565) (om-make-point 0 25) 0 0 nil)) t nil nil nil))) (when (fboundp (quote set-active)) (set-active box nil)) box) (let ((box (om-load-boxcall (quote bastype) "aux" (quote t) (quote nil) (om-make-point 588 300) (om-make-point 41 30) 200 "200" nil))) (when (fboundp (quote set-active)) (set-active box nil)) box) (let ((box (om-load-boxcall (quote bastype) "aux4" (quote t) (quote nil) (om-make-point 491 249) (om-make-point 59 30) (list 4 4 4) "(4 4 4)" nil))) (when (fboundp (quote set-active)) (set-active box nil)) box) (let ((box (om-load-boxcall (quote bastype) "aux3" (quote t) (quote nil) (om-make-point 446 221) (om-make-point 70 30) (list 1 2 7 2) "(1 2 7 2)" nil))) (when (fboundp (quote set-active)) (set-active box nil)) box) (let ((box (om-load-boxcall (quote genfun) "CANONS" (quote canons) (quote ((om-load-inputfun (quote input-funbox) "no documentation" "R" nil) (om-load-inputfun (quote input-funbox) "no documentation" "S" nil) (om-load-inputfun (quote input-funbox) "no documentation" "TIMES" 3) (om-load-inputkeyword (quote input-keyword) "Choose from this list (sign mindiv beats poly?)" "Keyword input" (quote :beats) nil nil))) (om-make-point 450 337) (om-make-point 143 61) nil nil nil 1))) (when (fboundp (quote set-active)) (set-active box nil)) box) (let ((box (om-load-boxcomment "comment" (om-make-point 600 425) (quote "Complete list of 3-Asymmetric rhythmic patterns with period n=12$$R$(1 1 1 9) $(1 1 5 5)$(1 5 1 5)$(1 2 7 2)$(1 2 3 6)$(6 3 2 1)$(2 3 2 5)$(3 3 3 3)$$S$(4 4 4) $$") "" (om-make-point 13 531) nil (om-make-color 0 0 0) (om-make-font "Geneva" 18 :family "Geneva" :style (quote (:plain)) :mode (quote nil))))) (when (fboundp (quote set-active)) (set-active box nil)) box) (let ((box (om-load-boxcomment "comment" (om-make-point 749 55) (quote "Asymmetric rhythms and 'tiling canons'") "" (om-make-point 153 0) nil (om-make-color 10/51 52/255 199/255) (om-make-font "Geneva" 36 :family "Geneva" :style (quote (:plain)) :mode (quote nil))))) (when (fboundp (quote set-active)) (set-active box nil)) box))) (quote ((5 0 0 0 nil 0) (7 0 0 1 nil 0) (3 0 2 0 nil 0) (6 0 3 0 nil 0) (0 0 4 2 nil 0) (8 0 6 1 nil 0) (7 0 6 2 nil 0) (14 0 10 0 nil 0) (13 0 14 0 nil 0) (12 0 14 1 nil 0) (9 0 14 2 nil 0) (11 0 14 3 nil 0))) nil 7.01))
