; OM File Header - Saved 2023/01/27 12:02:54
; (7.01 :patc (om-make-point 10 60) (om-make-point 0 25) (om-make-point 1440 847) "" 183 0 "2023/01/25 12:25:36" "2023/01/27 12:02:54")
; End File Header
(in-package :om)(load-lib-for (quote nil))(setf *om-current-persistent* (om-load-patch1 "list stuff" (quote ((let ((box (om-load-editor-box1 "TEXTFILE" (quote textfile) (quote ((om-load-inputfun (quote input-funbox) "object" "self" nil) (om-load-inputfun (quote input-funbox) "input data or text" "exp-list" nil) (om-load-inputfunmenu1 (quote input-funmenu) "append or supersede" "ed-mode" "supersede" (list (list "append" "append") (list "supersede" "supersede"))) (om-load-inputfunmenu1 (quote input-funmenu) "eval interpretation mode" "eval-mode" "list" (list (list "text" "text") (list "data list" "data") (list "list" "list") (list "value" "value"))))) (om-make-point 432 675) (om-make-point 83 110) (load-buffer-textfile (quote ("(a b c d e f g)" "(b c d e f g a)" "(c d e f g a b)" "(d e f g a b c)" "(e f g a b c d)" "(f g a b c d e)" "(g a b c d e f)" "")) (quote textfile) "supersede" "list") nil nil (pairlis (quote (winsize winpos)) (list (om-make-point 335 275) (om-make-point 10 40))) t nil nil nil))) (when (fboundp (quote set-active)) (set-active box nil)) box) (let ((box (om-load-boxcall (quote genfun) "ARITHM-SER" (quote arithm-ser) (quote ((om-load-inputfun (quote input-funbox) "begin" "BEGIN" 0) (om-load-inputfun (quote input-funbox) "end " "END" 10) (om-load-inputfun (quote input-funbox) "step" "STEP" 1))) (om-make-point 531 486) nil nil nil nil 1))) (when (fboundp (quote set-active)) (set-active box nil)) box) (let ((box (om-load-boxcall (quote bastype) "list 4" (quote list) (quote nil) (om-make-point 609 381) (om-make-point 17 30) 1 "1" nil))) (when (fboundp (quote set-active)) (set-active box nil)) box) (let ((box (om-load-boxcall (quote genfun) "OM-" (quote om-) (quote ((om-load-inputfun (quote input-funbox) "number or list" "ARG1" 0) (om-load-inputfun (quote input-funbox) "number or list" "ARG2" 0))) (om-make-point 573 435) nil nil nil nil 1))) (when (fboundp (quote set-active)) (set-active box nil)) box) (let ((box (om-load-boxcall (quote lispfun) "LENGTH 2" (quote length) (quote ((om-load-inputfun (quote input-funbox) "SEQUENCE" "SEQUENCE" nil))) (om-make-point 502 296) nil nil nil nil 1))) (when (fboundp (quote set-active)) (set-active box nil)) box) (let ((box (om-load-boxwithed1 (quote box-with-win) "get_all_rotations" (quote omloop) (quote ((om-load-inputfun (quote input-funbox) "" "list" nil) (om-load-inputfun (quote input-funbox) "" "list indices" nil))) (om-make-point 411 595) nil nil nil (list (let ((box (om-load-boxcall (quote genfun) "collect" (quote listing) (quote ((om-load-inputfun (quote input-funbox) "anything" "DATA" nil))) (om-make-point 185 204) nil nil nil nil 3))) (when (fboundp (quote set-active)) (set-active box nil)) box) (let ((box (om-load-boxcall (quote genfun) "inlist" (quote listloop) (quote ((om-load-inputfun (quote input-funbox) "list to iterate" "LIST" nil))) (om-make-point 242 111) nil nil nil nil 1))) (when (fboundp (quote set-active)) (set-active box nil)) box) (let ((box (om-load-boxcall (quote genfun) "ROTATE" (quote rotate) (quote ((om-load-inputfun (quote input-funbox) "the list" "LIST" nil) (om-load-inputfun (quote input-funbox) "nth" "NTH" 1))) (om-make-point 163 129) nil nil nil nil 1))) (when (fboundp (quote set-active)) (set-active box nil)) box) (let ((box (om-load-boxin "list indices" 1 (om-make-point 260 50) "" "list indices" nil nil))) (when (fboundp (quote set-active)) (set-active box nil)) box) (let ((box (om-load-boxin "list" 0 (om-make-point 132 51) "" "list" nil nil))) (when (fboundp (quote set-active)) (set-active box nil)) box) (let ((box (om-load-seqbox "finally" (quote finaldo) (quote ((om-load-inputfun (quote input-funbox) "value to return" "VAL" nil))) (om-make-point 275 295) nil nil nil 0))) (when (fboundp (quote set-active)) (set-active box nil)) box) (let ((box (om-load-seqbox "eachTime" (quote loopdo) (quote ((om-load-inputfun (quote input-funbox) "operations to do" "OP" nil))) (om-make-point 130 300) nil nil nil 0))) (when (fboundp (quote set-active)) (set-active box nil)) box)) (quote ((2 0 0 0 nil 0) (3 0 1 0 nil 0) (4 0 2 0 nil 0) (1 0 2 1 nil 0) (0 1 5 0 nil 0) (0 0 6 0 nil 0))) 1 "get_all_rotations" nil))) (when (fboundp (quote set-active)) (set-active box nil)) box) (let ((box (om-load-boxcall (quote bastype) "list 3" (quote list) (quote nil) (om-make-point 414 98) (om-make-point 49 30) (list 0 1 2) "(0 1 2)" nil))) (when (fboundp (quote set-active)) (set-active box nil)) box) (let ((box (om-load-boxcall (quote bastype) "list 2" (quote list) (quote nil) (om-make-point 313 132) (om-make-point 29 29) 1 "1" nil))) (when (fboundp (quote set-active)) (set-active box nil)) box) (let ((box (om-load-boxcall (quote bastype) "list" (quote list) (quote nil) (om-make-point 204 68) (om-make-point 97 30) (list (quote a) (quote b) (quote c) (quote d) (quote e) (quote f) (quote g)) "(a b c d e f g)" nil))) (when (fboundp (quote set-active)) (set-active box nil)) box) (let ((box (om-load-boxcall (quote genfun) "POSN-MATCH" (quote posn-match) (quote ((om-load-inputfun (quote input-funbox) "a list" "LIST" (list 10 20 30 40 50 60 70 80 90)) (om-load-inputfun (quote input-funbox) "a list positions" "POSITIONS" (list (list 0 1) 4 (list 6))))) (om-make-point 336 155) nil nil nil nil 1))) (when (fboundp (quote set-active)) (set-active box nil)) box) (let ((box (om-load-boxcall (quote genfun) "ROTATE" (quote rotate) (quote ((om-load-inputfun (quote input-funbox) "the list" "LIST" nil) (om-load-inputfun (quote input-funbox) "nth" "NTH" 1))) (om-make-point 281 214) nil nil nil nil 1))) (when (fboundp (quote set-active)) (set-active box nil)) box) (let ((box (om-load-boxcall (quote genfun) "LAST-ELEM" (quote last-elem) (quote ((om-load-inputfun (quote input-funbox) "a list" "LIST" nil))) (om-make-point 222 412) nil nil nil nil 1))) (when (fboundp (quote set-active)) (set-active box nil)) box) (let ((box (om-load-boxcall (quote lispfun) "LENGTH" (quote length) (quote ((om-load-inputfun (quote input-funbox) "SEQUENCE" "SEQUENCE" nil))) (om-make-point 184 177) nil nil nil nil 1))) (when (fboundp (quote set-active)) (set-active box nil)) box) (let ((box (om-load-boxcall (quote lispfun) "LAST" (quote last) (quote ((om-load-inputfun (quote input-funbox) "LIST" "LIST" nil))) (om-make-point 138 162) nil nil nil nil 1))) (when (fboundp (quote set-active)) (set-active box nil)) box) (let ((box (om-load-boxcall (quote lispfun) "FIRST" (quote first) (quote ((om-load-inputfun (quote input-funbox) "LIST" "LIST" nil))) (om-make-point 104 162) nil nil nil nil 1))) (when (fboundp (quote set-active)) (set-active box nil)) box) (let ((box (om-load-boxcall (quote lispfun) "NTH" (quote nth) (quote ((om-load-inputfun (quote input-funbox) "ORIG-N" "ORIG-N" nil) (om-load-inputfun (quote input-funbox) "ORIG-LIST" "ORIG-LIST" nil))) (om-make-point 68 163) nil nil nil nil 1))) (when (fboundp (quote set-active)) (set-active box nil)) box))) (quote ((5 0 0 1 nil 0) (3 0 1 1 nil 0) (4 0 3 0 nil 0) (2 0 3 1 nil 0) (8 0 4 0 nil 0) (8 0 5 0 nil 0) (1 0 5 1 nil 0) (8 0 9 0 nil 0) (6 0 9 1 nil 0) (8 0 10 0 nil 0) (7 0 10 1 nil 0) (8 0 11 0 nil 0) (8 0 12 0 nil 0) (8 0 13 0 nil 0) (8 0 14 0 nil 0) (8 0 15 0 nil 0))) nil 7.01))
