; OM File Header - Saved 2023/04/10 19:03:45
; (7.01 :patc (om-make-point 10 60) (om-make-point 259 88) (om-make-point 1364 775) "" 183 0 nil nil)
; End File Header
(in-package :om)(load-lib-for (quote ("OMTristan")))(setf *om-current-persistent* (om-load-patch1 "004-grisey-harm-subharm" (quote ((let ((box (om-load-boxcall (quote bastype) "list 9" (quote list) (quote nil) (om-make-point 770 341) (om-make-point 48 30) (list 4000) "(4000)" nil))) (when (fboundp (quote set-active)) (set-active box nil)) box) (let ((box (om-load-boxcall (quote bastype) "list 8" (quote list) (quote nil) (om-make-point 303 138) (om-make-point 17 30) 2 "2" nil))) (when (fboundp (quote set-active)) (set-active box nil)) box) (let ((box (om-load-editor-box1 "CHORD-SEQ 3" (quote chord-seq) (quote ((om-load-inputfun (quote input-funbox) "object" "self" nil) (om-load-inputfun (quote input-funbox) "pitches (mc): list or list of lists" "lmidic" (list 6000)) (om-load-inputfun (quote input-funbox) "onsets (ms): list" "lonset" (list 0 1000)) (om-load-inputfun (quote input-funbox) "durations (ms): list or list of lists" "ldur" (list 1000)) (om-load-inputfun (quote input-funbox) "velocities (0-127): list or list of lists" "lvel" (list 100)) (om-load-inputfun (quote input-funbox) "offsets (ms): list or list of lists" "loffset" (list 0)) (om-load-inputfun (quote input-funbox) "MIDI channels (1-16): list or list of lists" "lchan" (list 1)) (om-load-inputfun (quote input-funbox) "relative chords duration (0-100)" "legato" 0))) (om-make-point 899 305) (om-make-point 130 70) (let ((newobj (when (find-class (quote chord-seq) nil) (make-instance (quote chord-seq) :lmidic (quote ((6400) (6300) (8102) (8500) (8786))) :lonset (quote (0 1000 2000 3000 4000 5000)) :ldur (quote ((1000) (1000) (1000) (1000) (1000))) :lvel (quote ((100) (100) (100) (100) (100))) :loffset (quote ((0) (0) (0) (0) (0))) :lchan (quote ((1) (1) (1) (1) (1))) :legato 0)))) (load-port-info newobj (quote ((0) (0) (0) (0) (0)))) (init-mus-color newobj (quote nil)) (set-extra-pairs newobj (quote nil)) (set-patch-pairs newobj (quote ((nil (om-load-patch-abs1 "patch" (quote nil) (quote nil) 7.01 nil "" (om-make-point 200 200) (om-make-point 400 500)))))) (set-name newobj nil) (set-tonalite newobj nil) newobj) nil nil (pairlis (quote (scale show-stems cursor-mode obj-mode score-mode winpos winsize mode grillestep notechancolor? zoom player inport outport deltapict cmnpref staff fontsize approx)) (list nil (quote t) (quote :normal) 1 0 (om-make-point 1478 233) (om-make-point 675 301) 0 1000 nil 1 (quote :osc-scoreplayer) nil nil (om-make-point 0 0) (let ((newobj (make-instance (quote edition-values)))) (setf (paper-size newobj) (om-make-point 600 800)) (setf (top-margin newobj) 2) (setf (left-margin newobj) 1) (setf (right-margin newobj) 1) (setf (bottom-margin newobj) 1) (setf (orientation newobj) nil) (setf (scale newobj) nil) (setf (system-space newobj) (quote (1))) (setf (system-color newobj) (quote nil)) (setf (line-space newobj) 1) (setf (title newobj) nil) (setf (show-title? newobj) nil) (setf (show-page? newobj) nil) (setf (sheet-id newobj) nil) (setf (page-mode newobj) nil) newobj) (quote g) 24 2)) nil nil nil nil))) (when (fboundp (quote set-active)) (set-active box nil)) box) (let ((box (om-load-boxcall (quote genfun) "F->MC" (quote f->mc) (quote ((om-load-inputfun (quote input-funbox) "frequency (Hz)" "FREQ" 440))) (om-make-point 775 246) nil nil nil nil 1))) (when (fboundp (quote set-active)) (set-active box nil)) box) (let ((box (om-load-boxcall (quote genfun) "OM*" (quote om*) (quote ((om-load-inputfun (quote input-funbox) "number or list" "SELF" 0) (om-load-inputfun (quote input-funbox) "number or list" "NUM" 0))) (om-make-point 856 179) nil nil nil nil 1))) (when (fboundp (quote set-active)) (set-active box nil)) box) (let ((box (om-load-boxcall (quote genfun) "MC->F" (quote mc->f) (quote ((om-load-inputfun (quote input-funbox) "pitch or pitch list (midicents)" "MIDICS?" 6000))) (om-make-point 767 184) nil nil nil nil 1))) (when (fboundp (quote set-active)) (set-active box nil)) box) (let ((box (om-load-editor-box1 "TEXTFILE 2" (quote textfile) (quote ((om-load-inputfun (quote input-funbox) "object" "self" nil) (om-load-inputfun (quote input-funbox) "input data or text" "exp-list" nil) (om-load-inputfunmenu1 (quote input-funmenu) "append or supersede" "ed-mode" "supersede" (list (list "append" "append") (list "supersede" "supersede"))) (om-load-inputfunmenu1 (quote input-funmenu) "eval interpretation mode" "eval-mode" "list" (list (list "text" "text") (list "data list" "data") (list "list" "list") (list "value" "value"))))) (om-make-point 880 120) (om-make-point 70 50) (load-buffer-textfile (quote ("2 2 6 8 10" "" "")) (quote textfile) "supersede" "list") "x" nil (pairlis (quote (winsize winpos)) (list (om-make-point 335 275) (om-make-point 10 40))) nil nil nil nil))) (when (fboundp (quote set-active)) (set-active box nil)) box) (let ((box (om-load-boxcall (quote bastype) "list 7" (quote list) (quote nil) (om-make-point 687 281) (om-make-point 24 24) 1 "1" nil))) (when (fboundp (quote set-active)) (set-active box nil)) box) (let ((box (om-load-boxcall (quote bastype) "list 6" (quote list) (quote nil) (om-make-point 695 341) (om-make-point 59 30) (list 0 4000) "(0 4000)" nil))) (when (fboundp (quote set-active)) (set-active box nil)) box) (let ((box (om-load-editor-box1 "CHORD-SEQ 2" (quote chord-seq) (quote ((om-load-inputfun (quote input-funbox) "object" "self" nil) (om-load-inputfun (quote input-funbox) "pitches (mc): list or list of lists" "lmidic" (list 6000)) (om-load-inputfun (quote input-funbox) "onsets (ms): list" "lonset" (list 0 1000)) (om-load-inputfun (quote input-funbox) "durations (ms): list or list of lists" "ldur" (list 1000)) (om-load-inputfun (quote input-funbox) "velocities (0-127): list or list of lists" "lvel" (list 100)) (om-load-inputfun (quote input-funbox) "offsets (ms): list or list of lists" "loffset" (list 0)) (om-load-inputfun (quote input-funbox) "MIDI channels (1-16): list or list of lists" "lchan" (list 1)) (om-load-inputfun (quote input-funbox) "relative chords duration (0-100)" "legato" 0))) (om-make-point 590 401) (om-make-point 261 130) (let ((newobj (when (find-class (quote chord-seq) nil) (make-instance (quote chord-seq) :lmidic (quote ((5200 6400 7102 7986 8302 8568 8800 9004 9352 9640 9888 10104) (6400 5200 4498 3614 3298 3032 2800 2596 2248 1960 1712 1496) (5100 6300 7002 7886 8468 8904 9252 9328 9540 9788) (6300 5100 4398 3514 2932 2496 2148 2072 1860 1612) (5000 6200 6902 7786 8368 8804 9152 9228 9440 9688) (8102 6902 6200 5316 4734 4298 3950 3874 3662 3414) (4900 6100 6802 7686 8268 8704 8970 9052 9340 9588) (8500 7300 6598 5714 5132 4696 4430 4348 4060 3812) (4800 6000 6702 7586 8168 8604 8870 8952 9240 9488) (8786 7586 6884 6000 5418 4982 4716 4634 4346 4098))) :lonset (quote (0 4000 8000 12000 16000 20000 24000 28000 32000 36000 40000)) :ldur (quote ((4000 4000 4000 4000 4000 4000 4000 4000 4000 4000 4000 4000) (4000 4000 4000 4000 4000 4000 4000 4000 4000 4000 4000 4000) (4000 4000 4000 4000 4000 4000 4000 4000 4000 4000) (4000 4000 4000 4000 4000 4000 4000 4000 4000 4000) (4000 4000 4000 4000 4000 4000 4000 4000 4000 4000) (4000 4000 4000 4000 4000 4000 4000 4000 4000 4000) (4000 4000 4000 4000 4000 4000 4000 4000 4000 4000) (4000 4000 4000 4000 4000 4000 4000 4000 4000 4000) (4000 4000 4000 4000 4000 4000 4000 4000 4000 4000) (4000 4000 4000 4000 4000 4000 4000 4000 4000 4000))) :lvel (quote ((100 100 100 100 100 100 100 100 100 100 100 100) (100 100 100 100 100 100 100 100 100 100 100 100) (100 100 100 100 100 100 100 100 100 100) (100 100 100 100 100 100 100 100 100 100) (100 100 100 100 100 100 100 100 100 100) (100 100 100 100 100 100 100 100 100 100) (100 100 100 100 100 100 100 100 100 100) (100 100 100 100 100 100 100 100 100 100) (100 100 100 100 100 100 100 100 100 100) (100 100 100 100 100 100 100 100 100 100))) :loffset (quote ((0 0 0 0 0 0 0 0 0 0 0 0) (0 0 0 0 0 0 0 0 0 0 0 0) (0 0 0 0 0 0 0 0 0 0) (0 0 0 0 0 0 0 0 0 0) (0 0 0 0 0 0 0 0 0 0) (0 0 0 0 0 0 0 0 0 0) (0 0 0 0 0 0 0 0 0 0) (0 0 0 0 0 0 0 0 0 0) (0 0 0 0 0 0 0 0 0 0) (0 0 0 0 0 0 0 0 0 0))) :lchan (quote ((1 1 1 1 1 1 1 1 1 1 1 1) (1 1 1 1 1 1 1 1 1 1 1 1) (1 1 1 1 1 1 1 1 1 1) (1 1 1 1 1 1 1 1 1 1) (1 1 1 1 1 1 1 1 1 1) (1 1 1 1 1 1 1 1 1 1) (1 1 1 1 1 1 1 1 1 1) (1 1 1 1 1 1 1 1 1 1) (1 1 1 1 1 1 1 1 1 1) (1 1 1 1 1 1 1 1 1 1))) :legato 0)))) (load-port-info newobj (quote ((0 0 0 0 0 0 0 0 0 0 0 0) (0 0 0 0 0 0 0 0 0 0 0 0) (0 0 0 0 0 0 0 0 0 0) (0 0 0 0 0 0 0 0 0 0) (0 0 0 0 0 0 0 0 0 0) (0 0 0 0 0 0 0 0 0 0) (0 0 0 0 0 0 0 0 0 0) (0 0 0 0 0 0 0 0 0 0) (0 0 0 0 0 0 0 0 0 0) (0 0 0 0 0 0 0 0 0 0)))) (init-mus-color newobj (quote nil)) (set-extra-pairs newobj (quote nil)) (set-patch-pairs newobj (quote ((nil (om-load-patch-abs1 "patch" (quote nil) (quote nil) 7.01 nil "" (om-make-point 200 200) (om-make-point 400 500)))))) (set-name newobj nil) (set-tonalite newobj nil) newobj) nil nil (pairlis (quote (scale show-stems cursor-mode obj-mode score-mode winpos winsize mode grillestep notechancolor? zoom player inport outport deltapict cmnpref staff fontsize approx)) (list nil (quote t) (quote :normal) 1 0 (om-make-point 451 178) (om-make-point 1019 540) 0 1000 nil 1 (quote :osc-scoreplayer) nil nil (om-make-point 0 0) (let ((newobj (make-instance (quote edition-values)))) (setf (paper-size newobj) (om-make-point 600 800)) (setf (top-margin newobj) 2) (setf (left-margin newobj) 1) (setf (right-margin newobj) 1) (setf (bottom-margin newobj) 1) (setf (orientation newobj) nil) (setf (scale newobj) nil) (setf (system-space newobj) (quote (1))) (setf (system-color newobj) (quote nil)) (setf (line-space newobj) 1) (setf (title newobj) nil) (setf (show-title? newobj) nil) (setf (show-page? newobj) nil) (setf (sheet-id newobj) nil) (setf (page-mode newobj) nil) newobj) (quote ggff) 24 8)) nil nil nil nil))) (when (fboundp (quote set-active)) (set-active box nil)) box) (let ((box (om-load-boxcall (quote genfun) "FLAT" (quote flat) (quote ((om-load-inputfun (quote input-funbox) "a list" "LST" nil) (om-load-inputfun (quote input-funbox) "level of parenthesis" "LEVEL" nil))) (om-make-point 618 314) (om-make-point 65 59) nil nil nil 1))) (when (fboundp (quote set-active)) (set-active box nil)) box) (let ((box (om-load-boxwithed1 (quote box-with-win) "grisey-modulations" (quote omloop) (quote ((om-load-inputfun (quote input-funbox) "" "fundamental" nil) (om-load-inputfun (quote input-funbox) "" "partials" nil) (om-load-inputfun (quote input-funbox) "" "octave-displacement" nil))) (om-make-point 597 228) nil nil nil (list (let ((box (om-load-boxcall (quote genfun) "inlist 3" (quote listloop) (quote ((om-load-inputfun (quote input-funbox) "list to iterate" "LIST" nil))) (om-make-point 368 148) nil nil nil nil 1))) (when (fboundp (quote set-active)) (set-active box nil)) box) (let ((box (om-load-boxin "octave-displacement" 2 (om-make-point 389 56) "" "octave-displacement" nil nil))) (when (fboundp (quote set-active)) (set-active box nil)) box) (let ((box (om-load-boxcall (quote genfun) "collect" (quote listing) (quote ((om-load-inputfun (quote input-funbox) "anything" "DATA" nil))) (om-make-point 266 323) nil nil nil nil 3))) (when (fboundp (quote set-active)) (set-active box nil)) box) (let ((box (om-load-boxcall (quote genfun) "inlist 2" (quote listloop) (quote ((om-load-inputfun (quote input-funbox) "list to iterate" "LIST" nil))) (om-make-point 220 116) nil nil nil nil 1))) (when (fboundp (quote set-active)) (set-active box nil)) box) (let ((box (om-load-boxcall (quote genfun) "inlist" (quote listloop) (quote ((om-load-inputfun (quote input-funbox) "list to iterate" "LIST" nil))) (om-make-point 55 134) nil nil nil nil 1))) (when (fboundp (quote set-active)) (set-active box nil)) box) (let ((box (om-load-boxcall (quote abstraction) "harm+subharm" (om-load-patch-abs1 "harm+subharm" (quote ((let ((box (om-load-boxin "octave-displacement" 2 (om-make-point 325 34) "" "octave-displacement" nil nil))) (when (fboundp (quote set-active)) (set-active box nil)) box) (let ((box (om-load-boxcall (quote lispfun) "LIST 5" (quote list) (quote ((om-load-inputfun (quote input-funbox) "add-input" "add-input" nil) (om-load-inputfun (quote input-funbox) "add-input" "add-input" nil))) (om-make-point 241 293) nil nil nil nil 1))) (when (fboundp (quote set-active)) (set-active box nil)) box) (let ((box (om-load-boxcall (quote bastype) "list 4" (quote list) (quote nil) (om-make-point 517 158) (om-make-point 27 30) 0 "0" nil))) (when (fboundp (quote set-active)) (set-active box nil)) box) (let ((box (om-load-boxcall (quote genfun) "N-SP-GEN 2" (quote n-sp-gen) (quote ((om-load-inputfun (quote input-funbox) "Fundamental" "FUND" 3600) (om-load-inputfun (quote input-funbox) "Ranks" "NTH" (list 1 2 3 4 5)) (om-load-inputfun (quote input-funbox) "Distor" "DIST%" 0))) (om-make-point 380 197) (om-make-point 138 55) nil nil nil 1))) (when (fboundp (quote set-active)) (set-active box nil)) box) (let ((box (om-load-boxcall (quote bastype) "list 3" (quote list) (quote nil) (om-make-point 476 67) (om-make-point 22 30) -1 "-1" nil))) (when (fboundp (quote set-active)) (set-active box nil)) box) (let ((box (om-load-boxcall (quote genfun) "OM*" (quote om*) (quote ((om-load-inputfun (quote input-funbox) "number or list" "SELF" 0) (om-load-inputfun (quote input-funbox) "number or list" "NUM" 0))) (om-make-point 460 120) nil nil nil nil 1))) (when (fboundp (quote set-active)) (set-active box nil)) box) (let ((box (om-load-boxcall (quote bastype) "list" (quote list) (quote nil) (om-make-point 229 131) (om-make-point 27 30) 0 "0" nil))) (when (fboundp (quote set-active)) (set-active box nil)) box) (let ((box (om-load-boxcall (quote genfun) "N-SP-GEN" (quote n-sp-gen) (quote ((om-load-inputfun (quote input-funbox) "Fundamental" "FUND" 3600) (om-load-inputfun (quote input-funbox) "Ranks" "NTH" (list 1 2 3 4 5)) (om-load-inputfun (quote input-funbox) "Distor" "DIST%" 0))) (om-make-point 92 170) (om-make-point 138 55) nil nil nil 1))) (when (fboundp (quote set-active)) (set-active box nil)) box) (let ((box (om-load-boxin "partials" 1 (om-make-point 189 36) "" "partials" nil nil))) (when (fboundp (quote set-active)) (set-active box nil)) box) (let ((box (om-load-boxout "output" 0 (om-make-point 280 373) (quote ((om-load-inputfun (quote input-funbox) "" "out" nil))) nil nil))) (when (fboundp (quote set-active)) (set-active box nil)) box) (let ((box (om-load-boxin "fundamental" 0 (om-make-point 31 35) "" "fundamental" nil nil))) (when (fboundp (quote set-active)) (set-active box nil)) box))) (quote ((7 0 1 0 nil 0) (3 0 1 1 nil 0) (0 0 3 0 nil 0) (5 0 3 1 nil 0) (2 0 3 2 nil 0) (8 0 5 0 nil 0) (4 0 5 1 nil 0) (10 0 7 0 nil 0) (8 0 7 1 nil 0) (6 0 7 2 nil 0) (1 0 9 0 nil 0))) 7.01 nil "" (om-make-point 200 200) (om-make-point 849 428)) (quote ((om-load-inputfun (quote input-funbox) "" "fundamental" nil) (om-load-inputfun (quote input-funbox) "" "partials" nil) (om-load-inputfun (quote input-funbox) "" "input" nil))) (om-make-point 88 223) (om-make-point 166 67) (list (list (list 5200 6400 7368 7986 8302 8568 8800 9004 9352 9640 9888 10104) (list 7600 6400 5432 4814 4498 4232 4000 3796 3448 3160 2912 2696))) nil "harm+subharm"))) (when (fboundp (quote set-active)) (set-active box nil)) box) (let ((box (om-load-boxin "partials" 1 (om-make-point 187 48) "" "partials" nil nil))) (when (fboundp (quote set-active)) (set-active box nil)) box) (let ((box (om-load-boxin "fundamental" 0 (om-make-point 5 45) "" "fundamental" nil nil))) (when (fboundp (quote set-active)) (set-active box nil)) box) (let ((box (om-load-seqbox "finally" (quote finaldo) (quote ((om-load-inputfun (quote input-funbox) "value to return" "VAL" nil))) (om-make-point 312 391) nil nil nil 0))) (when (fboundp (quote set-active)) (set-active box nil)) box) (let ((box (om-load-seqbox "eachTime" (quote loopdo) (quote ((om-load-inputfun (quote input-funbox) "operations to do" "OP" nil))) (om-make-point 212 391) nil nil nil 0))) (when (fboundp (quote set-active)) (set-active box nil)) box)) (quote ((1 0 0 0 nil 0) (5 0 2 0 nil 0) (6 0 3 0 nil 0) (7 0 4 0 nil 0) (4 0 5 0 nil 0) (3 0 5 1 nil 0) (0 0 5 2 nil 0) (2 1 8 0 nil 0) (2 0 9 0 nil 0))) 1 "grisey-modulations" nil))) (when (fboundp (quote set-active)) (set-active box nil)) box) (let ((box (om-load-boxcall (quote bastype) "list 5" (quote list) (quote nil) (om-make-point 689 87) (om-make-point 36 30) -100 "-100" nil))) (when (fboundp (quote set-active)) (set-active box nil)) box) (let ((box (om-load-boxcall (quote bastype) "list 4" (quote list) (quote nil) (om-make-point 594 87) (om-make-point 38 30) 4800 "4800" nil))) (when (fboundp (quote set-active)) (set-active box nil)) box) (let ((box (om-load-boxcall (quote bastype) "list 3" (quote list) (quote nil) (om-make-point 540 86) (om-make-point 38 30) 5200 "5200" nil))) (when (fboundp (quote set-active)) (set-active box nil)) box) (let ((box (om-load-boxcall (quote genfun) "ARITHM-SER" (quote arithm-ser) (quote ((om-load-inputfun (quote input-funbox) "begin" "BEGIN" 0) (om-load-inputfun (quote input-funbox) "end " "END" 10) (om-load-inputfun (quote input-funbox) "step" "STEP" 1))) (om-make-point 518 122) (om-make-point 203 59) nil nil nil 1))) (when (fboundp (quote set-active)) (set-active box nil)) box) (let ((box (om-load-boxcall (quote lispfun) "PRINT" (quote print) (quote ((om-load-inputfun (quote input-funbox) "SOMETHING" "SOMETHING" nil))) (om-make-point 73 168) nil nil nil nil 1))) (when (fboundp (quote set-active)) (set-active box nil)) box) (let ((box (om-load-boxcall (quote bastype) "list 2" (quote list) (quote nil) (om-make-point 245 245) (om-make-point 59 30) (list 0 4000) "(0 4000)" nil))) (when (fboundp (quote set-active)) (set-active box nil)) box) (let ((box (om-load-editor-box1 "CHORD-SEQ" (quote chord-seq) (quote ((om-load-inputfun (quote input-funbox) "object" "self" nil) (om-load-inputfun (quote input-funbox) "pitches (mc): list or list of lists" "lmidic" (list 6000)) (om-load-inputfun (quote input-funbox) "onsets (ms): list" "lonset" (list 0 1000)) (om-load-inputfun (quote input-funbox) "durations (ms): list or list of lists" "ldur" (list 1000)) (om-load-inputfun (quote input-funbox) "velocities (0-127): list or list of lists" "lvel" (list 100)) (om-load-inputfun (quote input-funbox) "offsets (ms): list or list of lists" "loffset" (list 0)) (om-load-inputfun (quote input-funbox) "MIDI channels (1-16): list or list of lists" "lchan" (list 1)) (om-load-inputfun (quote input-funbox) "relative chords duration (0-100)" "legato" 0))) (om-make-point 123 297) (om-make-point 261 130) (let ((newobj (when (find-class (quote chord-seq) nil) (make-instance (quote chord-seq) :lmidic (quote ((5200 6400 7102 7986 8302 8568 8800 9004 9352 9640 9888 10104) (6400 5200 4498 3614 3298 3032 2800 2596 2248 1960 1712 1496))) :lonset (quote (0 4000 5000)) :ldur (quote ((1000 1000 1000 1000 1000 1000 1000 1000 1000 1000 1000 1000) (1000 1000 1000 1000 1000 1000 1000 1000 1000 1000 1000 1000))) :lvel (quote ((100 100 100 100 100 100 100 100 100 100 100 100) (100 100 100 100 100 100 100 100 100 100 100 100))) :loffset (quote ((0 0 0 0 0 0 0 0 0 0 0 0) (0 0 0 0 0 0 0 0 0 0 0 0))) :lchan (quote ((1 1 1 1 1 1 1 1 1 1 1 1) (1 1 1 1 1 1 1 1 1 1 1 1))) :legato 0)))) (load-port-info newobj (quote ((0 0 0 0 0 0 0 0 0 0 0 0) (0 0 0 0 0 0 0 0 0 0 0 0)))) (init-mus-color newobj (quote nil)) (set-extra-pairs newobj (quote nil)) (set-patch-pairs newobj (quote ((nil (om-load-patch-abs1 "patch" (quote nil) (quote nil) 7.01 nil "" (om-make-point 200 200) (om-make-point 400 500)))))) (set-name newobj nil) (set-tonalite newobj nil) newobj) nil nil (pairlis (quote (scale show-stems cursor-mode obj-mode score-mode winpos winsize mode grillestep notechancolor? zoom player inport outport deltapict cmnpref staff fontsize approx)) (list nil (quote t) (quote :normal) 1 0 (om-make-point 302 184) (om-make-point 1019 540) 0 1000 nil 1 (quote :osc-scoreplayer) nil nil (om-make-point 0 0) (let ((newobj (make-instance (quote edition-values)))) (setf (paper-size newobj) (om-make-point 600 800)) (setf (top-margin newobj) 2) (setf (left-margin newobj) 1) (setf (right-margin newobj) 1) (setf (bottom-margin newobj) 1) (setf (orientation newobj) nil) (setf (scale newobj) nil) (setf (system-space newobj) (quote (1))) (setf (system-color newobj) (quote nil)) (setf (line-space newobj) 1) (setf (title newobj) nil) (setf (show-title? newobj) nil) (setf (show-page? newobj) nil) (setf (sheet-id newobj) nil) (setf (page-mode newobj) nil) newobj) (quote ggff) 24 8)) nil nil nil nil))) (when (fboundp (quote set-active)) (set-active box nil)) box) (let ((box (om-load-boxcall (quote bastype) "list" (quote list) (quote nil) (om-make-point 242 61) (om-make-point 17 30) 0 "0" nil))) (when (fboundp (quote set-active)) (set-active box nil)) box) (let ((box (om-load-boxcall (quote lispfun) "NTH" (quote nth) (quote ((om-load-inputfun (quote input-funbox) "ORIG-N" "ORIG-N" nil) (om-load-inputfun (quote input-funbox) "ORIG-LIST" "ORIG-LIST" nil))) (om-make-point 267 110) nil nil nil nil 1))) (when (fboundp (quote set-active)) (set-active box nil)) box) (let ((box (om-load-boxcall (quote abstraction) "harm+subharm" (om-load-patch-abs1 "harm+subharm" (quote ((let ((box (om-load-boxcall (quote genfun) "OM* 2" (quote om*) (quote ((om-load-inputfun (quote input-funbox) "number or list" "SELF" 0) (om-load-inputfun (quote input-funbox) "number or list" "NUM" 0))) (om-make-point 363 147) nil nil nil nil 1))) (when (fboundp (quote set-active)) (set-active box nil)) box) (let ((box (om-load-boxcall (quote genfun) "MC->F" (quote mc->f) (quote ((om-load-inputfun (quote input-funbox) "pitch or pitch list (midicents)" "MIDICS?" 6000))) (om-make-point 296 122) nil nil nil nil 1))) (when (fboundp (quote set-active)) (set-active box nil)) box) (let ((box (om-load-boxcall (quote genfun) "F->MC" (quote f->mc) (quote ((om-load-inputfun (quote input-funbox) "frequency (Hz)" "FREQ" 440))) (om-make-point 299 198) nil nil nil nil 1))) (when (fboundp (quote set-active)) (set-active box nil)) box) (let ((box (om-load-boxin "subharmonic-fund" 2 (om-make-point 349 44) "" "subharmonic-fund" nil nil))) (when (fboundp (quote set-active)) (set-active box nil)) box) (let ((box (om-load-boxcall (quote lispfun) "LIST 5" (quote list) (quote ((om-load-inputfun (quote input-funbox) "add-input" "add-input" nil) (om-load-inputfun (quote input-funbox) "add-input" "add-input" nil))) (om-make-point 241 293) nil nil nil nil 1))) (when (fboundp (quote set-active)) (set-active box nil)) box) (let ((box (om-load-boxcall (quote bastype) "list 4" (quote list) (quote nil) (om-make-point 517 158) (om-make-point 27 30) 0 "0" nil))) (when (fboundp (quote set-active)) (set-active box nil)) box) (let ((box (om-load-boxcall (quote genfun) "N-SP-GEN 2" (quote n-sp-gen) (quote ((om-load-inputfun (quote input-funbox) "Fundamental" "FUND" 3600) (om-load-inputfun (quote input-funbox) "Ranks" "NTH" (list 1 2 3 4 5)) (om-load-inputfun (quote input-funbox) "Distor" "DIST%" 0))) (om-make-point 380 197) (om-make-point 138 55) nil nil nil 1))) (when (fboundp (quote set-active)) (set-active box nil)) box) (let ((box (om-load-boxcall (quote bastype) "list 3" (quote list) (quote nil) (om-make-point 476 67) (om-make-point 22 30) -1 "-1" nil))) (when (fboundp (quote set-active)) (set-active box nil)) box) (let ((box (om-load-boxcall (quote genfun) "OM*" (quote om*) (quote ((om-load-inputfun (quote input-funbox) "number or list" "SELF" 0) (om-load-inputfun (quote input-funbox) "number or list" "NUM" 0))) (om-make-point 460 120) nil nil nil nil 1))) (when (fboundp (quote set-active)) (set-active box nil)) box) (let ((box (om-load-boxcall (quote bastype) "list" (quote list) (quote nil) (om-make-point 229 131) (om-make-point 27 30) 0 "0" nil))) (when (fboundp (quote set-active)) (set-active box nil)) box) (let ((box (om-load-boxcall (quote genfun) "N-SP-GEN" (quote n-sp-gen) (quote ((om-load-inputfun (quote input-funbox) "Fundamental" "FUND" 3600) (om-load-inputfun (quote input-funbox) "Ranks" "NTH" (list 1 2 3 4 5)) (om-load-inputfun (quote input-funbox) "Distor" "DIST%" 0))) (om-make-point 92 170) (om-make-point 138 55) nil nil nil 1))) (when (fboundp (quote set-active)) (set-active box nil)) box) (let ((box (om-load-boxin "partials" 1 (om-make-point 189 36) "" "partials" nil nil))) (when (fboundp (quote set-active)) (set-active box nil)) box) (let ((box (om-load-boxout "output" 0 (om-make-point 280 373) (quote ((om-load-inputfun (quote input-funbox) "" "out" nil))) nil nil))) (when (fboundp (quote set-active)) (set-active box nil)) box) (let ((box (om-load-boxin "fundamental" 0 (om-make-point 31 35) "" "fundamental" nil nil))) (when (fboundp (quote set-active)) (set-active box nil)) box))) (quote ((1 0 0 0 nil 0) (3 0 0 1 nil 0) (13 0 1 0 nil 0) (0 0 2 0 nil 0) (10 0 4 0 nil 0) (6 0 4 1 nil 0) (2 0 6 0 nil 0) (8 0 6 1 nil 0) (5 0 6 2 nil 0) (11 0 8 0 nil 0) (7 0 8 1 nil 0) (13 0 10 0 nil 0) (11 0 10 1 nil 0) (9 0 10 2 nil 0) (4 0 12 0 nil 0))) 7.01 nil "" (om-make-point 2446 274) (om-make-point 754 489)) (quote ((om-load-inputfun (quote input-funbox) "" "fundamental" nil) (om-load-inputfun (quote input-funbox) "" "partials" nil) (om-load-inputfun (quote input-funbox) "" "input" nil))) (om-make-point 144 175) (om-make-point 166 67) (list (list (list 5200 6400 7102 7986 8302 8568 8800 9004 9352 9640 9888 10104) (list 6400 5200 4498 3614 3298 3032 2800 2596 2248 1960 1712 1496))) nil "harm+subharm"))) (when (fboundp (quote set-active)) (set-active box nil)) box) (let ((box (om-load-editor-box1 "CHORD" (quote chord) (quote ((om-load-inputfun (quote input-funbox) "object" "self" nil) (om-load-inputfun (quote input-funbox) "pitches (list of midicents)" "lmidic" (list 6000)) (om-load-inputfun (quote input-funbox) "velocities (list of values 0-127)" "lvel" (list 100)) (om-load-inputfun (quote input-funbox) "offsets (list of values in ms)" "loffset" (list 0)) (om-load-inputfun (quote input-funbox) "durations (list of values in ms)" "ldur" (list 1000)) (om-load-inputfun (quote input-funbox) "MIDI channels (list of values 0-16)" "lchan" (list 1)))) (om-make-point 154 91) (om-make-point 57 62) (let ((thechord (make-instance (quote chord) :lmidic (quote (5200)) :ldur (quote (1000)) :lvel (quote (100)) :loffset (quote (0)) :lchan (quote (1))))) (load-port-info thechord (quote (0))) (init-mus-color thechord (quote nil)) (set-extra-pairs thechord (quote nil)) (set-tonalite thechord nil) thechord) "x" nil (pairlis (quote (scale show-stems cursor-mode obj-mode score-mode winpos winsize mode grillestep notechancolor? zoom player inport outport deltapict cmnpref staff fontsize approx)) (list nil (quote t) (quote :normal) 0 0 (om-make-point 400 25) (om-make-point 595 281) 0 1000 nil 1 (quote :osc-scoreplayer) nil nil (om-make-point 0 0) (let ((newobj (make-instance (quote edition-values)))) (setf (paper-size newobj) (om-make-point 600 800)) (setf (top-margin newobj) 2) (setf (left-margin newobj) 1) (setf (right-margin newobj) 1) (setf (bottom-margin newobj) 1) (setf (orientation newobj) nil) (setf (scale newobj) nil) (setf (system-space newobj) (quote (1))) (setf (system-color newobj) (quote nil)) (setf (line-space newobj) 1) (setf (title newobj) nil) (setf (show-title? newobj) nil) (setf (show-page? newobj) nil) (setf (sheet-id newobj) nil) (setf (page-mode newobj) nil) newobj) (quote f) 24 2)) nil nil nil nil))) (when (fboundp (quote set-active)) (set-active box nil)) box) (let ((box (om-load-editor-box1 "TEXTFILE" (quote textfile) (quote ((om-load-inputfun (quote input-funbox) "object" "self" nil) (om-load-inputfun (quote input-funbox) "input data or text" "exp-list" nil) (om-load-inputfunmenu1 (quote input-funmenu) "append or supersede" "ed-mode" "supersede" (list (list "append" "append") (list "supersede" "supersede"))) (om-load-inputfunmenu1 (quote input-funmenu) "eval interpretation mode" "eval-mode" "list" (list (list "text" "text") (list "data list" "data") (list "list" "list") (list "value" "value"))))) (om-make-point 310 20) (om-make-point 70 50) (load-buffer-textfile (quote ("(1 2 3 5 6 7 8 9 11 13 15 17)" "(1 2 3 5 7 9 11 11.5 13 15)" "(1 2 3 5 7 9 11 11.5 13 15)" "(1 2 3 5 7 9 10.5 11 13 15)" "(1 2 3 5 7 9 10.5 11 13 15)" "" "")) (quote textfile) "supersede" "list") "x" nil (pairlis (quote (winsize winpos)) (list (om-make-point 335 275) (om-make-point 10 40))) nil nil nil nil))) (when (fboundp (quote set-active)) (set-active box nil)) box))) (quote ((3 0 2 1 nil 0) (4 0 3 0 nil 0) (5 0 4 0 nil 0) (6 1 4 1 nil 0) (15 0 5 0 nil 0) (10 0 9 1 nil 0) (8 0 9 2 nil 0) (0 0 9 3 nil 0) (11 0 10 0 nil 0) (7 0 10 1 nil 0) (15 0 11 0 nil 0) (23 1 11 1 nil 0) (3 0 11 2 nil 0) (14 0 15 0 nil 0) (13 0 15 1 nil 0) (12 0 15 2 nil 0) (22 1 16 0 nil 0) (21 0 18 1 nil 0) (17 0 18 2 nil 0) (19 0 20 0 nil 0) (23 1 20 1 nil 0) (22 1 21 0 nil 0) (20 0 21 1 nil 0) (1 0 21 2 nil 0))) nil 7.01))
