; OM File Header - Saved 2023/04/10 19:03:45
; (7.01 :patc (om-make-point 172 60) (om-make-point 2163 155) (om-make-point 985 723) "" 183 0 nil nil)
; End File Header
(in-package :om)(load-lib-for (quote ("OMTristan")))(setf *om-current-persistent* (om-load-patch1 "009-murail-frequency-modulations" (quote ((let ((box (om-load-boxcall (quote lispfun) "LENGTH 2" (quote length) (quote ((om-load-inputfun (quote input-funbox) "SEQUENCE" "SEQUENCE" nil))) (om-make-point 176 503) nil nil nil nil 1))) (when (fboundp (quote set-active)) (set-active box nil)) box) (let ((box (om-load-boxcall (quote lispfun) "LENGTH" (quote length) (quote ((om-load-inputfun (quote input-funbox) "SEQUENCE" "SEQUENCE" nil))) (om-make-point 658 472) nil nil nil nil 1))) (when (fboundp (quote set-active)) (set-active box nil)) box) (let ((box (om-load-editor-box1 "CHORD 3" (quote chord) (quote ((om-load-inputfun (quote input-funbox) "object" "self" nil) (om-load-inputfun (quote input-funbox) "pitches (list of midicents)" "lmidic" (list 6000)) (om-load-inputfun (quote input-funbox) "velocities (list of values 0-127)" "lvel" (list 100)) (om-load-inputfun (quote input-funbox) "offsets (list of values in ms)" "loffset" (list 0)) (om-load-inputfun (quote input-funbox) "durations (list of values in ms)" "ldur" (list 1000)) (om-load-inputfun (quote input-funbox) "MIDI channels (list of values 0-16)" "lchan" (list 1)))) (om-make-point 603 329) (om-make-point 173 99) (let ((thechord (make-instance (quote chord) :lmidic (quote (5600 5794 7570 7634 8466 8506 9054 9082 9494 9514 9842 9860 10134 10148 10382 10394 10600 10610 10792 10802 10966)) :ldur (quote (1000 1000 1000 1000 1000 1000 1000 1000 1000 1000 1000 1000 1000 1000 1000 1000 1000 1000 1000 1000 1000)) :lvel (quote (56 75 75 65 65 69 69 76 76 47 47 71 71 80 80 79 79 72 72 62 62)) :loffset (quote (0 0 0 0 0 0 0 0 0 0 0 0 0 0 0 0 0 0 0 0 0)) :lchan (quote (1 1 1 1 1 1 1 1 1 1 1 1 1 1 1 1 1 1 1 1 1))))) (load-port-info thechord (quote (0 0 0 0 0 0 0 0 0 0 0 0 0 0 0 0 0 0 0 0 0))) (init-mus-color thechord (quote nil)) (set-extra-pairs thechord (quote nil)) (set-tonalite thechord nil) thechord) "x" nil (pairlis (quote (approx fontsize staff cmnpref deltapict outport inport player zoom notechancolor? grillestep mode winsize winpos score-mode obj-mode cursor-mode show-stems scale)) (list 8 24 (quote ggff) (let ((newobj (make-instance (quote edition-values)))) (setf (paper-size newobj) (om-make-point 600 800)) (setf (top-margin newobj) 2) (setf (left-margin newobj) 1) (setf (right-margin newobj) 1) (setf (bottom-margin newobj) 1) (setf (orientation newobj) nil) (setf (scale newobj) nil) (setf (system-space newobj) (quote (1))) (setf (system-color newobj) (quote nil)) (setf (line-space newobj) 1) (setf (title newobj) nil) (setf (show-title? newobj) nil) (setf (show-page? newobj) nil) (setf (sheet-id newobj) nil) (setf (page-mode newobj) nil) newobj) (om-make-point 0 0) nil nil (quote :osc-scoreplayer) 1 nil 1000 1 (om-make-point 823 467) (om-make-point 400 25) 0 0 (quote :normal) (quote t) nil)) t nil nil nil))) (when (fboundp (quote set-active)) (set-active box nil)) box) (let ((box (om-load-boxcall (quote bastype) "list 4" (quote list) (quote nil) (om-make-point 708 194) (om-make-point 25 31) 9 "9" nil))) (when (fboundp (quote set-active)) (set-active box nil)) box) (let ((box (om-load-boxcall (quote genfun) "FMO 2" (quote fmo) (quote ((om-load-inputfun (quote input-funbox) "Carrier" "CARRIER" 3600) (om-load-inputfun (quote input-funbox) "Moduler" "MODUL" 4000) (om-load-inputfun (quote input-funbox) "Index" "INDEX" 1) (om-load-inputfunmenu1 (quote input-funmenu) "Unit" "UNIT" (quote midic) (list (list "Midics" (quote (quote midic))) (list "Freqs" (quote (quote freq))))) (om-load-inputfunmenu1 (quote input-funmenu) "Type" "TYPE" (quote chord) (list (list "Chord" (quote (quote chord))) (list "ChordSeq" (quote (quote chordseq))))))) (om-make-point 585 246) (om-make-point 217 55) nil nil nil 1))) (when (fboundp (quote set-active)) (set-active box nil)) box) (let ((box (om-load-boxcall (quote lispfun) "SECOND" (quote second) (quote ((om-load-inputfun (quote input-funbox) "LIST" "LIST" nil))) (om-make-point 641 176) nil nil nil nil 1))) (when (fboundp (quote set-active)) (set-active box nil)) box) (let ((box (om-load-boxcall (quote lispfun) "FIRST" (quote first) (quote ((om-load-inputfun (quote input-funbox) "LIST" "LIST" nil))) (om-make-point 573 175) nil nil nil nil 1))) (when (fboundp (quote set-active)) (set-active box nil)) box) (let ((box (om-load-editor-box1 "CHORD 2" (quote chord) (quote ((om-load-inputfun (quote input-funbox) "object" "self" nil) (om-load-inputfun (quote input-funbox) "pitches (list of midicents)" "lmidic" (list 6000)) (om-load-inputfun (quote input-funbox) "velocities (list of values 0-127)" "lvel" (list 100)) (om-load-inputfun (quote input-funbox) "offsets (list of values in ms)" "loffset" (list 0)) (om-load-inputfun (quote input-funbox) "durations (list of values in ms)" "ldur" (list 1000)) (om-load-inputfun (quote input-funbox) "MIDI channels (list of values 0-16)" "lchan" (list 1)))) (om-make-point 589 47) (om-make-point 60 90) (let ((thechord (make-instance (quote chord) :lmidic (quote (5600 6900)) :ldur (quote (1000 1000)) :lvel (quote (100 100)) :loffset (quote (0 0)) :lchan (quote (1 1))))) (load-port-info thechord (quote (0 0))) (init-mus-color thechord (quote nil)) (set-extra-pairs thechord (quote nil)) (set-tonalite thechord nil) thechord) "x" nil (pairlis (quote (scale show-stems cursor-mode obj-mode score-mode winpos winsize mode grillestep notechancolor? zoom player inport outport deltapict cmnpref staff fontsize approx)) (list nil (quote t) (quote :normal) 0 0 (om-make-point 400 25) (om-make-point 370 280) 0 1000 nil 1 (quote :osc-scoreplayer) nil nil (om-make-point 0 0) (let ((newobj (make-instance (quote edition-values)))) (setf (paper-size newobj) (om-make-point 600 800)) (setf (top-margin newobj) 2) (setf (left-margin newobj) 1) (setf (right-margin newobj) 1) (setf (bottom-margin newobj) 1) (setf (orientation newobj) nil) (setf (scale newobj) nil) (setf (system-space newobj) (quote (1))) (setf (system-color newobj) (quote nil)) (setf (line-space newobj) 1) (setf (title newobj) nil) (setf (show-title? newobj) nil) (setf (show-page? newobj) nil) (setf (sheet-id newobj) nil) (setf (page-mode newobj) nil) newobj) (quote g) 24 2)) t nil nil nil))) (when (fboundp (quote set-active)) (set-active box nil)) box) (let ((box (om-load-boxcomment "comment 3" (om-make-point 174 30) (quote "F = abs(carrier + - (m*i))") "" (om-make-point 246 107) nil (om-make-color 0 0 0) (om-make-font "Verdana" 12 :family "Verdana" :style (quote (:plain)) :mode (quote nil))))) (when (fboundp (quote set-active)) (set-active box nil)) box) (let ((box (om-load-boxcall (quote bastype) "list 3" (quote list) (quote nil) (om-make-point 248 168) (om-make-point 18 33) 9 "9" nil))) (when (fboundp (quote set-active)) (set-active box nil)) box) (let ((box (om-load-editor-box1 "CHORD" (quote chord) (quote ((om-load-inputfun (quote input-funbox) "object" "self" nil) (om-load-inputfun (quote input-funbox) "pitches (list of midicents)" "lmidic" (list 6000)) (om-load-inputfun (quote input-funbox) "velocities (list of values 0-127)" "lvel" (list 100)) (om-load-inputfun (quote input-funbox) "offsets (list of values in ms)" "loffset" (list 0)) (om-load-inputfun (quote input-funbox) "durations (list of values in ms)" "ldur" (list 1000)) (om-load-inputfun (quote input-funbox) "MIDI channels (list of values 0-16)" "lchan" (list 1)))) (om-make-point 163 379) (om-make-point 173 99) (let ((thechord (make-instance (quote chord) :lmidic (quote (1814 5394 5784 6700 6894 7436 7566 7950 8048 8348 8424 8670 8734 8940 8996 9176 9224 9382 9566 9734 9886)) :ldur (quote (1000 1000 1000 1000 1000 1000 1000 1000 1000 1000 1000 1000 1000 1000 1000 1000 1000 1000 1000 1000 1000)) :lvel (quote (65 75 69 56 76 75 47 65 71 69 80 76 79 47 72 71 62 80 79 72 62)) :loffset (quote (0 0 0 0 0 0 0 0 0 0 0 0 0 0 0 0 0 0 0 0 0)) :lchan (quote (1 1 1 1 1 1 1 1 1 1 1 1 1 1 1 1 1 1 1 1 1))))) (load-port-info thechord (quote (0 0 0 0 0 0 0 0 0 0 0 0 0 0 0 0 0 0 0 0 0))) (init-mus-color thechord (quote nil)) (set-extra-pairs thechord (quote nil)) (set-tonalite thechord nil) thechord) "x" nil (pairlis (quote (approx fontsize staff cmnpref deltapict outport inport player zoom notechancolor? grillestep mode winsize winpos score-mode obj-mode cursor-mode show-stems scale)) (list 8 24 (quote ggff) (let ((newobj (make-instance (quote edition-values)))) (setf (paper-size newobj) (om-make-point 600 800)) (setf (top-margin newobj) 2) (setf (left-margin newobj) 1) (setf (right-margin newobj) 1) (setf (bottom-margin newobj) 1) (setf (orientation newobj) nil) (setf (scale newobj) nil) (setf (system-space newobj) (quote (1))) (setf (system-color newobj) (quote nil)) (setf (line-space newobj) 1) (setf (title newobj) nil) (setf (show-title? newobj) nil) (setf (show-page? newobj) nil) (setf (sheet-id newobj) nil) (setf (page-mode newobj) nil) newobj) (om-make-point 0 0) nil nil (quote :osc-scoreplayer) 1 nil 1000 1 (om-make-point 823 467) (om-make-point 400 25) 0 0 (quote :normal) (quote t) nil)) t nil nil nil))) (when (fboundp (quote set-active)) (set-active box nil)) box) (let ((box (om-load-boxcomment "comment 2" (om-make-point 83 30) (quote "modulation") "" (om-make-point 140 74) nil (om-make-color 0 0 0) (om-make-font "Verdana" 12 :family "Verdana" :style (quote (:plain)) :mode (quote nil))))) (when (fboundp (quote set-active)) (set-active box nil)) box) (let ((box (om-load-boxcomment "comment" (om-make-point 55 30) (quote "carrier") "" (om-make-point 46 75) nil (om-make-color 0 0 0) (om-make-font "Verdana" 12 :family "Verdana" :style (quote (:plain)) :mode (quote nil))))) (when (fboundp (quote set-active)) (set-active box nil)) box) (let ((box (om-load-boxcall (quote genfun) "F->MC 2" (quote f->mc) (quote ((om-load-inputfun (quote input-funbox) "frequency (Hz)" "FREQ" 440))) (om-make-point 169 144) nil nil nil nil 1))) (when (fboundp (quote set-active)) (set-active box nil)) box) (let ((box (om-load-boxcall (quote genfun) "F->MC" (quote f->mc) (quote ((om-load-inputfun (quote input-funbox) "frequency (Hz)" "FREQ" 440))) (om-make-point 106 144) nil nil nil nil 1))) (when (fboundp (quote set-active)) (set-active box nil)) box) (let ((box (om-load-boxcall (quote bastype) "list 2" (quote list) (quote nil) (om-make-point 160 107) (om-make-point 49 30) 207.65 "207.65" nil))) (when (fboundp (quote set-active)) (set-active box nil)) box) (let ((box (om-load-boxcall (quote bastype) "list" (quote list) (quote nil) (om-make-point 83 105) (om-make-point 31 30) 392 "392" nil))) (when (fboundp (quote set-active)) (set-active box nil)) box) (let ((box (om-load-boxcall (quote genfun) "FMO" (quote fmo) (quote ((om-load-inputfun (quote input-funbox) "Carrier" "CARRIER" 3600) (om-load-inputfun (quote input-funbox) "Moduler" "MODUL" 4000) (om-load-inputfun (quote input-funbox) "Index" "INDEX" 1) (om-load-inputfunmenu1 (quote input-funmenu) "Unit" "UNIT" (quote midic) (list (list "Midics" (quote (quote midic))) (list "Freqs" (quote (quote freq))))) (om-load-inputfunmenu1 (quote input-funmenu) "Type" "TYPE" (quote chord) (list (list "Chord" (quote (quote chord))) (list "ChordSeq" (quote (quote chordseq))))))) (om-make-point 128 222) (om-make-point 217 55) nil nil nil 1))) (when (fboundp (quote set-active)) (set-active box nil)) box))) (quote ((10 1 0 0 nil 0) (2 1 1 0 nil 0) (4 0 2 0 nil 0) (6 0 4 0 nil 0) (5 0 4 1 nil 0) (3 0 4 2 nil 0) (7 1 5 0 nil 0) (7 1 6 0 nil 0) (17 0 10 0 nil 0) (15 0 13 0 nil 0) (16 0 14 0 nil 0) (14 0 17 0 nil 0) (13 0 17 1 nil 0) (9 0 17 2 nil 0))) nil 7.01))
