; OM File Header - Saved 2023/02/10 12:09:04
; (7.01 :patc (om-make-point 150 328) (om-make-point 50 50) (om-make-point 500 400) "" 183 0 nil nil)
; End File Header
; External resources 
; (list (list (quote :abstraction) "#P\"../week4/007-invariants.omp\""))
(in-package :om)(load-lib-for (quote nil))(setf *om-current-persistent* (om-load-patch1 "patch2" (quote ((let ((box (om-load-boxcall (quote bastype) "list 4" (quote list) (quote nil) (om-make-point 79 525) (om-make-point 23 30) nil "nil" nil))) (when (fboundp (quote set-active)) (set-active box nil)) box) (let ((box (om-load-boxcall (quote lispfun) "REMOVE" (quote remove) (quote ((om-load-inputfun (quote input-funbox) "ITEM" "ITEM" nil) (om-load-inputfun (quote input-funbox) "SEQUENCE" "SEQUENCE" nil))) (om-make-point 98 572) nil nil nil nil 1))) (when (fboundp (quote set-active)) (set-active box nil)) box) (let ((box (om-load-boxcall (quote bastype) "list 3" (quote list) (quote nil) (om-make-point 203 416) (om-make-point 59 30) (list 0 1 9) "(0 1 9)" nil))) (when (fboundp (quote set-active)) (set-active box nil)) box) (let ((box (om-load-boxwithed1 (quote box-with-win) "continuous-subsets?" (quote omloop) (quote ((om-load-inputfun (quote input-funbox) "" "sequences" nil) (om-load-inputfun (quote input-funbox) "" "continuous-subset" nil))) (om-make-point 63 454) nil nil nil (list (let ((box (om-load-boxcall (quote genfun) "collect" (quote listing) (quote ((om-load-inputfun (quote input-funbox) "anything" "DATA" nil))) (om-make-point 242 314) nil nil nil nil 3))) (when (fboundp (quote set-active)) (set-active box nil)) box) (let ((box (om-load-boxcall (quote patch-box) "007-invariants" (quote ("elements" "week4" "007-invariants")) (quote ((om-load-inputfun (quote input-funbox) "" "sequence" nil) (om-load-inputfun (quote input-funbox) "" "input" nil))) (om-make-point 143 207) nil nil nil nil 1))) (when (fboundp (quote set-active)) (set-active box nil)) box) (let ((box (om-load-boxcall (quote genfun) "inlist" (quote listloop) (quote ((om-load-inputfun (quote input-funbox) "list to iterate" "LIST" nil))) (om-make-point 79 113) nil nil nil nil 1))) (when (fboundp (quote set-active)) (set-active box nil)) box) (let ((box (om-load-boxin "continuous-subset" 1 (om-make-point 290 55) "" "continuous-subset" nil nil))) (when (fboundp (quote set-active)) (set-active box nil)) box) (let ((box (om-load-boxin "sequences" 0 (om-make-point 5 45) "" "sequences" nil nil))) (when (fboundp (quote set-active)) (set-active box nil)) box) (let ((box (om-load-seqbox "finally" (quote finaldo) (quote ((om-load-inputfun (quote input-funbox) "value to return" "VAL" nil))) (om-make-point 303 412) nil nil nil 0))) (when (fboundp (quote set-active)) (set-active box nil)) box) (let ((box (om-load-seqbox "eachTime" (quote loopdo) (quote ((om-load-inputfun (quote input-funbox) "operations to do" "OP" nil))) (om-make-point 203 412) nil nil nil 0))) (when (fboundp (quote set-active)) (set-active box nil)) box)) (quote ((1 0 0 0 nil 0) (2 0 1 0 nil 0) (3 0 1 1 nil 0) (4 0 2 0 nil 0) (0 1 5 0 nil 0) (0 0 6 0 nil 0))) 1 "continuous-subsets?" nil))) (when (fboundp (quote set-active)) (set-active box nil)) box) (let ((box (om-load-boxcall (quote patch-box) "007-invariants" (quote ("elements" "week4" "007-invariants")) (quote ((om-load-inputfun (quote input-funbox) "" "sequence" nil) (om-load-inputfun (quote input-funbox) "" "input" nil))) (om-make-point 541 345) nil nil nil nil 1))) (when (fboundp (quote set-active)) (set-active box nil)) box) (let ((box (om-load-boxwithed1 (quote box-with-win) "all-p-forms" (quote omloop) (quote ((om-load-inputfun (quote input-funbox) "" "row" nil) (om-load-inputfun (quote input-funbox) "" "all-t-levels" nil))) (om-make-point 128 338) nil nil nil (list (let ((box (om-load-boxcall (quote genfun) "collect" (quote listing) (quote ((om-load-inputfun (quote input-funbox) "anything" "DATA" nil))) (om-make-point 236 243) nil nil nil nil 3))) (when (fboundp (quote set-active)) (set-active box nil)) box) (let ((box (om-load-boxcall (quote genfun) "inlist" (quote listloop) (quote ((om-load-inputfun (quote input-funbox) "list to iterate" "LIST" nil))) (om-make-point 170 97) nil nil nil nil 1))) (when (fboundp (quote set-active)) (set-active box nil)) box) (let ((box (om-load-boxin "all-t-levels" 1 (om-make-point 246 52) "" "all-t-levels" nil nil))) (when (fboundp (quote set-active)) (set-active box nil)) box) (let ((box (om-load-boxcall (quote abstraction) "P-forms" (om-load-patch-abs1 "P-forms" (quote ((let ((box (om-load-boxwithed1 (quote box-with-win) "mod12" (quote omloop) (quote ((om-load-inputfun (quote input-funbox) "" "pc-list" nil))) (om-make-point 120 186) nil nil nil (list (let ((box (om-load-boxcall (quote genfun) "collect" (quote listing) (quote ((om-load-inputfun (quote input-funbox) "anything" "DATA" nil))) (om-make-point 223 228) nil nil nil nil 3))) (when (fboundp (quote set-active)) (set-active box nil)) box) (let ((box (om-load-boxcall (quote bastype) "list" (quote list) (quote nil) (om-make-point 203 138) (om-make-point 24 30) 12 "12" nil))) (when (fboundp (quote set-active)) (set-active box nil)) box) (let ((box (om-load-boxcall (quote lispfun) "MOD" (quote mod) (quote ((om-load-inputfun (quote input-funbox) "X" "X" nil) (om-load-inputfun (quote input-funbox) "Y" "Y" nil))) (om-make-point 155 186) nil nil nil nil 1))) (when (fboundp (quote set-active)) (set-active box nil)) box) (let ((box (om-load-boxcall (quote genfun) "inlist" (quote listloop) (quote ((om-load-inputfun (quote input-funbox) "list to iterate" "LIST" nil))) (om-make-point 74 95) nil nil nil nil 1))) (when (fboundp (quote set-active)) (set-active box nil)) box) (let ((box (om-load-boxin "pc-list" 0 (om-make-point 5 45) "" "pc-list" nil nil))) (when (fboundp (quote set-active)) (set-active box nil)) box) (let ((box (om-load-seqbox "finally" (quote finaldo) (quote ((om-load-inputfun (quote input-funbox) "value to return" "VAL" nil))) (om-make-point 269 351) nil nil nil 0))) (when (fboundp (quote set-active)) (set-active box nil)) box) (let ((box (om-load-seqbox "eachTime" (quote loopdo) (quote ((om-load-inputfun (quote input-funbox) "operations to do" "OP" nil))) (om-make-point 169 351) nil nil nil 0))) (when (fboundp (quote set-active)) (set-active box nil)) box)) (quote ((2 0 0 0 nil 0) (3 0 2 0 nil 0) (1 0 2 1 nil 0) (4 0 3 0 nil 0) (0 1 5 0 nil 0) (0 0 6 0 nil 0))) 1 "mod12" nil))) (when (fboundp (quote set-active)) (set-active box nil)) box) (let ((box (om-load-boxout "output" 0 (om-make-point 168 365) (quote ((om-load-inputfun (quote input-funbox) "" "out" nil))) "midics-list" nil))) (when (fboundp (quote set-active)) (set-active box nil)) box) (let ((box (om-load-boxcall (quote abstraction) "pc-list->mc-list" (om-load-patch-abs1 "pc-list->mc-list" (quote ((let ((box (om-load-boxin "pc-list" 0 (om-make-point 169 109) "" "pc-list" nil nil))) (when (fboundp (quote set-active)) (set-active box nil)) box) (let ((box (om-load-boxcall (quote lispfun) "MAPCAR" (quote mapcar) (quote ((om-load-inputfun (quote input-funbox) "FUNCTION" "FUNCTION" nil) (om-load-inputfun (quote input-funbox) "LIST" "LIST" nil))) (om-make-point 102 200) nil nil nil nil 1))) (when (fboundp (quote set-active)) (set-active box nil)) box) (let ((box (om-load-boxout "output" 0 (om-make-point 154 261) (quote ((om-load-inputfun (quote input-funbox) "" "out" nil))) "mc-list" nil))) (when (fboundp (quote set-active)) (set-active box nil)) box) (let ((box (om-load-boxcall (quote abstraction) "pc->mc" (om-load-patch-abs1 "pc->mc" (quote ((let ((box (om-load-boxout "output" 0 (om-make-point 115 235) (quote ((om-load-inputfun (quote input-funbox) "" "out" nil))) nil nil))) (when (fboundp (quote set-active)) (set-active box nil)) box) (let ((box (om-load-boxcall (quote bastype) "list 2" (quote list) (quote nil) (om-make-point 138 147) (om-make-point 31 30) 100 "100" nil))) (when (fboundp (quote set-active)) (set-active box nil)) box) (let ((box (om-load-boxcall (quote genfun) "OM*" (quote om*) (quote ((om-load-inputfun (quote input-funbox) "number or list" "ARG1" 0) (om-load-inputfun (quote input-funbox) "number or list" "ARG2" 0))) (om-make-point 105 186) nil nil nil nil 1))) (when (fboundp (quote set-active)) (set-active box nil)) box) (let ((box (om-load-boxcall (quote bastype) "list" (quote list) (quote nil) (om-make-point 84 74) (om-make-point 24 30) 60 "60" nil))) (when (fboundp (quote set-active)) (set-active box nil)) box) (let ((box (om-load-boxcall (quote genfun) "OM+" (quote om+) (quote ((om-load-inputfun (quote input-funbox) "number or list" "ARG1" 0) (om-load-inputfun (quote input-funbox) "number or list" "ARG2" 0))) (om-make-point 50 142) nil nil nil nil 1))) (when (fboundp (quote set-active)) (set-active box nil)) box) (let ((box (om-load-boxin "input" 0 (om-make-point 5 45) "" nil nil nil))) (when (fboundp (quote set-active)) (set-active box nil)) box))) (quote ((2 0 0 0 nil 0) (4 0 2 0 nil 0) (1 0 2 1 nil 0) (5 0 4 0 nil 0) (3 0 4 1 nil 0))) 7.01 nil "" (om-make-point 200 200) (om-make-point 500 400)) (quote ((om-load-inputfun (quote input-funbox) "" "input" nil))) (om-make-point 68 102) nil (list nil) "l" "pc->mc"))) (when (fboundp (quote set-active)) (set-active box nil)) box))) (quote ((3 0 1 0 nil 0) (0 0 1 1 nil 0) (1 0 2 0 nil 0))) 7.01 nil "" (om-make-point 200 200) (om-make-point 500 400)) (quote ((om-load-inputfun (quote input-funbox) "" "input" nil))) (om-make-point 208 245) nil (list (list 7100 7000 6200 6300 6700 6600 6800 6400 6500 6000 6100 6900)) nil "pc-list->mc-list"))) (when (fboundp (quote set-active)) (set-active box nil)) box) (let ((box (om-load-boxcall (quote genfun) "OM+" (quote om+) (quote ((om-load-inputfun (quote input-funbox) "number or list" "ARG1" 0) (om-load-inputfun (quote input-funbox) "number or list" "ARG2" 0))) (om-make-point 66 152) nil nil nil nil 1))) (when (fboundp (quote set-active)) (set-active box nil)) box) (let ((box (om-load-boxin "index" 1 (om-make-point 143 45) "" "index" nil nil))) (when (fboundp (quote set-active)) (set-active box nil)) box) (let ((box (om-load-boxin "row" 0 (om-make-point 5 45) "" "row" nil nil))) (when (fboundp (quote set-active)) (set-active box nil)) box))) (quote ((3 0 0 0 nil 0) (0 0 1 0 nil 0) (0 0 2 0 nil 0) (5 0 3 0 nil 0) (4 0 3 1 nil 0))) 7.01 nil "" (om-make-point 200 200) (om-make-point 500 400)) (quote ((om-load-inputfun (quote input-funbox) "" "row" nil) (om-load-inputfun (quote input-funbox) "" "index" nil))) (om-make-point 89 168) nil (list (list 6000 7100 6300 6400 6800 6700 6900 6500 6600 6100 6200 7000)) nil "P-forms"))) (when (fboundp (quote set-active)) (set-active box nil)) box) (let ((box (om-load-boxin "row" 0 (om-make-point 5 45) "" "row" nil nil))) (when (fboundp (quote set-active)) (set-active box nil)) box) (let ((box (om-load-seqbox "finally" (quote finaldo) (quote ((om-load-inputfun (quote input-funbox) "value to return" "VAL" nil))) (om-make-point 293 322) nil nil nil 0))) (when (fboundp (quote set-active)) (set-active box nil)) box) (let ((box (om-load-seqbox "eachTime" (quote loopdo) (quote ((om-load-inputfun (quote input-funbox) "operations to do" "OP" nil))) (om-make-point 193 322) nil nil nil 0))) (when (fboundp (quote set-active)) (set-active box nil)) box)) (quote ((3 0 0 0 nil 0) (2 0 1 0 nil 0) (4 0 3 0 nil 0) (1 0 3 1 nil 0) (0 1 5 0 nil 0) (0 0 6 0 nil 0))) 1 "all-p-forms" nil))) (when (fboundp (quote set-active)) (set-active box nil)) box) (let ((box (om-load-boxcall (quote bastype) "list 2" (quote list) (quote nil) (om-make-point 284 242) (om-make-point 24 30) 11 "11" nil))) (when (fboundp (quote set-active)) (set-active box nil)) box) (let ((box (om-load-boxcall (quote genfun) "ARITHM-SER" (quote arithm-ser) (quote ((om-load-inputfun (quote input-funbox) "begin" "BEGIN" 0) (om-load-inputfun (quote input-funbox) "end " "END" 10) (om-load-inputfun (quote input-funbox) "step" "STEP" 1))) (om-make-point 253 280) nil nil nil nil 1))) (when (fboundp (quote set-active)) (set-active box nil)) box) (let ((box (om-load-boxcall (quote abstraction) "R-forms" (om-load-patch-abs1 "R-forms" (quote ((let ((box (om-load-boxout "output" 0 (om-make-point 96 234) (quote ((om-load-inputfun (quote input-funbox) "" "out" nil))) nil nil))) (when (fboundp (quote set-active)) (set-active box nil)) box) (let ((box (om-load-boxcall (quote abstraction) "P-forms->R-forms" (om-load-patch-abs1 "P-forms->R-forms" (quote ((let ((box (om-load-boxcall (quote lispfun) "REVERSE" (quote reverse) (quote ((om-load-inputfun (quote input-funbox) "SEQUENCE" "SEQUENCE" nil))) (om-make-point 275 343) nil nil nil nil 1))) (when (fboundp (quote set-active)) (set-active box nil)) box) (let ((box (om-load-boxwithed1 (quote box-with-win) "mod12" (quote omloop) (quote ((om-load-inputfun (quote input-funbox) "" "pc-list" nil))) (om-make-point 120 186) nil nil nil (list (let ((box (om-load-boxcall (quote genfun) "collect" (quote listing) (quote ((om-load-inputfun (quote input-funbox) "anything" "DATA" nil))) (om-make-point 223 228) nil nil nil nil 3))) (when (fboundp (quote set-active)) (set-active box nil)) box) (let ((box (om-load-boxcall (quote bastype) "list" (quote list) (quote nil) (om-make-point 203 138) (om-make-point 24 30) 12 "12" nil))) (when (fboundp (quote set-active)) (set-active box nil)) box) (let ((box (om-load-boxcall (quote lispfun) "MOD" (quote mod) (quote ((om-load-inputfun (quote input-funbox) "X" "X" nil) (om-load-inputfun (quote input-funbox) "Y" "Y" nil))) (om-make-point 155 186) nil nil nil nil 1))) (when (fboundp (quote set-active)) (set-active box nil)) box) (let ((box (om-load-boxcall (quote genfun) "inlist" (quote listloop) (quote ((om-load-inputfun (quote input-funbox) "list to iterate" "LIST" nil))) (om-make-point 74 95) nil nil nil nil 1))) (when (fboundp (quote set-active)) (set-active box nil)) box) (let ((box (om-load-boxin "pc-list" 0 (om-make-point 5 45) "" "pc-list" nil nil))) (when (fboundp (quote set-active)) (set-active box nil)) box) (let ((box (om-load-seqbox "finally" (quote finaldo) (quote ((om-load-inputfun (quote input-funbox) "value to return" "VAL" nil))) (om-make-point 269 351) nil nil nil 0))) (when (fboundp (quote set-active)) (set-active box nil)) box) (let ((box (om-load-seqbox "eachTime" (quote loopdo) (quote ((om-load-inputfun (quote input-funbox) "operations to do" "OP" nil))) (om-make-point 169 351) nil nil nil 0))) (when (fboundp (quote set-active)) (set-active box nil)) box)) (quote ((2 0 0 0 nil 0) (3 0 2 0 nil 0) (1 0 2 1 nil 0) (4 0 3 0 nil 0) (0 1 5 0 nil 0) (0 0 6 0 nil 0))) 1 "mod12" nil))) (when (fboundp (quote set-active)) (set-active box nil)) box) (let ((box (om-load-boxout "output" 0 (om-make-point 200 399) (quote ((om-load-inputfun (quote input-funbox) "" "out" nil))) "midics-list" nil))) (when (fboundp (quote set-active)) (set-active box nil)) box) (let ((box (om-load-boxcall (quote abstraction) "pc-list->mc-list" (om-load-patch-abs1 "pc-list->mc-list" (quote ((let ((box (om-load-boxin "pc-list" 0 (om-make-point 169 109) "" "pc-list" nil nil))) (when (fboundp (quote set-active)) (set-active box nil)) box) (let ((box (om-load-boxcall (quote lispfun) "MAPCAR" (quote mapcar) (quote ((om-load-inputfun (quote input-funbox) "FUNCTION" "FUNCTION" nil) (om-load-inputfun (quote input-funbox) "LIST" "LIST" nil))) (om-make-point 102 200) nil nil nil nil 1))) (when (fboundp (quote set-active)) (set-active box nil)) box) (let ((box (om-load-boxout "output" 0 (om-make-point 154 261) (quote ((om-load-inputfun (quote input-funbox) "" "out" nil))) "mc-list" nil))) (when (fboundp (quote set-active)) (set-active box nil)) box) (let ((box (om-load-boxcall (quote abstraction) "pc->mc" (om-load-patch-abs1 "pc->mc" (quote ((let ((box (om-load-boxout "output" 0 (om-make-point 115 235) (quote ((om-load-inputfun (quote input-funbox) "" "out" nil))) nil nil))) (when (fboundp (quote set-active)) (set-active box nil)) box) (let ((box (om-load-boxcall (quote bastype) "list 2" (quote list) (quote nil) (om-make-point 138 147) (om-make-point 31 30) 100 "100" nil))) (when (fboundp (quote set-active)) (set-active box nil)) box) (let ((box (om-load-boxcall (quote genfun) "OM*" (quote om*) (quote ((om-load-inputfun (quote input-funbox) "number or list" "ARG1" 0) (om-load-inputfun (quote input-funbox) "number or list" "ARG2" 0))) (om-make-point 105 186) nil nil nil nil 1))) (when (fboundp (quote set-active)) (set-active box nil)) box) (let ((box (om-load-boxcall (quote bastype) "list" (quote list) (quote nil) (om-make-point 84 74) (om-make-point 24 30) 60 "60" nil))) (when (fboundp (quote set-active)) (set-active box nil)) box) (let ((box (om-load-boxcall (quote genfun) "OM+" (quote om+) (quote ((om-load-inputfun (quote input-funbox) "number or list" "ARG1" 0) (om-load-inputfun (quote input-funbox) "number or list" "ARG2" 0))) (om-make-point 50 142) nil nil nil nil 1))) (when (fboundp (quote set-active)) (set-active box nil)) box) (let ((box (om-load-boxin "input" 0 (om-make-point 5 45) "" nil nil nil))) (when (fboundp (quote set-active)) (set-active box nil)) box))) (quote ((2 0 0 0 nil 0) (4 0 2 0 nil 0) (1 0 2 1 nil 0) (5 0 4 0 nil 0) (3 0 4 1 nil 0))) 7.01 nil "" (om-make-point 200 200) (om-make-point 500 400)) (quote ((om-load-inputfun (quote input-funbox) "" "input" nil))) (om-make-point 68 102) nil (list nil) "l" "pc->mc"))) (when (fboundp (quote set-active)) (set-active box nil)) box))) (quote ((3 0 1 0 nil 0) (0 0 1 1 nil 0) (1 0 2 0 nil 0))) 7.01 nil "" (om-make-point 200 200) (om-make-point 500 400)) (quote ((om-load-inputfun (quote input-funbox) "" "input" nil))) (om-make-point 184 266) nil (list (list 7100 7000 6200 6300 6700 6600 6800 6400 6500 6000 6100 6900)) nil "pc-list->mc-list"))) (when (fboundp (quote set-active)) (set-active box nil)) box) (let ((box (om-load-boxcall (quote genfun) "OM+" (quote om+) (quote ((om-load-inputfun (quote input-funbox) "number or list" "ARG1" 0) (om-load-inputfun (quote input-funbox) "number or list" "ARG2" 0))) (om-make-point 66 152) nil nil nil nil 1))) (when (fboundp (quote set-active)) (set-active box nil)) box) (let ((box (om-load-boxin "index" 1 (om-make-point 143 45) "" "index" nil nil))) (when (fboundp (quote set-active)) (set-active box nil)) box) (let ((box (om-load-boxin "row" 0 (om-make-point 5 45) "" "row" nil nil))) (when (fboundp (quote set-active)) (set-active box nil)) box))) (quote ((3 0 0 0 nil 0) (4 0 1 0 nil 0) (0 0 2 0 nil 0) (1 0 3 0 nil 0) (6 0 4 0 nil 0) (5 0 4 1 nil 0))) 7.01 nil "" (om-make-point 200 200) (om-make-point 500 400)) (quote ((om-load-inputfun (quote input-funbox) "" "row" nil) (om-load-inputfun (quote input-funbox) "" "index" nil))) (om-make-point 47 143) nil (list (list 6000 7100 6300 6400 6800 6700 6900 6500 6600 6100 6200 7000)) nil "P-forms->R-forms"))) (when (fboundp (quote set-active)) (set-active box nil)) box) (let ((box (om-load-boxin "index" 1 (om-make-point 90 45) "" "index" nil nil))) (when (fboundp (quote set-active)) (set-active box nil)) box) (let ((box (om-load-boxin "row" 0 (om-make-point 5 45) "" "row" nil nil))) (when (fboundp (quote set-active)) (set-active box nil)) box))) (quote ((1 0 0 0 nil 0) (3 0 1 0 nil 0) (2 0 1 1 nil 0))) 7.01 nil "" (om-make-point 200 200) (om-make-point 500 400)) (quote ((om-load-inputfun (quote input-funbox) "" "row" nil) (om-load-inputfun (quote input-funbox) "" "index" nil))) (om-make-point 536 89) nil (list (list 7000 6200 6100 6600 6500 6900 6700 6800 6400 6300 7100 6000)) nil "R-forms"))) (when (fboundp (quote set-active)) (set-active box nil)) box) (let ((box (om-load-boxcall (quote abstraction) "I-forms" (om-load-patch-abs1 "I-forms" (quote ((let ((box (om-load-boxcall (quote abstraction) "T0-of-row" (om-load-patch-abs1 "T0-of-row" (quote ((let ((box (om-load-boxout "output" 0 (om-make-point 159 286) (quote ((om-load-inputfun (quote input-funbox) "" "out" nil))) nil nil))) (when (fboundp (quote set-active)) (set-active box nil)) box) (let ((box (om-load-boxwithed1 (quote box-with-win) "convert-mod-12" (quote omloop) (quote ((om-load-inputfun (quote input-funbox) "" "list" nil))) (om-make-point 78 217) nil nil nil (list (let ((box (om-load-boxcall (quote genfun) "collect" (quote listing) (quote ((om-load-inputfun (quote input-funbox) "anything" "DATA" nil))) (om-make-point 227 158) (om-make-point 92 59) nil nil nil 3))) (when (fboundp (quote set-active)) (set-active box nil)) box) (let ((box (om-load-boxcall (quote bastype) "list 2" (quote list) (quote nil) (om-make-point 194 101) (om-make-point 24 30) 12 "12" nil))) (when (fboundp (quote set-active)) (set-active box nil)) box) (let ((box (om-load-boxcall (quote lispfun) "MOD" (quote mod) (quote ((om-load-inputfun (quote input-funbox) "X" "X" nil) (om-load-inputfun (quote input-funbox) "Y" "Y" nil))) (om-make-point 144 132) nil nil nil nil 1))) (when (fboundp (quote set-active)) (set-active box nil)) box) (let ((box (om-load-boxcall (quote genfun) "inlist" (quote listloop) (quote ((om-load-inputfun (quote input-funbox) "list to iterate" "LIST" nil))) (om-make-point 67 67) nil nil nil nil 1))) (when (fboundp (quote set-active)) (set-active box nil)) box) (let ((box (om-load-boxin "list" 0 (om-make-point 5 45) "" "list" nil nil))) (when (fboundp (quote set-active)) (set-active box nil)) box) (let ((box (om-load-seqbox "finally" (quote finaldo) (quote ((om-load-inputfun (quote input-funbox) "value to return" "VAL" nil))) (om-make-point 300 250) nil nil nil 0))) (when (fboundp (quote set-active)) (set-active box nil)) box) (let ((box (om-load-seqbox "eachTime" (quote loopdo) (quote ((om-load-inputfun (quote input-funbox) "operations to do" "OP" nil))) (om-make-point 200 250) nil nil nil 0))) (when (fboundp (quote set-active)) (set-active box nil)) box)) (quote ((2 0 0 0 nil 0) (3 0 2 0 nil 0) (1 0 2 1 nil 0) (4 0 3 0 nil 0) (0 1 5 0 nil 0) (0 0 6 0 nil 0))) 1 "convert-mod-12" nil))) (when (fboundp (quote set-active)) (set-active box nil)) box) (let ((box (om-load-boxcall (quote genfun) "DX->X" (quote dx->x) (quote ((om-load-inputfun (quote input-funbox) "a number" "START" 0) (om-load-inputfun (quote input-funbox) "a list of numbers" "LIST" (list 1 1)))) (om-make-point 37 150) nil nil nil nil 1))) (when (fboundp (quote set-active)) (set-active box nil)) box) (let ((box (om-load-boxcomment "comment" (om-make-point 61 30) (quote "Find T0") "" (om-make-point 89 74) nil (om-make-color 0 0 0) (om-make-font "Verdana" 12 :family "Verdana" :style (quote (:plain)) :mode (quote nil))))) (when (fboundp (quote set-active)) (set-active box nil)) box) (let ((box (om-load-boxin "input" 0 (om-make-point 5 45) "" nil nil nil))) (when (fboundp (quote set-active)) (set-active box nil)) box))) (quote ((1 0 0 0 nil 0) (2 0 1 0 nil 0) (4 0 2 1 nil 0))) 7.01 nil "" (om-make-point 200 200) (om-make-point 500 400)) (quote ((om-load-inputfun (quote input-funbox) "" "input" nil))) (om-make-point 78 275) nil (list (list 0 11 3 4 8 7 9 5 6 1 2 10)) nil "T0-of-row"))) (when (fboundp (quote set-active)) (set-active box nil)) box) (let ((box (om-load-boxin "index" 1 (om-make-point 309 258) "" "index" nil nil))) (when (fboundp (quote set-active)) (set-active box nil)) box) (let ((box (om-load-boxout "output" 0 (om-make-point 168 425) (quote ((om-load-inputfun (quote input-funbox) "" "out" nil))) "list-of-midics" nil))) (when (fboundp (quote set-active)) (set-active box nil)) box) (let ((box (om-load-boxcall (quote abstraction) "P-forms" (om-load-patch-abs1 "P-forms" (quote ((let ((box (om-load-boxwithed1 (quote box-with-win) "mod12" (quote omloop) (quote ((om-load-inputfun (quote input-funbox) "" "pc-list" nil))) (om-make-point 120 186) nil nil nil (list (let ((box (om-load-boxcall (quote genfun) "collect" (quote listing) (quote ((om-load-inputfun (quote input-funbox) "anything" "DATA" nil))) (om-make-point 223 228) nil nil nil nil 3))) (when (fboundp (quote set-active)) (set-active box nil)) box) (let ((box (om-load-boxcall (quote bastype) "list" (quote list) (quote nil) (om-make-point 203 138) (om-make-point 24 30) 12 "12" nil))) (when (fboundp (quote set-active)) (set-active box nil)) box) (let ((box (om-load-boxcall (quote lispfun) "MOD" (quote mod) (quote ((om-load-inputfun (quote input-funbox) "X" "X" nil) (om-load-inputfun (quote input-funbox) "Y" "Y" nil))) (om-make-point 155 186) nil nil nil nil 1))) (when (fboundp (quote set-active)) (set-active box nil)) box) (let ((box (om-load-boxcall (quote genfun) "inlist" (quote listloop) (quote ((om-load-inputfun (quote input-funbox) "list to iterate" "LIST" nil))) (om-make-point 74 95) nil nil nil nil 1))) (when (fboundp (quote set-active)) (set-active box nil)) box) (let ((box (om-load-boxin "pc-list" 0 (om-make-point 5 45) "" "pc-list" nil nil))) (when (fboundp (quote set-active)) (set-active box nil)) box) (let ((box (om-load-seqbox "finally" (quote finaldo) (quote ((om-load-inputfun (quote input-funbox) "value to return" "VAL" nil))) (om-make-point 269 351) nil nil nil 0))) (when (fboundp (quote set-active)) (set-active box nil)) box) (let ((box (om-load-seqbox "eachTime" (quote loopdo) (quote ((om-load-inputfun (quote input-funbox) "operations to do" "OP" nil))) (om-make-point 169 351) nil nil nil 0))) (when (fboundp (quote set-active)) (set-active box nil)) box)) (quote ((2 0 0 0 nil 0) (3 0 2 0 nil 0) (1 0 2 1 nil 0) (4 0 3 0 nil 0) (0 1 5 0 nil 0) (0 0 6 0 nil 0))) 1 "mod12" nil))) (when (fboundp (quote set-active)) (set-active box nil)) box) (let ((box (om-load-boxout "output" 0 (om-make-point 168 365) (quote ((om-load-inputfun (quote input-funbox) "" "out" nil))) "midics-list" nil))) (when (fboundp (quote set-active)) (set-active box nil)) box) (let ((box (om-load-boxcall (quote abstraction) "pc-list->mc-list" (om-load-patch-abs1 "pc-list->mc-list" (quote ((let ((box (om-load-boxin "pc-list" 0 (om-make-point 169 109) "" "pc-list" nil nil))) (when (fboundp (quote set-active)) (set-active box nil)) box) (let ((box (om-load-boxcall (quote lispfun) "MAPCAR" (quote mapcar) (quote ((om-load-inputfun (quote input-funbox) "FUNCTION" "FUNCTION" nil) (om-load-inputfun (quote input-funbox) "LIST" "LIST" nil))) (om-make-point 102 200) nil nil nil nil 1))) (when (fboundp (quote set-active)) (set-active box nil)) box) (let ((box (om-load-boxout "output" 0 (om-make-point 154 261) (quote ((om-load-inputfun (quote input-funbox) "" "out" nil))) "mc-list" nil))) (when (fboundp (quote set-active)) (set-active box nil)) box) (let ((box (om-load-boxcall (quote abstraction) "pc->mc" (om-load-patch-abs1 "pc->mc" (quote ((let ((box (om-load-boxout "output" 0 (om-make-point 115 235) (quote ((om-load-inputfun (quote input-funbox) "" "out" nil))) nil nil))) (when (fboundp (quote set-active)) (set-active box nil)) box) (let ((box (om-load-boxcall (quote bastype) "list 2" (quote list) (quote nil) (om-make-point 138 147) (om-make-point 31 30) 100 "100" nil))) (when (fboundp (quote set-active)) (set-active box nil)) box) (let ((box (om-load-boxcall (quote genfun) "OM*" (quote om*) (quote ((om-load-inputfun (quote input-funbox) "number or list" "ARG1" 0) (om-load-inputfun (quote input-funbox) "number or list" "ARG2" 0))) (om-make-point 105 186) nil nil nil nil 1))) (when (fboundp (quote set-active)) (set-active box nil)) box) (let ((box (om-load-boxcall (quote bastype) "list" (quote list) (quote nil) (om-make-point 84 74) (om-make-point 24 30) 60 "60" nil))) (when (fboundp (quote set-active)) (set-active box nil)) box) (let ((box (om-load-boxcall (quote genfun) "OM+" (quote om+) (quote ((om-load-inputfun (quote input-funbox) "number or list" "ARG1" 0) (om-load-inputfun (quote input-funbox) "number or list" "ARG2" 0))) (om-make-point 50 142) nil nil nil nil 1))) (when (fboundp (quote set-active)) (set-active box nil)) box) (let ((box (om-load-boxin "input" 0 (om-make-point 5 45) "" nil nil nil))) (when (fboundp (quote set-active)) (set-active box nil)) box))) (quote ((2 0 0 0 nil 0) (4 0 2 0 nil 0) (1 0 2 1 nil 0) (5 0 4 0 nil 0) (3 0 4 1 nil 0))) 7.01 nil "" (om-make-point 200 200) (om-make-point 500 400)) (quote ((om-load-inputfun (quote input-funbox) "" "input" nil))) (om-make-point 68 102) nil (list nil) "l" "pc->mc"))) (when (fboundp (quote set-active)) (set-active box nil)) box))) (quote ((3 0 1 0 nil 0) (0 0 1 1 nil 0) (1 0 2 0 nil 0))) 7.01 nil "" (om-make-point 200 200) (om-make-point 500 400)) (quote ((om-load-inputfun (quote input-funbox) "" "input" nil))) (om-make-point 183 278) nil (list (list 7100 7000 6200 6300 6700 6600 6800 6400 6500 6000 6100 6900)) nil "pc-list->mc-list"))) (when (fboundp (quote set-active)) (set-active box nil)) box) (let ((box (om-load-boxcall (quote genfun) "OM+" (quote om+) (quote ((om-load-inputfun (quote input-funbox) "number or list" "ARG1" 0) (om-load-inputfun (quote input-funbox) "number or list" "ARG2" 0))) (om-make-point 66 152) nil nil nil nil 1))) (when (fboundp (quote set-active)) (set-active box nil)) box) (let ((box (om-load-boxin "index" 1 (om-make-point 143 45) "" "index" nil nil))) (when (fboundp (quote set-active)) (set-active box nil)) box) (let ((box (om-load-boxin "row" 0 (om-make-point 5 45) "" "row" nil nil))) (when (fboundp (quote set-active)) (set-active box nil)) box))) (quote ((3 0 0 0 nil 0) (2 0 1 0 nil 0) (0 0 2 0 nil 0) (5 0 3 0 nil 0) (4 0 3 1 nil 0))) 7.01 nil "" (om-make-point 200 200) (om-make-point 500 400)) (quote ((om-load-inputfun (quote input-funbox) "" "row" nil) (om-load-inputfun (quote input-funbox) "" "index" nil))) (om-make-point 224 326) nil (list (list 6000 7100 6300 6400 6800 6700 6900 6500 6600 6100 6200 7000)) nil "P-forms"))) (when (fboundp (quote set-active)) (set-active box nil)) box) (let ((box (om-load-boxwithed1 (quote box-with-win) "mod12" (quote omloop) (quote ((om-load-inputfun (quote input-funbox) "" "pc-list" nil))) (om-make-point 168 204) nil nil nil (list (let ((box (om-load-boxcall (quote genfun) "collect" (quote listing) (quote ((om-load-inputfun (quote input-funbox) "anything" "DATA" nil))) (om-make-point 223 228) nil nil nil nil 3))) (when (fboundp (quote set-active)) (set-active box nil)) box) (let ((box (om-load-boxcall (quote bastype) "list" (quote list) (quote nil) (om-make-point 203 138) (om-make-point 24 30) 12 "12" nil))) (when (fboundp (quote set-active)) (set-active box nil)) box) (let ((box (om-load-boxcall (quote lispfun) "MOD" (quote mod) (quote ((om-load-inputfun (quote input-funbox) "X" "X" nil) (om-load-inputfun (quote input-funbox) "Y" "Y" nil))) (om-make-point 155 186) nil nil nil nil 1))) (when (fboundp (quote set-active)) (set-active box nil)) box) (let ((box (om-load-boxcall (quote genfun) "inlist" (quote listloop) (quote ((om-load-inputfun (quote input-funbox) "list to iterate" "LIST" nil))) (om-make-point 74 95) nil nil nil nil 1))) (when (fboundp (quote set-active)) (set-active box nil)) box) (let ((box (om-load-boxin "pc-list" 0 (om-make-point 5 45) "" "pc-list" nil nil))) (when (fboundp (quote set-active)) (set-active box nil)) box) (let ((box (om-load-seqbox "finally" (quote finaldo) (quote ((om-load-inputfun (quote input-funbox) "value to return" "VAL" nil))) (om-make-point 269 351) nil nil nil 0))) (when (fboundp (quote set-active)) (set-active box nil)) box) (let ((box (om-load-seqbox "eachTime" (quote loopdo) (quote ((om-load-inputfun (quote input-funbox) "operations to do" "OP" nil))) (om-make-point 169 351) nil nil nil 0))) (when (fboundp (quote set-active)) (set-active box nil)) box)) (quote ((2 0 0 0 nil 0) (3 0 2 0 nil 0) (1 0 2 1 nil 0) (4 0 3 0 nil 0) (0 1 5 0 nil 0) (0 0 6 0 nil 0))) 1 "mod12" nil))) (when (fboundp (quote set-active)) (set-active box nil)) box) (let ((box (om-load-boxcall (quote bastype) "list" (quote list) (quote nil) (om-make-point 154 132) (om-make-point 24 30) 12 "12" nil))) (when (fboundp (quote set-active)) (set-active box nil)) box) (let ((box (om-load-boxcall (quote genfun) "OM-" (quote om-) (quote ((om-load-inputfun (quote input-funbox) "number or list" "ARG1" 0) (om-load-inputfun (quote input-funbox) "number or list" "ARG2" 0))) (om-make-point 120 174) nil nil nil nil 1))) (when (fboundp (quote set-active)) (set-active box nil)) box) (let ((box (om-load-boxwithed1 (quote box-with-win) "opci" (quote omloop) (quote ((om-load-inputfun (quote input-funbox) "" "list" nil))) (om-make-point 89 104) nil nil nil (list (let ((box (om-load-boxcall (quote bastype) "list 2" (quote list) (quote nil) (om-make-point 155 350) (om-make-point 24 30) 12 "12" nil))) (when (fboundp (quote set-active)) (set-active box nil)) box) (let ((box (om-load-boxcall (quote lispfun) "MOD" (quote mod) (quote ((om-load-inputfun (quote input-funbox) "X" "X" nil) (om-load-inputfun (quote input-funbox) "Y" "Y" nil))) (om-make-point 119 396) nil nil nil nil 1))) (when (fboundp (quote set-active)) (set-active box nil)) box) (let ((box (om-load-boxcall (quote genfun) "OM-" (quote om-) (quote ((om-load-inputfun (quote input-funbox) "number or list" "ARG1" 0) (om-load-inputfun (quote input-funbox) "number or list" "ARG2" 0))) (om-make-point 63 346) nil nil nil nil 1))) (when (fboundp (quote set-active)) (set-active box nil)) box) (let ((box (om-load-boxcall (quote lispfun) "BUTLAST" (quote butlast) (quote ((om-load-inputfun (quote input-funbox) "LIST" "LIST" nil))) (om-make-point 18 121) nil nil nil nil 1))) (when (fboundp (quote set-active)) (set-active box nil)) box) (let ((box (om-load-boxcall (quote genfun) "collect" (quote listing) (quote ((om-load-inputfun (quote input-funbox) "anything" "DATA" nil))) (om-make-point 289 370) nil nil nil nil 3))) (when (fboundp (quote set-active)) (set-active box nil)) box) (let ((box (om-load-boxcall (quote lispfun) "NTH" (quote nth) (quote ((om-load-inputfun (quote input-funbox) "ORIG-N" "ORIG-N" nil) (om-load-inputfun (quote input-funbox) "ORIG-LIST" "ORIG-LIST" nil))) (om-make-point 240 231) nil nil nil nil 1))) (when (fboundp (quote set-active)) (set-active box nil)) box) (let ((box (om-load-boxcall (quote genfun) "count" (quote counter) (quote ((om-load-inputfun (quote input-funbox) "things to count" "SOMETHING" nil))) (om-make-point 160 171) nil nil nil nil 3))) (when (fboundp (quote set-active)) (set-active box nil)) box) (let ((box (om-load-boxcall (quote genfun) "inlist" (quote listloop) (quote ((om-load-inputfun (quote input-funbox) "list to iterate" "LIST" nil))) (om-make-point 4 186) nil nil nil nil 1))) (when (fboundp (quote set-active)) (set-active box nil)) box) (let ((box (om-load-boxin "list" 0 (om-make-point 5 45) "" "list" nil nil))) (when (fboundp (quote set-active)) (set-active box nil)) box) (let ((box (om-load-seqbox "finally" (quote finaldo) (quote ((om-load-inputfun (quote input-funbox) "value to return" "VAL" nil))) (om-make-point 352 482) nil nil nil 0))) (when (fboundp (quote set-active)) (set-active box nil)) box) (let ((box (om-load-seqbox "eachTime" (quote loopdo) (quote ((om-load-inputfun (quote input-funbox) "operations to do" "OP" nil))) (om-make-point 212 483) nil nil nil 0))) (when (fboundp (quote set-active)) (set-active box nil)) box)) (quote ((2 0 1 0 nil 0) (0 0 1 1 nil 0) (5 0 2 0 nil 0) (7 0 2 1 nil 0) (8 0 3 0 nil 0) (1 0 4 0 nil 0) (6 0 5 0 nil 0) (8 0 5 1 nil 0) (7 0 6 0 nil 0) (3 0 7 0 nil 0) (4 1 9 0 nil 0) (4 0 10 0 nil 0))) 1 "opci" nil))) (when (fboundp (quote set-active)) (set-active box nil)) box) (let ((box (om-load-boxin "row" 0 (om-make-point 5 45) "" "row" nil nil))) (when (fboundp (quote set-active)) (set-active box nil)) box))) (quote ((4 0 0 0 nil 0) (3 0 2 0 nil 0) (0 0 3 0 nil 0) (1 0 3 1 nil 0) (6 0 4 0 nil 0) (5 0 6 0 nil 0) (7 0 6 1 nil 0) (8 0 7 0 nil 0))) 7.01 nil "" (om-make-point 200 200) (om-make-point 500 400)) (quote ((om-load-inputfun (quote input-funbox) "" "row" nil) (om-load-inputfun (quote input-funbox) "" "input" nil))) (om-make-point 544 171) nil (list (list 6000 6100 6900 6800 6400 6500 6300 6700 6600 7100 7000 6200)) nil "I-forms"))) (when (fboundp (quote set-active)) (set-active box nil)) box) (let ((box (om-load-boxcall (quote abstraction) "RI-forms" (om-load-patch-abs1 "RI-forms" (quote ((let ((box (om-load-boxcall (quote abstraction) "P-forms->R-forms" (om-load-patch-abs1 "P-forms->R-forms" (quote ((let ((box (om-load-boxcall (quote lispfun) "REVERSE" (quote reverse) (quote ((om-load-inputfun (quote input-funbox) "SEQUENCE" "SEQUENCE" nil))) (om-make-point 275 343) nil nil nil nil 1))) (when (fboundp (quote set-active)) (set-active box nil)) box) (let ((box (om-load-boxwithed1 (quote box-with-win) "mod12" (quote omloop) (quote ((om-load-inputfun (quote input-funbox) "" "pc-list" nil))) (om-make-point 120 186) nil nil nil (list (let ((box (om-load-boxcall (quote genfun) "collect" (quote listing) (quote ((om-load-inputfun (quote input-funbox) "anything" "DATA" nil))) (om-make-point 223 228) nil nil nil nil 3))) (when (fboundp (quote set-active)) (set-active box nil)) box) (let ((box (om-load-boxcall (quote bastype) "list" (quote list) (quote nil) (om-make-point 203 138) (om-make-point 24 30) 12 "12" nil))) (when (fboundp (quote set-active)) (set-active box nil)) box) (let ((box (om-load-boxcall (quote lispfun) "MOD" (quote mod) (quote ((om-load-inputfun (quote input-funbox) "X" "X" nil) (om-load-inputfun (quote input-funbox) "Y" "Y" nil))) (om-make-point 155 186) nil nil nil nil 1))) (when (fboundp (quote set-active)) (set-active box nil)) box) (let ((box (om-load-boxcall (quote genfun) "inlist" (quote listloop) (quote ((om-load-inputfun (quote input-funbox) "list to iterate" "LIST" nil))) (om-make-point 74 95) nil nil nil nil 1))) (when (fboundp (quote set-active)) (set-active box nil)) box) (let ((box (om-load-boxin "pc-list" 0 (om-make-point 5 45) "" "pc-list" nil nil))) (when (fboundp (quote set-active)) (set-active box nil)) box) (let ((box (om-load-seqbox "finally" (quote finaldo) (quote ((om-load-inputfun (quote input-funbox) "value to return" "VAL" nil))) (om-make-point 269 351) nil nil nil 0))) (when (fboundp (quote set-active)) (set-active box nil)) box) (let ((box (om-load-seqbox "eachTime" (quote loopdo) (quote ((om-load-inputfun (quote input-funbox) "operations to do" "OP" nil))) (om-make-point 169 351) nil nil nil 0))) (when (fboundp (quote set-active)) (set-active box nil)) box)) (quote ((2 0 0 0 nil 0) (3 0 2 0 nil 0) (1 0 2 1 nil 0) (4 0 3 0 nil 0) (0 1 5 0 nil 0) (0 0 6 0 nil 0))) 1 "mod12" nil))) (when (fboundp (quote set-active)) (set-active box nil)) box) (let ((box (om-load-boxout "output" 0 (om-make-point 200 399) (quote ((om-load-inputfun (quote input-funbox) "" "out" nil))) "midics-list" nil))) (when (fboundp (quote set-active)) (set-active box nil)) box) (let ((box (om-load-boxcall (quote abstraction) "pc-list->mc-list" (om-load-patch-abs1 "pc-list->mc-list" (quote ((let ((box (om-load-boxin "pc-list" 0 (om-make-point 169 109) "" "pc-list" nil nil))) (when (fboundp (quote set-active)) (set-active box nil)) box) (let ((box (om-load-boxcall (quote lispfun) "MAPCAR" (quote mapcar) (quote ((om-load-inputfun (quote input-funbox) "FUNCTION" "FUNCTION" nil) (om-load-inputfun (quote input-funbox) "LIST" "LIST" nil))) (om-make-point 102 200) nil nil nil nil 1))) (when (fboundp (quote set-active)) (set-active box nil)) box) (let ((box (om-load-boxout "output" 0 (om-make-point 154 261) (quote ((om-load-inputfun (quote input-funbox) "" "out" nil))) "mc-list" nil))) (when (fboundp (quote set-active)) (set-active box nil)) box) (let ((box (om-load-boxcall (quote abstraction) "pc->mc" (om-load-patch-abs1 "pc->mc" (quote ((let ((box (om-load-boxout "output" 0 (om-make-point 115 235) (quote ((om-load-inputfun (quote input-funbox) "" "out" nil))) nil nil))) (when (fboundp (quote set-active)) (set-active box nil)) box) (let ((box (om-load-boxcall (quote bastype) "list 2" (quote list) (quote nil) (om-make-point 138 147) (om-make-point 31 30) 100 "100" nil))) (when (fboundp (quote set-active)) (set-active box nil)) box) (let ((box (om-load-boxcall (quote genfun) "OM*" (quote om*) (quote ((om-load-inputfun (quote input-funbox) "number or list" "ARG1" 0) (om-load-inputfun (quote input-funbox) "number or list" "ARG2" 0))) (om-make-point 105 186) nil nil nil nil 1))) (when (fboundp (quote set-active)) (set-active box nil)) box) (let ((box (om-load-boxcall (quote bastype) "list" (quote list) (quote nil) (om-make-point 84 74) (om-make-point 24 30) 60 "60" nil))) (when (fboundp (quote set-active)) (set-active box nil)) box) (let ((box (om-load-boxcall (quote genfun) "OM+" (quote om+) (quote ((om-load-inputfun (quote input-funbox) "number or list" "ARG1" 0) (om-load-inputfun (quote input-funbox) "number or list" "ARG2" 0))) (om-make-point 50 142) nil nil nil nil 1))) (when (fboundp (quote set-active)) (set-active box nil)) box) (let ((box (om-load-boxin "input" 0 (om-make-point 5 45) "" nil nil nil))) (when (fboundp (quote set-active)) (set-active box nil)) box))) (quote ((2 0 0 0 nil 0) (4 0 2 0 nil 0) (1 0 2 1 nil 0) (5 0 4 0 nil 0) (3 0 4 1 nil 0))) 7.01 nil "" (om-make-point 200 200) (om-make-point 500 400)) (quote ((om-load-inputfun (quote input-funbox) "" "input" nil))) (om-make-point 68 102) nil (list nil) "l" "pc->mc"))) (when (fboundp (quote set-active)) (set-active box nil)) box))) (quote ((3 0 1 0 nil 0) (0 0 1 1 nil 0) (1 0 2 0 nil 0))) 7.01 nil "" (om-make-point 200 200) (om-make-point 500 400)) (quote ((om-load-inputfun (quote input-funbox) "" "input" nil))) (om-make-point 184 266) nil (list (list 7100 7000 6200 6300 6700 6600 6800 6400 6500 6000 6100 6900)) nil "pc-list->mc-list"))) (when (fboundp (quote set-active)) (set-active box nil)) box) (let ((box (om-load-boxcall (quote genfun) "OM+" (quote om+) (quote ((om-load-inputfun (quote input-funbox) "number or list" "ARG1" 0) (om-load-inputfun (quote input-funbox) "number or list" "ARG2" 0))) (om-make-point 66 152) nil nil nil nil 1))) (when (fboundp (quote set-active)) (set-active box nil)) box) (let ((box (om-load-boxin "index" 1 (om-make-point 143 45) "" "index" nil nil))) (when (fboundp (quote set-active)) (set-active box nil)) box) (let ((box (om-load-boxin "row" 0 (om-make-point 5 45) "" "row" nil nil))) (when (fboundp (quote set-active)) (set-active box nil)) box))) (quote ((3 0 0 0 nil 0) (4 0 1 0 nil 0) (0 0 2 0 nil 0) (1 0 3 0 nil 0) (6 0 4 0 nil 0) (5 0 4 1 nil 0))) 7.01 nil "" (om-make-point 200 200) (om-make-point 500 400)) (quote ((om-load-inputfun (quote input-funbox) "" "row" nil) (om-load-inputfun (quote input-funbox) "" "index" nil))) (om-make-point 158 347) nil (list (list 6000 7100 6300 6400 6800 6700 6900 6500 6600 6100 6200 7000)) nil "P-forms->R-forms"))) (when (fboundp (quote set-active)) (set-active box nil)) box) (let ((box (om-load-boxcall (quote abstraction) "T0-of-row" (om-load-patch-abs1 "T0-of-row" (quote ((let ((box (om-load-boxout "output" 0 (om-make-point 159 286) (quote ((om-load-inputfun (quote input-funbox) "" "out" nil))) nil nil))) (when (fboundp (quote set-active)) (set-active box nil)) box) (let ((box (om-load-boxwithed1 (quote box-with-win) "convert-mod-12" (quote omloop) (quote ((om-load-inputfun (quote input-funbox) "" "list" nil))) (om-make-point 78 217) nil nil nil (list (let ((box (om-load-boxcall (quote genfun) "collect" (quote listing) (quote ((om-load-inputfun (quote input-funbox) "anything" "DATA" nil))) (om-make-point 227 158) (om-make-point 92 59) nil nil nil 3))) (when (fboundp (quote set-active)) (set-active box nil)) box) (let ((box (om-load-boxcall (quote bastype) "list 2" (quote list) (quote nil) (om-make-point 194 101) (om-make-point 24 30) 12 "12" nil))) (when (fboundp (quote set-active)) (set-active box nil)) box) (let ((box (om-load-boxcall (quote lispfun) "MOD" (quote mod) (quote ((om-load-inputfun (quote input-funbox) "X" "X" nil) (om-load-inputfun (quote input-funbox) "Y" "Y" nil))) (om-make-point 144 132) nil nil nil nil 1))) (when (fboundp (quote set-active)) (set-active box nil)) box) (let ((box (om-load-boxcall (quote genfun) "inlist" (quote listloop) (quote ((om-load-inputfun (quote input-funbox) "list to iterate" "LIST" nil))) (om-make-point 67 67) nil nil nil nil 1))) (when (fboundp (quote set-active)) (set-active box nil)) box) (let ((box (om-load-boxin "list" 0 (om-make-point 5 45) "" "list" nil nil))) (when (fboundp (quote set-active)) (set-active box nil)) box) (let ((box (om-load-seqbox "finally" (quote finaldo) (quote ((om-load-inputfun (quote input-funbox) "value to return" "VAL" nil))) (om-make-point 300 250) nil nil nil 0))) (when (fboundp (quote set-active)) (set-active box nil)) box) (let ((box (om-load-seqbox "eachTime" (quote loopdo) (quote ((om-load-inputfun (quote input-funbox) "operations to do" "OP" nil))) (om-make-point 200 250) nil nil nil 0))) (when (fboundp (quote set-active)) (set-active box nil)) box)) (quote ((2 0 0 0 nil 0) (3 0 2 0 nil 0) (1 0 2 1 nil 0) (4 0 3 0 nil 0) (0 1 5 0 nil 0) (0 0 6 0 nil 0))) 1 "convert-mod-12" nil))) (when (fboundp (quote set-active)) (set-active box nil)) box) (let ((box (om-load-boxcall (quote genfun) "DX->X" (quote dx->x) (quote ((om-load-inputfun (quote input-funbox) "a number" "START" 0) (om-load-inputfun (quote input-funbox) "a list of numbers" "LIST" (list 1 1)))) (om-make-point 37 150) nil nil nil nil 1))) (when (fboundp (quote set-active)) (set-active box nil)) box) (let ((box (om-load-boxcomment "comment" (om-make-point 61 30) (quote "Find T0") "" (om-make-point 89 74) nil (om-make-color 0 0 0) (om-make-font "Verdana" 12 :family "Verdana" :style (quote (:plain)) :mode (quote nil))))) (when (fboundp (quote set-active)) (set-active box nil)) box) (let ((box (om-load-boxin "input" 0 (om-make-point 5 45) "" nil nil nil))) (when (fboundp (quote set-active)) (set-active box nil)) box))) (quote ((1 0 0 0 nil 0) (2 0 1 0 nil 0) (4 0 2 1 nil 0))) 7.01 nil "" (om-make-point 200 200) (om-make-point 500 400)) (quote ((om-load-inputfun (quote input-funbox) "" "input" nil))) (om-make-point 78 275) nil (list (list 0 11 3 4 8 7 9 5 6 1 2 10)) nil "T0-of-row"))) (when (fboundp (quote set-active)) (set-active box nil)) box) (let ((box (om-load-boxin "index" 1 (om-make-point 309 258) "" "index" nil nil))) (when (fboundp (quote set-active)) (set-active box nil)) box) (let ((box (om-load-boxout "output" 0 (om-make-point 168 425) (quote ((om-load-inputfun (quote input-funbox) "" "out" nil))) "list-of-midics" nil))) (when (fboundp (quote set-active)) (set-active box nil)) box) (let ((box (om-load-boxwithed1 (quote box-with-win) "mod12" (quote omloop) (quote ((om-load-inputfun (quote input-funbox) "" "pc-list" nil))) (om-make-point 168 204) nil nil nil (list (let ((box (om-load-boxcall (quote genfun) "collect" (quote listing) (quote ((om-load-inputfun (quote input-funbox) "anything" "DATA" nil))) (om-make-point 223 228) nil nil nil nil 3))) (when (fboundp (quote set-active)) (set-active box nil)) box) (let ((box (om-load-boxcall (quote bastype) "list" (quote list) (quote nil) (om-make-point 203 138) (om-make-point 24 30) 12 "12" nil))) (when (fboundp (quote set-active)) (set-active box nil)) box) (let ((box (om-load-boxcall (quote lispfun) "MOD" (quote mod) (quote ((om-load-inputfun (quote input-funbox) "X" "X" nil) (om-load-inputfun (quote input-funbox) "Y" "Y" nil))) (om-make-point 155 186) nil nil nil nil 1))) (when (fboundp (quote set-active)) (set-active box nil)) box) (let ((box (om-load-boxcall (quote genfun) "inlist" (quote listloop) (quote ((om-load-inputfun (quote input-funbox) "list to iterate" "LIST" nil))) (om-make-point 74 95) nil nil nil nil 1))) (when (fboundp (quote set-active)) (set-active box nil)) box) (let ((box (om-load-boxin "pc-list" 0 (om-make-point 5 45) "" "pc-list" nil nil))) (when (fboundp (quote set-active)) (set-active box nil)) box) (let ((box (om-load-seqbox "finally" (quote finaldo) (quote ((om-load-inputfun (quote input-funbox) "value to return" "VAL" nil))) (om-make-point 269 351) nil nil nil 0))) (when (fboundp (quote set-active)) (set-active box nil)) box) (let ((box (om-load-seqbox "eachTime" (quote loopdo) (quote ((om-load-inputfun (quote input-funbox) "operations to do" "OP" nil))) (om-make-point 169 351) nil nil nil 0))) (when (fboundp (quote set-active)) (set-active box nil)) box)) (quote ((2 0 0 0 nil 0) (3 0 2 0 nil 0) (1 0 2 1 nil 0) (4 0 3 0 nil 0) (0 1 5 0 nil 0) (0 0 6 0 nil 0))) 1 "mod12" nil))) (when (fboundp (quote set-active)) (set-active box nil)) box) (let ((box (om-load-boxcall (quote bastype) "list" (quote list) (quote nil) (om-make-point 154 132) (om-make-point 24 30) 12 "12" nil))) (when (fboundp (quote set-active)) (set-active box nil)) box) (let ((box (om-load-boxcall (quote genfun) "OM-" (quote om-) (quote ((om-load-inputfun (quote input-funbox) "number or list" "ARG1" 0) (om-load-inputfun (quote input-funbox) "number or list" "ARG2" 0))) (om-make-point 120 174) nil nil nil nil 1))) (when (fboundp (quote set-active)) (set-active box nil)) box) (let ((box (om-load-boxwithed1 (quote box-with-win) "opci" (quote omloop) (quote ((om-load-inputfun (quote input-funbox) "" "list" nil))) (om-make-point 89 104) nil nil nil (list (let ((box (om-load-boxcall (quote bastype) "list 2" (quote list) (quote nil) (om-make-point 155 350) (om-make-point 24 30) 12 "12" nil))) (when (fboundp (quote set-active)) (set-active box nil)) box) (let ((box (om-load-boxcall (quote lispfun) "MOD" (quote mod) (quote ((om-load-inputfun (quote input-funbox) "X" "X" nil) (om-load-inputfun (quote input-funbox) "Y" "Y" nil))) (om-make-point 119 396) nil nil nil nil 1))) (when (fboundp (quote set-active)) (set-active box nil)) box) (let ((box (om-load-boxcall (quote genfun) "OM-" (quote om-) (quote ((om-load-inputfun (quote input-funbox) "number or list" "ARG1" 0) (om-load-inputfun (quote input-funbox) "number or list" "ARG2" 0))) (om-make-point 63 346) nil nil nil nil 1))) (when (fboundp (quote set-active)) (set-active box nil)) box) (let ((box (om-load-boxcall (quote lispfun) "BUTLAST" (quote butlast) (quote ((om-load-inputfun (quote input-funbox) "LIST" "LIST" nil))) (om-make-point 18 121) nil nil nil nil 1))) (when (fboundp (quote set-active)) (set-active box nil)) box) (let ((box (om-load-boxcall (quote genfun) "collect" (quote listing) (quote ((om-load-inputfun (quote input-funbox) "anything" "DATA" nil))) (om-make-point 289 370) nil nil nil nil 3))) (when (fboundp (quote set-active)) (set-active box nil)) box) (let ((box (om-load-boxcall (quote lispfun) "NTH" (quote nth) (quote ((om-load-inputfun (quote input-funbox) "ORIG-N" "ORIG-N" nil) (om-load-inputfun (quote input-funbox) "ORIG-LIST" "ORIG-LIST" nil))) (om-make-point 240 231) nil nil nil nil 1))) (when (fboundp (quote set-active)) (set-active box nil)) box) (let ((box (om-load-boxcall (quote genfun) "count" (quote counter) (quote ((om-load-inputfun (quote input-funbox) "things to count" "SOMETHING" nil))) (om-make-point 160 171) nil nil nil nil 3))) (when (fboundp (quote set-active)) (set-active box nil)) box) (let ((box (om-load-boxcall (quote genfun) "inlist" (quote listloop) (quote ((om-load-inputfun (quote input-funbox) "list to iterate" "LIST" nil))) (om-make-point 4 186) nil nil nil nil 1))) (when (fboundp (quote set-active)) (set-active box nil)) box) (let ((box (om-load-boxin "list" 0 (om-make-point 5 45) "" "list" nil nil))) (when (fboundp (quote set-active)) (set-active box nil)) box) (let ((box (om-load-seqbox "finally" (quote finaldo) (quote ((om-load-inputfun (quote input-funbox) "value to return" "VAL" nil))) (om-make-point 352 482) nil nil nil 0))) (when (fboundp (quote set-active)) (set-active box nil)) box) (let ((box (om-load-seqbox "eachTime" (quote loopdo) (quote ((om-load-inputfun (quote input-funbox) "operations to do" "OP" nil))) (om-make-point 212 483) nil nil nil 0))) (when (fboundp (quote set-active)) (set-active box nil)) box)) (quote ((2 0 1 0 nil 0) (0 0 1 1 nil 0) (5 0 2 0 nil 0) (7 0 2 1 nil 0) (8 0 3 0 nil 0) (1 0 4 0 nil 0) (6 0 5 0 nil 0) (8 0 5 1 nil 0) (7 0 6 0 nil 0) (3 0 7 0 nil 0) (4 1 9 0 nil 0) (4 0 10 0 nil 0))) 1 "opci" nil))) (when (fboundp (quote set-active)) (set-active box nil)) box) (let ((box (om-load-boxin "row" 0 (om-make-point 5 45) "" "row" nil nil))) (when (fboundp (quote set-active)) (set-active box nil)) box))) (quote ((1 0 0 0 nil 0) (2 0 0 1 nil 0) (4 0 1 0 nil 0) (0 0 3 0 nil 0) (6 0 4 0 nil 0) (5 0 6 0 nil 0) (7 0 6 1 nil 0) (8 0 7 0 nil 0))) 7.01 nil "" (om-make-point 200 200) (om-make-point 500 400)) (quote ((om-load-inputfun (quote input-funbox) "" "row" nil) (om-load-inputfun (quote input-funbox) "" "input" nil))) (om-make-point 541 252) nil (list (list 6200 7000 7100 6600 6700 6300 6500 6400 6800 6900 6100 6000)) nil "RI-forms"))) (when (fboundp (quote set-active)) (set-active box nil)) box) (let ((box (om-load-boxcall (quote abstraction) "P-forms" (om-load-patch-abs1 "P-forms" (quote ((let ((box (om-load-boxwithed1 (quote box-with-win) "mod12" (quote omloop) (quote ((om-load-inputfun (quote input-funbox) "" "pc-list" nil))) (om-make-point 120 186) nil nil nil (list (let ((box (om-load-boxcall (quote genfun) "collect" (quote listing) (quote ((om-load-inputfun (quote input-funbox) "anything" "DATA" nil))) (om-make-point 223 228) nil nil nil nil 3))) (when (fboundp (quote set-active)) (set-active box nil)) box) (let ((box (om-load-boxcall (quote bastype) "list" (quote list) (quote nil) (om-make-point 203 138) (om-make-point 24 30) 12 "12" nil))) (when (fboundp (quote set-active)) (set-active box nil)) box) (let ((box (om-load-boxcall (quote lispfun) "MOD" (quote mod) (quote ((om-load-inputfun (quote input-funbox) "X" "X" nil) (om-load-inputfun (quote input-funbox) "Y" "Y" nil))) (om-make-point 155 186) nil nil nil nil 1))) (when (fboundp (quote set-active)) (set-active box nil)) box) (let ((box (om-load-boxcall (quote genfun) "inlist" (quote listloop) (quote ((om-load-inputfun (quote input-funbox) "list to iterate" "LIST" nil))) (om-make-point 74 95) nil nil nil nil 1))) (when (fboundp (quote set-active)) (set-active box nil)) box) (let ((box (om-load-boxin "pc-list" 0 (om-make-point 5 45) "" "pc-list" nil nil))) (when (fboundp (quote set-active)) (set-active box nil)) box) (let ((box (om-load-seqbox "finally" (quote finaldo) (quote ((om-load-inputfun (quote input-funbox) "value to return" "VAL" nil))) (om-make-point 269 351) nil nil nil 0))) (when (fboundp (quote set-active)) (set-active box nil)) box) (let ((box (om-load-seqbox "eachTime" (quote loopdo) (quote ((om-load-inputfun (quote input-funbox) "operations to do" "OP" nil))) (om-make-point 169 351) nil nil nil 0))) (when (fboundp (quote set-active)) (set-active box nil)) box)) (quote ((2 0 0 0 nil 0) (3 0 2 0 nil 0) (1 0 2 1 nil 0) (4 0 3 0 nil 0) (0 1 5 0 nil 0) (0 0 6 0 nil 0))) 1 "mod12" nil))) (when (fboundp (quote set-active)) (set-active box nil)) box) (let ((box (om-load-boxout "output" 0 (om-make-point 168 365) (quote ((om-load-inputfun (quote input-funbox) "" "out" nil))) "midics-list" nil))) (when (fboundp (quote set-active)) (set-active box nil)) box) (let ((box (om-load-boxcall (quote abstraction) "pc-list->mc-list" (om-load-patch-abs1 "pc-list->mc-list" (quote ((let ((box (om-load-boxin "pc-list" 0 (om-make-point 169 109) "" "pc-list" nil nil))) (when (fboundp (quote set-active)) (set-active box nil)) box) (let ((box (om-load-boxcall (quote lispfun) "MAPCAR" (quote mapcar) (quote ((om-load-inputfun (quote input-funbox) "FUNCTION" "FUNCTION" nil) (om-load-inputfun (quote input-funbox) "LIST" "LIST" nil))) (om-make-point 102 200) nil nil nil nil 1))) (when (fboundp (quote set-active)) (set-active box nil)) box) (let ((box (om-load-boxout "output" 0 (om-make-point 154 261) (quote ((om-load-inputfun (quote input-funbox) "" "out" nil))) "mc-list" nil))) (when (fboundp (quote set-active)) (set-active box nil)) box) (let ((box (om-load-boxcall (quote abstraction) "pc->mc" (om-load-patch-abs1 "pc->mc" (quote ((let ((box (om-load-boxout "output" 0 (om-make-point 115 235) (quote ((om-load-inputfun (quote input-funbox) "" "out" nil))) nil nil))) (when (fboundp (quote set-active)) (set-active box nil)) box) (let ((box (om-load-boxcall (quote bastype) "list 2" (quote list) (quote nil) (om-make-point 138 147) (om-make-point 31 30) 100 "100" nil))) (when (fboundp (quote set-active)) (set-active box nil)) box) (let ((box (om-load-boxcall (quote genfun) "OM*" (quote om*) (quote ((om-load-inputfun (quote input-funbox) "number or list" "ARG1" 0) (om-load-inputfun (quote input-funbox) "number or list" "ARG2" 0))) (om-make-point 105 186) nil nil nil nil 1))) (when (fboundp (quote set-active)) (set-active box nil)) box) (let ((box (om-load-boxcall (quote bastype) "list" (quote list) (quote nil) (om-make-point 84 74) (om-make-point 24 30) 60 "60" nil))) (when (fboundp (quote set-active)) (set-active box nil)) box) (let ((box (om-load-boxcall (quote genfun) "OM+" (quote om+) (quote ((om-load-inputfun (quote input-funbox) "number or list" "ARG1" 0) (om-load-inputfun (quote input-funbox) "number or list" "ARG2" 0))) (om-make-point 50 142) nil nil nil nil 1))) (when (fboundp (quote set-active)) (set-active box nil)) box) (let ((box (om-load-boxin "input" 0 (om-make-point 5 45) "" nil nil nil))) (when (fboundp (quote set-active)) (set-active box nil)) box))) (quote ((2 0 0 0 nil 0) (4 0 2 0 nil 0) (1 0 2 1 nil 0) (5 0 4 0 nil 0) (3 0 4 1 nil 0))) 7.01 nil "" (om-make-point 200 200) (om-make-point 500 400)) (quote ((om-load-inputfun (quote input-funbox) "" "input" nil))) (om-make-point 68 102) nil (list nil) "l" "pc->mc"))) (when (fboundp (quote set-active)) (set-active box nil)) box))) (quote ((3 0 1 0 nil 0) (0 0 1 1 nil 0) (1 0 2 0 nil 0))) 7.01 nil "" (om-make-point 200 200) (om-make-point 500 400)) (quote ((om-load-inputfun (quote input-funbox) "" "input" nil))) (om-make-point 183 278) nil (list (list 7100 7000 6200 6300 6700 6600 6800 6400 6500 6000 6100 6900)) nil "pc-list->mc-list"))) (when (fboundp (quote set-active)) (set-active box nil)) box) (let ((box (om-load-boxcall (quote genfun) "OM+" (quote om+) (quote ((om-load-inputfun (quote input-funbox) "number or list" "ARG1" 0) (om-load-inputfun (quote input-funbox) "number or list" "ARG2" 0))) (om-make-point 66 152) nil nil nil nil 1))) (when (fboundp (quote set-active)) (set-active box nil)) box) (let ((box (om-load-boxin "index" 1 (om-make-point 143 45) "" "index" nil nil))) (when (fboundp (quote set-active)) (set-active box nil)) box) (let ((box (om-load-boxin "row" 0 (om-make-point 5 45) "" "row" nil nil))) (when (fboundp (quote set-active)) (set-active box nil)) box))) (quote ((3 0 0 0 nil 0) (2 0 1 0 nil 0) (0 0 2 0 nil 0) (5 0 3 0 nil 0) (4 0 3 1 nil 0))) 7.01 nil "" (om-make-point 200 200) (om-make-point 500 400)) (quote ((om-load-inputfun (quote input-funbox) "" "row" nil) (om-load-inputfun (quote input-funbox) "" "index" nil))) (om-make-point 535 13) nil (list (list 6000 7100 6300 6400 6800 6700 6900 6500 6600 6100 6200 7000)) nil "P-forms"))) (when (fboundp (quote set-active)) (set-active box nil)) box) (let ((box (om-load-boxcall (quote abstraction) "T0-of-row" (om-load-patch-abs1 "T0-of-row" (quote ((let ((box (om-load-boxout "output" 0 (om-make-point 159 286) (quote ((om-load-inputfun (quote input-funbox) "" "out" nil))) nil nil))) (when (fboundp (quote set-active)) (set-active box nil)) box) (let ((box (om-load-boxwithed1 (quote box-with-win) "convert-mod-12" (quote omloop) (quote ((om-load-inputfun (quote input-funbox) "" "list" nil))) (om-make-point 78 217) nil nil nil (list (let ((box (om-load-boxcall (quote genfun) "collect" (quote listing) (quote ((om-load-inputfun (quote input-funbox) "anything" "DATA" nil))) (om-make-point 227 158) (om-make-point 92 59) nil nil nil 3))) (when (fboundp (quote set-active)) (set-active box nil)) box) (let ((box (om-load-boxcall (quote bastype) "list 2" (quote list) (quote nil) (om-make-point 194 101) (om-make-point 24 30) 12 "12" nil))) (when (fboundp (quote set-active)) (set-active box nil)) box) (let ((box (om-load-boxcall (quote lispfun) "MOD" (quote mod) (quote ((om-load-inputfun (quote input-funbox) "X" "X" nil) (om-load-inputfun (quote input-funbox) "Y" "Y" nil))) (om-make-point 144 132) nil nil nil nil 1))) (when (fboundp (quote set-active)) (set-active box nil)) box) (let ((box (om-load-boxcall (quote genfun) "inlist" (quote listloop) (quote ((om-load-inputfun (quote input-funbox) "list to iterate" "LIST" nil))) (om-make-point 67 67) nil nil nil nil 1))) (when (fboundp (quote set-active)) (set-active box nil)) box) (let ((box (om-load-boxin "list" 0 (om-make-point 5 45) "" "list" nil nil))) (when (fboundp (quote set-active)) (set-active box nil)) box) (let ((box (om-load-seqbox "finally" (quote finaldo) (quote ((om-load-inputfun (quote input-funbox) "value to return" "VAL" nil))) (om-make-point 300 250) nil nil nil 0))) (when (fboundp (quote set-active)) (set-active box nil)) box) (let ((box (om-load-seqbox "eachTime" (quote loopdo) (quote ((om-load-inputfun (quote input-funbox) "operations to do" "OP" nil))) (om-make-point 200 250) nil nil nil 0))) (when (fboundp (quote set-active)) (set-active box nil)) box)) (quote ((2 0 0 0 nil 0) (3 0 2 0 nil 0) (1 0 2 1 nil 0) (4 0 3 0 nil 0) (0 1 5 0 nil 0) (0 0 6 0 nil 0))) 1 "convert-mod-12" nil))) (when (fboundp (quote set-active)) (set-active box nil)) box) (let ((box (om-load-boxcall (quote genfun) "DX->X" (quote dx->x) (quote ((om-load-inputfun (quote input-funbox) "a number" "START" 0) (om-load-inputfun (quote input-funbox) "a list of numbers" "LIST" (list 1 1)))) (om-make-point 37 150) nil nil nil nil 1))) (when (fboundp (quote set-active)) (set-active box nil)) box) (let ((box (om-load-boxcomment "comment" (om-make-point 61 30) (quote "Find T0") "" (om-make-point 89 74) nil (om-make-color 0 0 0) (om-make-font "Verdana" 12 :family "Verdana" :style (quote (:plain)) :mode (quote nil))))) (when (fboundp (quote set-active)) (set-active box nil)) box) (let ((box (om-load-boxin "input" 0 (om-make-point 5 45) "" nil nil nil))) (when (fboundp (quote set-active)) (set-active box nil)) box))) (quote ((1 0 0 0 nil 0) (2 0 1 0 nil 0) (4 0 2 1 nil 0))) 7.01 nil "" (om-make-point 200 200) (om-make-point 500 400)) (quote ((om-load-inputfun (quote input-funbox) "" "input" nil))) (om-make-point 104 242) nil (list (list 0 11 3 4 8 7 9 5 6 1 2 10)) nil "T0-of-row"))) (when (fboundp (quote set-active)) (set-active box nil)) box) (let ((box (om-load-boxwithed1 (quote box-with-win) "opci" (quote omloop) (quote ((om-load-inputfun (quote input-funbox) "" "list" nil))) (om-make-point 144 172) nil nil nil (list (let ((box (om-load-boxcall (quote bastype) "list 2" (quote list) (quote nil) (om-make-point 155 350) (om-make-point 24 30) 12 "12" nil))) (when (fboundp (quote set-active)) (set-active box nil)) box) (let ((box (om-load-boxcall (quote lispfun) "MOD" (quote mod) (quote ((om-load-inputfun (quote input-funbox) "X" "X" nil) (om-load-inputfun (quote input-funbox) "Y" "Y" nil))) (om-make-point 119 396) nil nil nil nil 1))) (when (fboundp (quote set-active)) (set-active box nil)) box) (let ((box (om-load-boxcall (quote genfun) "OM-" (quote om-) (quote ((om-load-inputfun (quote input-funbox) "number or list" "ARG1" 0) (om-load-inputfun (quote input-funbox) "number or list" "ARG2" 0))) (om-make-point 63 346) nil nil nil nil 1))) (when (fboundp (quote set-active)) (set-active box nil)) box) (let ((box (om-load-boxcall (quote lispfun) "BUTLAST" (quote butlast) (quote ((om-load-inputfun (quote input-funbox) "LIST" "LIST" nil))) (om-make-point 18 121) nil nil nil nil 1))) (when (fboundp (quote set-active)) (set-active box nil)) box) (let ((box (om-load-boxcall (quote genfun) "collect" (quote listing) (quote ((om-load-inputfun (quote input-funbox) "anything" "DATA" nil))) (om-make-point 289 370) nil nil nil nil 3))) (when (fboundp (quote set-active)) (set-active box nil)) box) (let ((box (om-load-boxcall (quote lispfun) "NTH" (quote nth) (quote ((om-load-inputfun (quote input-funbox) "ORIG-N" "ORIG-N" nil) (om-load-inputfun (quote input-funbox) "ORIG-LIST" "ORIG-LIST" nil))) (om-make-point 240 231) nil nil nil nil 1))) (when (fboundp (quote set-active)) (set-active box nil)) box) (let ((box (om-load-boxcall (quote genfun) "count" (quote counter) (quote ((om-load-inputfun (quote input-funbox) "things to count" "SOMETHING" nil))) (om-make-point 160 171) nil nil nil nil 3))) (when (fboundp (quote set-active)) (set-active box nil)) box) (let ((box (om-load-boxcall (quote genfun) "inlist" (quote listloop) (quote ((om-load-inputfun (quote input-funbox) "list to iterate" "LIST" nil))) (om-make-point 4 186) nil nil nil nil 1))) (when (fboundp (quote set-active)) (set-active box nil)) box) (let ((box (om-load-boxin "list" 0 (om-make-point 5 45) "" "list" nil nil))) (when (fboundp (quote set-active)) (set-active box nil)) box) (let ((box (om-load-seqbox "finally" (quote finaldo) (quote ((om-load-inputfun (quote input-funbox) "value to return" "VAL" nil))) (om-make-point 352 482) nil nil nil 0))) (when (fboundp (quote set-active)) (set-active box nil)) box) (let ((box (om-load-seqbox "eachTime" (quote loopdo) (quote ((om-load-inputfun (quote input-funbox) "operations to do" "OP" nil))) (om-make-point 212 483) nil nil nil 0))) (when (fboundp (quote set-active)) (set-active box nil)) box)) (quote ((2 0 1 0 nil 0) (0 0 1 1 nil 0) (5 0 2 0 nil 0) (7 0 2 1 nil 0) (8 0 3 0 nil 0) (1 0 4 0 nil 0) (6 0 5 0 nil 0) (8 0 5 1 nil 0) (7 0 6 0 nil 0) (3 0 7 0 nil 0) (4 1 9 0 nil 0) (4 0 10 0 nil 0))) 1 "opci" nil))) (when (fboundp (quote set-active)) (set-active box nil)) box) (let ((box (om-load-boxcall (quote lispfun) "NTH" (quote nth) (quote ((om-load-inputfun (quote input-funbox) "ORIG-N" "ORIG-N" nil) (om-load-inputfun (quote input-funbox) "ORIG-LIST" "ORIG-LIST" nil))) (om-make-point 167 116) (om-make-point 50 43) nil nil nil 1))) (when (fboundp (quote set-active)) (set-active box nil)) box) (let ((box (om-load-boxcall (quote bastype) "list" (quote list) (quote nil) (om-make-point 126 82) (om-make-point 27 29) 0 "0" nil))) (when (fboundp (quote set-active)) (set-active box nil)) box) (let ((box (om-load-editor-box1 "TEXTFILE" (quote textfile) (quote ((om-load-inputfun (quote input-funbox) "object" "self" nil) (om-load-inputfun (quote input-funbox) "input data or text" "exp-list" nil) (om-load-inputfunmenu1 (quote input-funmenu) "append or supersede" "ed-mode" "supersede" (list (list "append" "append") (list "supersede" "supersede"))) (om-load-inputfunmenu1 (quote input-funmenu) "eval interpretation mode" "eval-mode" "data" (list (list "text" "text") (list "data list" "data") (list "list" "list") (list "value" "value"))))) (om-make-point 149 32) (om-make-point 243 38) (load-buffer-textfile (quote ("11 10 2 3 7 6 8 4 5 0 1 9; Webern Op. 24" "" "" "" "" "" "" "" "")) (quote textfile) "supersede" "data") "x" nil (pairlis (quote (winsize winpos)) (list (om-make-point 335 275) (om-make-point 10 40))) t nil nil nil))) (when (fboundp (quote set-active)) (set-active box nil)) box))) (quote ((0 0 1 0 nil 0) (3 0 1 1 nil 0) (5 0 3 0 nil 0) (2 0 3 1 nil 0) (12 0 5 0 nil 0) (7 0 5 1 nil 0) (6 0 7 1 nil 0) (13 0 12 0 nil 0) (14 0 13 0 nil 0) (15 0 14 0 nil 0) (16 1 14 1 nil 0))) nil 7.01))
