; OM File Header - Saved 2023/03/27 09:39:55
; (7.01 :patc (om-make-point 280 10) (om-make-point 0 38) (om-make-point 1512 916) "" 183 0 nil "2023/03/27 09:39:55")
; End File Header
; External resources 
; (list (list (quote :abstraction) "#P\"intro-to-recursion-step.omp\""))
(in-package :om)(load-lib-for (quote nil))(setf *om-current-persistent* (om-load-patch1 "intro-to-recursion-steppatch" (quote ((let ((box (om-load-editor-box1 "MULTI-SEQ" (quote multi-seq) (quote ((om-load-inputfun (quote input-funbox) "object" "self" nil) (om-load-inputfun (quote input-funbox) "list of CHORD-SEQ objects" "chord-seqs" (list (let ((newobj (when (find-class (quote chord-seq) nil) (make-instance (quote chord-seq) :lmidic (quote ((6000))) :lonset (quote (0 1000)) :ldur (quote ((1000))) :lvel (quote ((100))) :loffset (quote ((0))) :lchan (quote ((1))) :legato 0)))) (load-port-info newobj (quote ((0)))) (init-mus-color newobj (quote nil)) (set-extra-pairs newobj (quote nil)) (set-patch-pairs newobj (quote nil)) (set-name newobj nil) (set-tonalite newobj nil) newobj))))) (om-make-point 665 412) (om-make-point 100 70) (if (find-class (quote multi-seq) nil) (let ((newobj (make-instance (quote multi-seq) :chord-seqs (list (let ((newobj (when (find-class (quote chord-seq) nil) (make-instance (quote chord-seq) :lmidic (quote ((6250) (6000) (6250) (6500) (6750) (6500) (6750) (7000) (7250) (7000) (6750) (7000) (7250) (7500) (7250) (7500) (7250) (7000) (7250) (7500) (7250) (7000) (6750) (6500) (6750) (7000) (7250) (7500) (7750) (8000) (8000) (8000) (8000) (8000) (8000) (8000) (8000) (8000))) :lonset (quote (0 125 250 375 500 625 750 875 1000 1125 1250 1375 1500 1625 1750 1875 2000 2125 2250 2375 2500 2625 2750 2875 3000 3125 3250 3375 3500 3625 3750 3875 4000 4125 4250 4375 4500 4625 5625)) :ldur (quote ((1000) (1000) (1000) (1000) (1000) (1000) (1000) (1000) (1000) (1000) (1000) (1000) (1000) (1000) (1000) (1000) (1000) (1000) (1000) (1000) (1000) (1000) (1000) (1000) (1000) (1000) (1000) (1000) (1000) (1000) (1000) (1000) (1000) (1000) (1000) (1000) (1000) (1000))) :lvel (quote ((50) (50) (50) (50) (50) (50) (50) (50) (50) (50) (50) (50) (50) (50) (50) (50) (50) (50) (50) (50) (50) (50) (50) (50) (50) (50) (50) (50) (50) (50) (50) (50) (50) (50) (50) (50) (50) (50))) :loffset (quote ((0) (0) (0) (0) (0) (0) (0) (0) (0) (0) (0) (0) (0) (0) (0) (0) (0) (0) (0) (0) (0) (0) (0) (0) (0) (0) (0) (0) (0) (0) (0) (0) (0) (0) (0) (0) (0) (0))) :lchan (quote ((1) (1) (1) (1) (1) (1) (1) (1) (1) (1) (1) (1) (1) (1) (1) (1) (1) (1) (1) (1) (1) (1) (1) (1) (1) (1) (1) (1) (1) (1) (1) (1) (1) (1) (1) (1) (1) (1))) :legato 0)))) (load-port-info newobj (quote ((0) (0) (0) (0) (0) (0) (0) (0) (0) (0) (0) (0) (0) (0) (0) (0) (0) (0) (0) (0) (0) (0) (0) (0) (0) (0) (0) (0) (0) (0) (0) (0) (0) (0) (0) (0) (0) (0)))) (init-mus-color newobj (quote nil)) (set-extra-pairs newobj (quote nil)) (set-patch-pairs newobj (quote nil)) (set-name newobj nil) (set-tonalite newobj nil) newobj) (let ((newobj (when (find-class (quote chord-seq) nil) (make-instance (quote chord-seq) :lmidic (quote ((6250) (6000) (6250) (6500) (6750) (7000) (6750) (7000) (6750) (6500) (6750) (6500) (6250) (6500) (6250) (6500) (6750) (7000) (6750) (7000) (7250) (7500) (7750) (8000) (8000) (8000) (8000) (8000) (8000) (8000))) :lonset (quote (0 125 250 375 500 625 750 875 1000 1125 1250 1375 1500 1625 1750 1875 2000 2125 2250 2375 2500 2625 2750 2875 3000 3125 3250 3375 3500 3625 4625)) :ldur (quote ((1000) (1000) (1000) (1000) (1000) (1000) (1000) (1000) (1000) (1000) (1000) (1000) (1000) (1000) (1000) (1000) (1000) (1000) (1000) (1000) (1000) (1000) (1000) (1000) (1000) (1000) (1000) (1000) (1000) (1000))) :lvel (quote ((50) (50) (50) (50) (50) (50) (50) (50) (50) (50) (50) (50) (50) (50) (50) (50) (50) (50) (50) (50) (50) (50) (50) (50) (50) (50) (50) (50) (50) (50))) :loffset (quote ((0) (0) (0) (0) (0) (0) (0) (0) (0) (0) (0) (0) (0) (0) (0) (0) (0) (0) (0) (0) (0) (0) (0) (0) (0) (0) (0) (0) (0) (0))) :lchan (quote ((1) (1) (1) (1) (1) (1) (1) (1) (1) (1) (1) (1) (1) (1) (1) (1) (1) (1) (1) (1) (1) (1) (1) (1) (1) (1) (1) (1) (1) (1))) :legato 0)))) (load-port-info newobj (quote ((0) (0) (0) (0) (0) (0) (0) (0) (0) (0) (0) (0) (0) (0) (0) (0) (0) (0) (0) (0) (0) (0) (0) (0) (0) (0) (0) (0) (0) (0)))) (init-mus-color newobj (quote nil)) (set-extra-pairs newobj (quote nil)) (set-patch-pairs newobj (quote nil)) (set-name newobj nil) (set-tonalite newobj nil) newobj) (let ((newobj (when (find-class (quote chord-seq) nil) (make-instance (quote chord-seq) :lmidic (quote ((6250) (6000) (6250) (6500) (6750) (6500) (6250) (6000) (6250) (6000) (6250) (6500) (6250) (6500) (6750) (6500) (6250) (6500) (6250) (6500) (6750) (7000) (7250) (7000) (7250) (7500) (7750) (8000) (7750) (8000) (7750) (8000) (8000) (8000) (7750) (8000) (8000) (8000) (8000) (8000))) :lonset (quote (0 125 250 375 500 625 750 875 1000 1125 1250 1375 1500 1625 1750 1875 2000 2125 2250 2375 2500 2625 2750 2875 3000 3125 3250 3375 3500 3625 3750 3875 4000 4125 4250 4375 4500 4625 4750 4875 5875)) :ldur (quote ((1000) (1000) (1000) (1000) (1000) (1000) (1000) (1000) (1000) (1000) (1000) (1000) (1000) (1000) (1000) (1000) (1000) (1000) (1000) (1000) (1000) (1000) (1000) (1000) (1000) (1000) (1000) (1000) (1000) (1000) (1000) (1000) (1000) (1000) (1000) (1000) (1000) (1000) (1000) (1000))) :lvel (quote ((50) (50) (50) (50) (50) (50) (50) (50) (50) (50) (50) (50) (50) (50) (50) (50) (50) (50) (50) (50) (50) (50) (50) (50) (50) (50) (50) (50) (50) (50) (50) (50) (50) (50) (50) (50) (50) (50) (50) (50))) :loffset (quote ((0) (0) (0) (0) (0) (0) (0) (0) (0) (0) (0) (0) (0) (0) (0) (0) (0) (0) (0) (0) (0) (0) (0) (0) (0) (0) (0) (0) (0) (0) (0) (0) (0) (0) (0) (0) (0) (0) (0) (0))) :lchan (quote ((1) (1) (1) (1) (1) (1) (1) (1) (1) (1) (1) (1) (1) (1) (1) (1) (1) (1) (1) (1) (1) (1) (1) (1) (1) (1) (1) (1) (1) (1) (1) (1) (1) (1) (1) (1) (1) (1) (1) (1))) :legato 0)))) (load-port-info newobj (quote ((0) (0) (0) (0) (0) (0) (0) (0) (0) (0) (0) (0) (0) (0) (0) (0) (0) (0) (0) (0) (0) (0) (0) (0) (0) (0) (0) (0) (0) (0) (0) (0) (0) (0) (0) (0) (0) (0) (0) (0)))) (init-mus-color newobj (quote nil)) (set-extra-pairs newobj (quote nil)) (set-patch-pairs newobj (quote nil)) (set-name newobj nil) (set-tonalite newobj nil) newobj) (let ((newobj (when (find-class (quote chord-seq) nil) (make-instance (quote chord-seq) :lmidic (quote ((6250) (6500) (6250) (6000) (6250) (6500) (6750) (7000) (6750) (7000) (7250) (7000) (6750) (7000) (7250) (7000) (6750) (7000) (6750) (7000) (6750) (6500) (6250) (6000) (6250) (6500) (6750) (6500) (6750) (6500) (6750) (7000) (7250) (7500) (7750) (8000) (8000) (8000) (8000) (8000))) :lonset (quote (0 125 250 375 500 625 750 875 1000 1125 1250 1375 1500 1625 1750 1875 2000 2125 2250 2375 2500 2625 2750 2875 3000 3125 3250 3375 3500 3625 3750 3875 4000 4125 4250 4375 4500 4625 4750 4875 5875)) :ldur (quote ((1000) (1000) (1000) (1000) (1000) (1000) (1000) (1000) (1000) (1000) (1000) (1000) (1000) (1000) (1000) (1000) (1000) (1000) (1000) (1000) (1000) (1000) (1000) (1000) (1000) (1000) (1000) (1000) (1000) (1000) (1000) (1000) (1000) (1000) (1000) (1000) (1000) (1000) (1000) (1000))) :lvel (quote ((50) (50) (50) (50) (50) (50) (50) (50) (50) (50) (50) (50) (50) (50) (50) (50) (50) (50) (50) (50) (50) (50) (50) (50) (50) (50) (50) (50) (50) (50) (50) (50) (50) (50) (50) (50) (50) (50) (50) (50))) :loffset (quote ((0) (0) (0) (0) (0) (0) (0) (0) (0) (0) (0) (0) (0) (0) (0) (0) (0) (0) (0) (0) (0) (0) (0) (0) (0) (0) (0) (0) (0) (0) (0) (0) (0) (0) (0) (0) (0) (0) (0) (0))) :lchan (quote ((1) (1) (1) (1) (1) (1) (1) (1) (1) (1) (1) (1) (1) (1) (1) (1) (1) (1) (1) (1) (1) (1) (1) (1) (1) (1) (1) (1) (1) (1) (1) (1) (1) (1) (1) (1) (1) (1) (1) (1))) :legato 0)))) (load-port-info newobj (quote ((0) (0) (0) (0) (0) (0) (0) (0) (0) (0) (0) (0) (0) (0) (0) (0) (0) (0) (0) (0) (0) (0) (0) (0) (0) (0) (0) (0) (0) (0) (0) (0) (0) (0) (0) (0) (0) (0) (0) (0)))) (init-mus-color newobj (quote nil)) (set-extra-pairs newobj (quote nil)) (set-patch-pairs newobj (quote nil)) (set-name newobj nil) (set-tonalite newobj nil) newobj)) :from-file t))) (load-port-info newobj (quote (((0) (0) (0) (0) (0) (0) (0) (0) (0) (0) (0) (0) (0) (0) (0) (0) (0) (0) (0) (0) (0) (0) (0) (0) (0) (0) (0) (0) (0) (0) (0) (0) (0) (0) (0) (0) (0) (0)) ((0) (0) (0) (0) (0) (0) (0) (0) (0) (0) (0) (0) (0) (0) (0) (0) (0) (0) (0) (0) (0) (0) (0) (0) (0) (0) (0) (0) (0) (0)) ((0) (0) (0) (0) (0) (0) (0) (0) (0) (0) (0) (0) (0) (0) (0) (0) (0) (0) (0) (0) (0) (0) (0) (0) (0) (0) (0) (0) (0) (0) (0) (0) (0) (0) (0) (0) (0) (0) (0) (0)) ((0) (0) (0) (0) (0) (0) (0) (0) (0) (0) (0) (0) (0) (0) (0) (0) (0) (0) (0) (0) (0) (0) (0) (0) (0) (0) (0) (0) (0) (0) (0) (0) (0) (0) (0) (0) (0) (0) (0) (0))))) (init-mus-color newobj (quote nil)) (set-extra-pairs newobj (quote nil)) (set-patch-pairs newobj (quote ((nil (om-load-patch-abs1 "patch" (quote nil) (quote nil) 7.01 nil "" (om-make-point 200 200) (om-make-point 400 500)))))) (set-name newobj nil) (set-tonalite newobj nil) newobj)) "x" nil (pairlis (quote (approx fontsize staff cmnpref deltapict outport inport player zoom notechancolor? grillestep mode winsize winpos score-mode obj-mode cursor-mode show-stems scale)) (list 4 24 (list (quote g) (quote g) (quote g) (quote g)) (let ((newobj (make-instance (quote edition-values)))) (setf (paper-size newobj) (om-make-point 600 800)) (setf (top-margin newobj) 2) (setf (left-margin newobj) 1) (setf (right-margin newobj) 1) (setf (bottom-margin newobj) 1) (setf (orientation newobj) nil) (setf (scale newobj) nil) (setf (system-space newobj) (quote (2 2 2 2))) (setf (system-color newobj) (quote nil)) (setf (line-space newobj) 1) (setf (title newobj) nil) (setf (show-title? newobj) nil) (setf (show-page? newobj) nil) (setf (sheet-id newobj) nil) (setf (page-mode newobj) nil) newobj) (om-make-point 0 0) nil nil (quote :osc-scoreplayer) 1 nil 1000 0 (om-make-point 1512 916) (om-make-point 0 38) 0 1 (quote :normal) (quote t) nil)) t nil nil nil))) (when (fboundp (quote set-active)) (set-active box nil)) box) (let ((box (om-load-boxwithed1 (quote box-with-win) "index-chordseq" (quote omloop) (quote ((om-load-inputfun (quote input-funbox) "" "list-of-indices" nil) (om-load-inputfun (quote input-funbox) "" "list-pitches" nil))) (om-make-point 480 355) nil nil nil (list (let ((box (om-load-boxcall (quote genfun) "collect" (quote listing) (quote ((om-load-inputfun (quote input-funbox) "anything" "DATA" nil))) (om-make-point 279 577) nil nil nil nil 3))) (when (fboundp (quote set-active)) (set-active box nil)) box) (let ((box (om-load-boxcall (quote bastype) "list 2" (quote list) (quote nil) (om-make-point 380 360) (om-make-point 34 30) (list 50) "(50)" nil))) (when (fboundp (quote set-active)) (set-active box nil)) box) (let ((box (om-load-boxcall (quote bastype) "list" (quote list) (quote nil) (om-make-point 338 311) (om-make-point 52 30) (list 0 125) "(0 125)" nil))) (when (fboundp (quote set-active)) (set-active box nil)) box) (let ((box (om-load-editor-box1 "CHORD-SEQ" (quote chord-seq) (quote ((om-load-inputfun (quote input-funbox) "object" "self" nil) (om-load-inputfun (quote input-funbox) "pitches (mc): list or list of lists" "lmidic" (list 6000)) (om-load-inputfun (quote input-funbox) "onsets (ms): list" "lonset" (list 0 1000)) (om-load-inputfun (quote input-funbox) "durations (ms): list or list of lists" "ldur" (list 1000)) (om-load-inputfun (quote input-funbox) "velocities (0-127): list or list of lists" "lvel" (list 100)) (om-load-inputfun (quote input-funbox) "offsets (ms): list or list of lists" "loffset" (list 0)) (om-load-inputfun (quote input-funbox) "MIDI channels (1-16): list or list of lists" "lchan" (list 1)) (om-load-inputfun (quote input-funbox) "relative chords duration (0-100)" "legato" 0))) (om-make-point 264 396) (om-make-point 130 70) (let ((newobj (when (find-class (quote chord-seq) nil) (make-instance (quote chord-seq) :lmidic (quote ((6000))) :lonset (quote (0 1000)) :ldur (quote ((1000))) :lvel (quote ((100))) :loffset (quote ((0))) :lchan (quote ((1))) :legato 0)))) (load-port-info newobj (quote ((0)))) (init-mus-color newobj (quote nil)) (set-extra-pairs newobj (quote nil)) (set-patch-pairs newobj (quote nil)) (set-name newobj nil) (set-tonalite newobj nil) newobj) nil nil (pairlis (quote (approx fontsize staff cmnpref deltapict outport inport player zoom notechancolor? grillestep mode winsize winpos score-mode obj-mode cursor-mode show-stems scale)) (list 2 24 (quote g) (let ((newobj (make-instance (quote edition-values)))) (setf (paper-size newobj) (om-make-point 600 800)) (setf (top-margin newobj) 2) (setf (left-margin newobj) 1) (setf (right-margin newobj) 1) (setf (bottom-margin newobj) 1) (setf (orientation newobj) nil) (setf (scale newobj) nil) (setf (system-space newobj) (quote (1))) (setf (system-color newobj) (quote nil)) (setf (line-space newobj) 1) (setf (title newobj) nil) (setf (show-title? newobj) nil) (setf (show-page? newobj) nil) (setf (sheet-id newobj) nil) (setf (page-mode newobj) nil) newobj) (om-make-point 0 0) nil nil (quote :osc-scoreplayer) 1 nil 1000 0 (om-make-point 370 280) (om-make-point 400 20) 0 1 (quote :normal) (quote t) nil)) nil nil nil nil))) (when (fboundp (quote set-active)) (set-active box nil)) box) (let ((box (om-load-boxcall (quote genfun) "POSN-MATCH" (quote posn-match) (quote ((om-load-inputfun (quote input-funbox) "a list" "LIST" (list 10 20 30 40 50 60 70 80 90)) (om-load-inputfun (quote input-funbox) "a list positions" "POSITIONS" (list (list 0 1) 4 (list 6))))) (om-make-point 260 270) nil nil nil nil 1))) (when (fboundp (quote set-active)) (set-active box nil)) box) (let ((box (om-load-boxcall (quote genfun) "inlist" (quote listloop) (quote ((om-load-inputfun (quote input-funbox) "list to iterate" "LIST" nil))) (om-make-point 230 162) nil nil nil nil 1))) (when (fboundp (quote set-active)) (set-active box nil)) box) (let ((box (om-load-boxin "list-pitches" 1 (om-make-point 105 239) "" "list-pitches" nil nil))) (when (fboundp (quote set-active)) (set-active box nil)) box) (let ((box (om-load-boxin "list-of-indices" 0 (om-make-point 218 60) "" "list-of-indices" nil nil))) (when (fboundp (quote set-active)) (set-active box nil)) box) (let ((box (om-load-seqbox "finally" (quote finaldo) (quote ((om-load-inputfun (quote input-funbox) "value to return" "VAL" nil))) (om-make-point 357 752) nil nil nil 0))) (when (fboundp (quote set-active)) (set-active box nil)) box) (let ((box (om-load-seqbox "eachTime" (quote loopdo) (quote ((om-load-inputfun (quote input-funbox) "operations to do" "OP" nil))) (om-make-point 181 751) nil nil nil 0))) (when (fboundp (quote set-active)) (set-active box nil)) box)) (quote ((3 0 0 0 nil 0) (4 0 3 1 nil 0) (2 0 3 2 nil 0) (1 0 3 4 nil 0) (6 0 4 0 nil 0) (5 0 4 1 nil 0) (7 0 5 0 nil 0) (0 1 8 0 nil 0) (0 0 9 0 nil 0))) 1 "index-chordseq" nil))) (when (fboundp (quote set-active)) (set-active box nil)) box) (let ((box (om-load-editor-box1 "BPF 5" (quote bpf) (quote ((om-load-inputfun (quote input-funbox) "object" "self" nil) (om-load-inputfun (quote input-funbox) "X coordinates (list)" "x-points" (list 0 100)) (om-load-inputfun (quote input-funbox) "Y coordinates (list)" "y-points" (list 0 100)) (om-load-inputfun (quote input-funbox) "precision (integer) [0 - 10]" "decimals" 0))) (om-make-point 742 592) (om-make-point 174 131) (let ((newobj (when (find-class (quote bpf) nil) (let ((newbpf (simple-bpf-from-list (quote (0 100 200 300 400 500 600 700 800 900 1000 1100 1200 1300 1400 1500 1600 1700 1800 1900 2000 2100 2200 2300 2400 2500 2600 2700 2800 2900 3000 3100 3200 3300 3400 3500 3600 3700 3800 3900 4000 4100 4200 4300 4400 4500 4600 4700 4800 4900 5000 5100 5200 5300 5400 5500 5600 5700 5800 5900 6000 6100 6200 6300 6400 6500 6600 6700 6800 6900 7000 7100 7200 7300 7400 7500 7600 7700 7800 7900 8000 8100 8200 8300 8400 8500 8600 8700 8800 8900 9000 9100 9200 9300 9400 9500 9600 9700 9800 9900 10000 10100 10200 10300 10400 10500 10600 10700 10800 10900 11000 11100 11200 11300 11400 11500 11600 11700 11800 11900 12000 12100)) (quote (1 0 1 0 1 0 1 0 1 0 1 0 1 0 1 0 1 0 1 0 1 0 1 2 3 2 3 2 3 2 3 2 3 2 1 0 1 0 1 2 1 0 1 2 3 4 3 2 1 0 1 2 3 2 3 2 1 2 1 0 1 0 1 0 1 0 1 2 1 2 1 2 1 0 1 0 1 0 1 2 1 0 1 0 1 2 1 0 1 0 1 0 1 0 1 0 1 2 3 4 3 4 3 2 3 4 5 4 5 4 5 6 5 4 5 6 7 8 9 10 11 12)) (quote bpf) 0))) (setf (bpfcolor newbpf) (om-make-color 0 0 0)) (set-name newbpf "BPF 5") newbpf)))) (when newobj) newobj) "x" nil (pairlis (quote (picture winpos winsize)) (list nil (om-make-point 10 40) (om-make-point 335 275))) t nil nil nil))) (when (fboundp (quote set-active)) (set-active box nil)) box) (let ((box (om-load-editor-box1 "BPF 4" (quote bpf) (quote ((om-load-inputfun (quote input-funbox) "object" "self" nil) (om-load-inputfun (quote input-funbox) "X coordinates (list)" "x-points" (list 0 100)) (om-load-inputfun (quote input-funbox) "Y coordinates (list)" "y-points" (list 0 100)) (om-load-inputfun (quote input-funbox) "precision (integer) [0 - 10]" "decimals" 0))) (om-make-point 525 584) (om-make-point 174 131) (let ((newobj (when (find-class (quote bpf) nil) (let ((newbpf (simple-bpf-from-list (quote (0 100 200 300 400 500 600 700 800 900 1000 1100 1200 1300 1400 1500 1600 1700 1800 1900 2000 2100 2200 2300 2400 2500 2600 2700 2800 2900 3000 3100 3200 3300 3400 3500 3600 3700 3800 3900 4000 4100 4200 4300 4400 4500 4600 4700 4800 4900 5000 5100 5200 5300 5400 5500 5600 5700 5800 5900 6000 6100 6200 6300 6400 6500 6600 6700)) (quote (1 0 1 2 3 2 1 0 1 0 1 2 3 4 3 2 1 0 1 2 3 4 5 4 3 4 3 2 1 0 1 0 1 0 1 0 1 2 3 4 5 6 7 8 9 8 9 8 7 8 7 8 9 8 7 8 7 8 9 10 9 10 9 8 9 10 11 12)) (quote bpf) 0))) (setf (bpfcolor newbpf) (om-make-color 0 0 0)) (set-name newbpf "BPF 4") newbpf)))) (when newobj) newobj) "x" nil (pairlis (quote (picture winpos winsize)) (list nil (om-make-point 10 40) (om-make-point 335 275))) t nil nil nil))) (when (fboundp (quote set-active)) (set-active box nil)) box) (let ((box (om-load-editor-box1 "BPF 3" (quote bpf) (quote ((om-load-inputfun (quote input-funbox) "object" "self" nil) (om-load-inputfun (quote input-funbox) "X coordinates (list)" "x-points" (list 0 100)) (om-load-inputfun (quote input-funbox) "Y coordinates (list)" "y-points" (list 0 100)) (om-load-inputfun (quote input-funbox) "precision (integer) [0 - 10]" "decimals" 0))) (om-make-point 294 584) (om-make-point 174 131) (let ((newobj (when (find-class (quote bpf) nil) (let ((newbpf (simple-bpf-from-list (quote (0 100 200 300 400 500 600 700 800 900 1000 1100 1200 1300 1400 1500 1600 1700 1800 1900 2000 2100 2200 2300 2400 2500 2600 2700 2800 2900 3000 3100 3200 3300 3400 3500 3600 3700 3800 3900 4000 4100 4200 4300 4400 4500 4600 4700 4800 4900 5000 5100 5200 5300 5400 5500 5600 5700 5800 5900 6000 6100 6200 6300 6400 6500 6600 6700 6800 6900 7000 7100 7200 7300 7400 7500)) (quote (1 2 1 2 3 2 3 2 1 0 1 2 3 2 3 2 3 4 5 6 5 6 7 6 7 6 7 8 9 8 7 6 5 4 5 6 7 6 7 6 7 6 5 6 7 8 7 8 9 8 9 8 9 10 11 10 11 12 11 12 13 14 15 14 13 14 15 16 17 16 15 16 17 18 19 20)) (quote bpf) 0))) (setf (bpfcolor newbpf) (om-make-color 0 0 0)) (set-name newbpf "BPF 3") newbpf)))) (when newobj) newobj) "x" nil (pairlis (quote (picture winpos winsize)) (list nil (om-make-point 10 40) (om-make-point 335 275))) t nil nil nil))) (when (fboundp (quote set-active)) (set-active box nil)) box) (let ((box (om-load-editor-box1 "BPF 2" (quote bpf) (quote ((om-load-inputfun (quote input-funbox) "object" "self" nil) (om-load-inputfun (quote input-funbox) "X coordinates (list)" "x-points" (list 0 100)) (om-load-inputfun (quote input-funbox) "Y coordinates (list)" "y-points" (list 0 100)) (om-load-inputfun (quote input-funbox) "precision (integer) [0 - 10]" "decimals" 0))) (om-make-point 94 595) (om-make-point 174 131) (let ((newobj (when (find-class (quote bpf) nil) (let ((newbpf (simple-bpf-from-list (quote (0 100 200 300 400 500 600 700 800 900 1000 1100 1200 1300 1400 1500 1600 1700 1800 1900 2000 2100 2200 2300 2400 2500 2600 2700 2800 2900 3000 3100 3200 3300 3400 3500 3600 3700 3800 3900 4000 4100 4200 4300 4400 4500 4600 4700 4800 4900 5000 5100 5200 5300 5400 5500 5600 5700 5800 5900 6000 6100 6200 6300 6400 6500)) (quote (1 2 1 2 3 2 3 2 3 4 5 6 7 8 9 10 11 12 13 12 13 14 15 14 13 14 13 12 13 14 15 14 13 12 13 14 15 16 17 18 19 18 17 16 17 16 17 16 15 16 15 14 13 12 13 12 13 14 15 16 15 16 17 18 19 20)) (quote bpf) 0))) (setf (bpfcolor newbpf) (om-make-color 0 0 0)) (set-name newbpf "BPF 2") newbpf)))) (when newobj) newobj) "x" nil (pairlis (quote (picture winpos winsize)) (list nil (om-make-point 10 40) (om-make-point 335 275))) t nil nil nil))) (when (fboundp (quote set-active)) (set-active box nil)) box) (let ((box (om-load-boxcall (quote lispfun) "FOURTH" (quote fourth) (quote ((om-load-inputfun (quote input-funbox) "LIST" "LIST" nil))) (om-make-point 519 514) nil nil nil nil 1))) (when (fboundp (quote set-active)) (set-active box nil)) box) (let ((box (om-load-boxcall (quote lispfun) "THIRD" (quote third) (quote ((om-load-inputfun (quote input-funbox) "LIST" "LIST" nil))) (om-make-point 433 528) nil nil nil nil 1))) (when (fboundp (quote set-active)) (set-active box nil)) box) (let ((box (om-load-boxcall (quote lispfun) "SECOND" (quote second) (quote ((om-load-inputfun (quote input-funbox) "LIST" "LIST" nil))) (om-make-point 339 520) nil nil nil nil 1))) (when (fboundp (quote set-active)) (set-active box nil)) box) (let ((box (om-load-boxcall (quote lispfun) "FIRST" (quote first) (quote ((om-load-inputfun (quote input-funbox) "LIST" "LIST" nil))) (om-make-point 272 520) nil nil nil nil 1))) (when (fboundp (quote set-active)) (set-active box nil)) box) (let ((box (om-load-boxcall (quote bastype) "list 6" (quote list) (quote nil) (om-make-point 380 328) (om-make-point 17 30) 4 "4" nil))) (when (fboundp (quote set-active)) (set-active box nil)) box) (let ((box (om-load-boxcall (quote genfun) "REPEAT-N" (quote repeat-n) (quote ((om-load-inputfun (quote input-funbox) "something" "SELF" nil) (om-load-inputfun (quote input-funbox) "times" "N" 0))) (om-make-point 330 377) nil nil nil nil 1))) (when (fboundp (quote set-active)) (set-active box nil)) box) (let ((box (om-load-boxcall (quote lispfun) "LENGTH 2" (quote length) (quote ((om-load-inputfun (quote input-funbox) "SEQUENCE" "SEQUENCE" nil))) (om-make-point 326 213) nil nil nil nil 1))) (when (fboundp (quote set-active)) (set-active box nil)) box) (let ((box (om-load-boxcall (quote lispfun) "LENGTH" (quote length) (quote ((om-load-inputfun (quote input-funbox) "SEQUENCE" "SEQUENCE" nil))) (om-make-point 573 217) nil nil nil nil 1))) (when (fboundp (quote set-active)) (set-active box nil)) box) (let ((box (om-load-boxcall (quote bastype) "list 5" (quote list) (quote nil) (om-make-point 577 79) (om-make-point 41 30) 250 "250" nil))) (when (fboundp (quote set-active)) (set-active box nil)) box) (let ((box (om-load-boxcall (quote bastype) "list 4" (quote list) (quote nil) (om-make-point 517 78) (om-make-point 48 30) 8000 "8000" nil))) (when (fboundp (quote set-active)) (set-active box nil)) box) (let ((box (om-load-boxcall (quote bastype) "list 3" (quote list) (quote nil) (om-make-point 459 84) (om-make-point 48 30) 6000 "6000" nil))) (when (fboundp (quote set-active)) (set-active box nil)) box) (let ((box (om-load-boxcall (quote genfun) "ARITHM-SER" (quote arithm-ser) (quote ((om-load-inputfun (quote input-funbox) "begin" "BEGIN" 0) (om-load-inputfun (quote input-funbox) "end " "END" 10) (om-load-inputfun (quote input-funbox) "step" "STEP" 1))) (om-make-point 509 146) nil nil nil nil 1))) (when (fboundp (quote set-active)) (set-active box nil)) box) (let ((box (om-load-editor-box1 "BPF" (quote bpf) (quote ((om-load-inputfun (quote input-funbox) "object" "self" nil) (om-load-inputfun (quote input-funbox) "X coordinates (list)" "x-points" (list 0 100)) (om-load-inputfun (quote input-funbox) "Y coordinates (list)" "y-points" (list 0 100)) (om-load-inputfun (quote input-funbox) "precision (integer) [0 - 10]" "decimals" 0))) (om-make-point 55 335) (om-make-point 174 131) (let ((newobj (when (find-class (quote bpf) nil) (let ((newbpf (simple-bpf-from-list (quote (0 100 200 300 400 500 600 700 800 900 1000 1100 1200 1300 1400 1500 1600 1700 1800 1900 2000 2100 2200 2300 2400 2500 2600 2700 2800 2900 3000 3100 3200 3300 3400 3500 3600 3700 3800 3900 4000 4100 4200 4300 4400 4500 4600 4700 4800 4900 5000 5100 5200 5300 5400 5500 5600 5700 5800 5900 6000 6100 6200 6300 6400 6500 6600 6700 6800 6900 7000 7100 7200 7300 7400 7500 7600 7700 7800 7900 8000 8100 8200 8300 8400 8500 8600 8700 8800 8900 9000 9100 9200 9300 9400 9500 9600 9700 9800 9900 10000 10100 10200 10300 10400 10500 10600 10700 10800 10900 11000 11100 11200 11300 11400 11500 11600 11700)) (quote (1 2 3 4 3 2 3 2 3 2 1 0 1 2 1 2 3 4 3 2 3 2 3 4 3 2 1 2 1 2 3 2 3 2 3 2 3 2 1 0 1 0 1 2 3 4 3 2 3 4 3 4 3 4 3 4 3 4 3 4 3 2 3 4 5 6 5 6 5 6 7 8 7 8 9 10 11 12 13 14 15 14 13 14 13 12 11 10 11 10 11 12 13 12 13 14 15 16 15 16 15 16 17 18 17 16 17 18 17 18 19 18 17 18 19 18 19 20)) (quote bpf) 0))) (setf (bpfcolor newbpf) (om-make-color 0 0 0)) (set-name newbpf "BPF") newbpf)))) (when newobj) newobj) nil nil (pairlis (quote (picture winpos winsize)) (list nil (om-make-point 10 40) (om-make-point 335 275))) t nil nil nil))) (when (fboundp (quote set-active)) (set-active box nil)) box) (let ((box (om-load-boxcall (quote bastype) "list 2" (quote list) (quote nil) (om-make-point 287 83) (om-make-point 34 30) 12 "12" nil))) (when (fboundp (quote set-active)) (set-active box nil)) box) (let ((box (om-load-boxcall (quote bastype) "list" (quote list) (quote nil) (om-make-point 213 90) (om-make-point 37 30) (list 1) "(1)" nil))) (when (fboundp (quote set-active)) (set-active box nil)) box) (let ((box (om-load-boxcall (quote patch-box) "intro-to-recursion-step" (quote ("elements" "Project2" "intro-to-recursion-step")) (quote ((om-load-inputfun (quote input-funbox) "" "start-note" nil) (om-load-inputfun (quote input-funbox) "" "end" nil))) (om-make-point 192 127) nil nil nil nil 1))) (when (fboundp (quote set-active)) (set-active box nil)) box))) (quote ((1 0 0 1 nil 0) (11 0 1 0 nil 0) (17 0 1 1 nil 0) (6 0 2 2 nil 0) (7 0 3 2 nil 0) (8 0 4 2 nil 0) (9 0 5 2 nil 0) (11 0 6 0 nil 0) (11 0 7 0 nil 0) (11 0 8 0 nil 0) (11 0 9 0 nil 0) (21 0 11 0 nil 0) (10 0 11 1 nil 0) (21 0 12 0 nil 0) (17 0 13 0 nil 0) (16 0 17 0 nil 0) (15 0 17 1 nil 0) (14 0 17 2 nil 0) (21 0 18 2 nil 0) (20 0 21 0 nil 0) (19 0 21 1 nil 0))) nil 7.01))