; OM File Header - Saved 2023/02/10 12:08:11
; (7.01 :patc (om-make-point 334 10) (om-make-point 353 280) (om-make-point 742 716) "" 183 0 nil "2023/02/10 12:08:11")
; End File Header
(in-package :om)(load-lib-for (quote nil))(setf *om-current-persistent* (om-load-patch1 "003-all-rotations" (quote ((let ((box (om-load-editor-box1 "TEXTFILE 2" (quote textfile) (quote ((om-load-inputfun (quote input-funbox) "object" "self" nil) (om-load-inputfun (quote input-funbox) "input data or text" "exp-list" nil) (om-load-inputfunmenu1 (quote input-funmenu) "append or supersede" "ed-mode" "supersede" (list (list "append" "append") (list "supersede" "supersede"))) (om-load-inputfunmenu1 (quote input-funmenu) "eval interpretation mode" "eval-mode" "list" (list (list "text" "text") (list "data list" "data") (list "list" "list") (list "value" "value"))))) (om-make-point 452 344) (om-make-point 153 164) (load-buffer-textfile (quote ("(1 2 3 4 5)" "(2 3 4 5 1)" "(3 4 5 1 2)" "(4 5 1 2 3)" "(5 1 2 3 4)" "")) (quote textfile) "supersede" "list") nil nil (pairlis (quote (winsize winpos)) (list (om-make-point 335 275) (om-make-point 10 40))) t nil nil nil))) (when (fboundp (quote set-active)) (set-active box nil)) box) (let ((box (om-load-boxcall (quote bastype) "list 2" (quote list) (quote nil) (om-make-point 482 165) (om-make-point 70 30) (list 1 2 3 4 5) "(1 2 3 4 5)" nil))) (when (fboundp (quote set-active)) (set-active box nil)) box) (let ((box (om-load-boxcall (quote abstraction) "all-rotations" (om-load-patch-abs1 "all-rotations" (quote ((let ((box (om-load-boxin "input" 0 (om-make-point 5 45) "" nil nil nil))) (when (fboundp (quote set-active)) (set-active box nil)) box) (let ((box (om-load-boxwithed1 (quote box-with-win) "give-all-list-rotations" (quote omloop) (quote ((om-load-inputfun (quote input-funbox) "" "list" nil) (om-load-inputfun (quote input-funbox) "" "list-ind" nil))) (om-make-point 39 343) nil nil nil (list (let ((box (om-load-boxcall (quote genfun) "ROTATE" (quote rotate) (quote ((om-load-inputfun (quote input-funbox) "the list" "LIST" nil) (om-load-inputfun (quote input-funbox) "nth" "NTH" 1))) (om-make-point 94 119) nil nil nil nil 1))) (when (fboundp (quote set-active)) (set-active box nil)) box) (let ((box (om-load-boxcall (quote genfun) "collect" (quote listing) (quote ((om-load-inputfun (quote input-funbox) "anything" "DATA" nil))) (om-make-point 124 214) (om-make-point 71 59) nil nil nil 3))) (when (fboundp (quote set-active)) (set-active box nil)) box) (let ((box (om-load-boxcall (quote genfun) "inlist" (quote listloop) (quote ((om-load-inputfun (quote input-funbox) "list to iterate" "LIST" nil))) (om-make-point 211 114) nil nil nil nil 1))) (when (fboundp (quote set-active)) (set-active box nil)) box) (let ((box (om-load-boxin "list-ind" 1 (om-make-point 262 51) "" "list-ind" nil nil))) (when (fboundp (quote set-active)) (set-active box nil)) box) (let ((box (om-load-boxin "list" 0 (om-make-point 5 45) "" "list" nil nil))) (when (fboundp (quote set-active)) (set-active box nil)) box) (let ((box (om-load-seqbox "finally" (quote finaldo) (quote ((om-load-inputfun (quote input-funbox) "value to return" "VAL" nil))) (om-make-point 181 319) nil nil nil 0))) (when (fboundp (quote set-active)) (set-active box nil)) box) (let ((box (om-load-seqbox "eachTime" (quote loopdo) (quote ((om-load-inputfun (quote input-funbox) "operations to do" "OP" nil))) (om-make-point 81 319) nil nil nil 0))) (when (fboundp (quote set-active)) (set-active box nil)) box)) (quote ((4 0 0 0 nil 0) (2 0 0 1 nil 0) (0 0 1 0 nil 0) (3 0 2 0 nil 0) (1 1 5 0 nil 0) (1 0 6 0 nil 0))) 1 "give-all-list-rotations" nil))) (when (fboundp (quote set-active)) (set-active box nil)) box) (let ((box (om-load-boxcall (quote genfun) "ARITHM-SER" (quote arithm-ser) (quote ((om-load-inputfun (quote input-funbox) "begin" "BEGIN" 0) (om-load-inputfun (quote input-funbox) "end " "END" 10) (om-load-inputfun (quote input-funbox) "step" "STEP" 1))) (om-make-point 113 241) nil nil nil nil 1))) (when (fboundp (quote set-active)) (set-active box nil)) box) (let ((box (om-load-boxcall (quote lispfun) "LENGTH" (quote length) (quote ((om-load-inputfun (quote input-funbox) "SEQUENCE" "SEQUENCE" nil))) (om-make-point 130 88) nil nil nil nil 1))) (when (fboundp (quote set-active)) (set-active box nil)) box) (let ((box (om-load-boxcall (quote genfun) "OM-" (quote om-) (quote ((om-load-inputfun (quote input-funbox) "number or list" "ARG1" 0) (om-load-inputfun (quote input-funbox) "number or list" "ARG2" 0))) (om-make-point 173 167) nil nil nil nil 1))) (when (fboundp (quote set-active)) (set-active box nil)) box) (let ((box (om-load-boxcall (quote bastype) "list 2" (quote list) (quote nil) (om-make-point 209 123) (om-make-point 17 30) 1 "1" nil))) (when (fboundp (quote set-active)) (set-active box nil)) box) (let ((box (om-load-boxout "output" 0 (om-make-point 261 452) (quote ((om-load-inputfun (quote input-funbox) "" "out" nil))) "returns-all-rotations" nil))) (when (fboundp (quote set-active)) (set-active box nil)) box))) (quote ((0 0 1 0 nil 0) (2 0 1 1 nil 0) (4 0 2 1 nil 0) (0 0 3 0 nil 0) (3 0 4 0 nil 0) (5 0 4 1 nil 0) (1 0 6 0 nil 0))) 7.01 nil "" (om-make-point 768 137) (om-make-point 672 587)) (quote ((om-load-inputfun (quote input-funbox) "" "input" nil))) (om-make-point 473 242) nil (list (list (list 1 2 3 4 5) (list 2 3 4 5 1) (list 3 4 5 1 2) (list 4 5 1 2 3) (list 5 1 2 3 4))) nil "all-rotations"))) (when (fboundp (quote set-active)) (set-active box nil)) box) (let ((box (om-load-editor-box1 "TEXTFILE" (quote textfile) (quote ((om-load-inputfun (quote input-funbox) "object" "self" nil) (om-load-inputfun (quote input-funbox) "input data or text" "exp-list" nil) (om-load-inputfunmenu1 (quote input-funmenu) "append or supersede" "ed-mode" "supersede" (list (list "append" "append") (list "supersede" "supersede"))) (om-load-inputfunmenu1 (quote input-funmenu) "eval interpretation mode" "eval-mode" "list" (list (list "text" "text") (list "data list" "data") (list "list" "list") (list "value" "value"))))) (om-make-point 48 373) (om-make-point 162 104) (load-buffer-textfile (quote ("(0 1 2 3 4 5)" "(1 2 3 4 5 0)" "(2 3 4 5 0 1)" "(3 4 5 0 1 2)" "(4 5 0 1 2 3)" "(5 0 1 2 3 4)" "" "")) (quote textfile) "supersede" "list") "x" nil (pairlis (quote (winpos winsize)) (list (om-make-point 10 40) (om-make-point 335 275))) t nil nil nil))) (when (fboundp (quote set-active)) (set-active box nil)) box) (let ((box (om-load-boxcall (quote genfun) "ARITHM-SER" (quote arithm-ser) (quote ((om-load-inputfun (quote input-funbox) "begin" "BEGIN" 0) (om-load-inputfun (quote input-funbox) "end " "END" 10) (om-load-inputfun (quote input-funbox) "step" "STEP" 1))) (om-make-point 239 239) nil nil nil nil 1))) (when (fboundp (quote set-active)) (set-active box nil)) box) (let ((box (om-load-boxcall (quote bastype) "list 3" (quote list) (quote nil) (om-make-point 312 140) (om-make-point 17 30) 1 "1" nil))) (when (fboundp (quote set-active)) (set-active box nil)) box) (let ((box (om-load-boxcall (quote genfun) "OM-" (quote om-) (quote ((om-load-inputfun (quote input-funbox) "number or list" "ARG1" 0) (om-load-inputfun (quote input-funbox) "number or list" "ARG2" 0))) (om-make-point 276 184) nil nil nil nil 1))) (when (fboundp (quote set-active)) (set-active box nil)) box) (let ((box (om-load-boxcall (quote lispfun) "LENGTH" (quote length) (quote ((om-load-inputfun (quote input-funbox) "SEQUENCE" "SEQUENCE" nil))) (om-make-point 233 105) nil nil nil nil 1))) (when (fboundp (quote set-active)) (set-active box nil)) box) (let ((box (om-load-boxcall (quote bastype) "list" (quote list) (quote nil) (om-make-point 108 53) (om-make-point 81 30) (list 0 1 2 3 4 5) "(0 1 2 3 4 5)" nil))) (when (fboundp (quote set-active)) (set-active box nil)) box) (let ((box (om-load-boxwithed1 (quote box-with-win) "give-all-list-rotations" (quote omloop) (quote ((om-load-inputfun (quote input-funbox) "" "list" nil) (om-load-inputfun (quote input-funbox) "" "list-ind" nil))) (om-make-point 90 274) nil nil nil (list (let ((box (om-load-boxcall (quote genfun) "ROTATE" (quote rotate) (quote ((om-load-inputfun (quote input-funbox) "the list" "LIST" nil) (om-load-inputfun (quote input-funbox) "nth" "NTH" 1))) (om-make-point 94 119) nil nil nil nil 1))) (when (fboundp (quote set-active)) (set-active box nil)) box) (let ((box (om-load-boxcall (quote genfun) "collect" (quote listing) (quote ((om-load-inputfun (quote input-funbox) "anything" "DATA" nil))) (om-make-point 124 214) (om-make-point 71 59) nil nil nil 3))) (when (fboundp (quote set-active)) (set-active box nil)) box) (let ((box (om-load-boxcall (quote genfun) "inlist" (quote listloop) (quote ((om-load-inputfun (quote input-funbox) "list to iterate" "LIST" nil))) (om-make-point 211 114) nil nil nil nil 1))) (when (fboundp (quote set-active)) (set-active box nil)) box) (let ((box (om-load-boxin "list-ind" 1 (om-make-point 262 51) "" "list-ind" nil nil))) (when (fboundp (quote set-active)) (set-active box nil)) box) (let ((box (om-load-boxin "list" 0 (om-make-point 5 45) "" "list" nil nil))) (when (fboundp (quote set-active)) (set-active box nil)) box) (let ((box (om-load-seqbox "finally" (quote finaldo) (quote ((om-load-inputfun (quote input-funbox) "value to return" "VAL" nil))) (om-make-point 181 319) nil nil nil 0))) (when (fboundp (quote set-active)) (set-active box nil)) box) (let ((box (om-load-seqbox "eachTime" (quote loopdo) (quote ((om-load-inputfun (quote input-funbox) "operations to do" "OP" nil))) (om-make-point 81 319) nil nil nil 0))) (when (fboundp (quote set-active)) (set-active box nil)) box)) (quote ((4 0 0 0 nil 0) (2 0 0 1 nil 0) (0 0 1 0 nil 0) (3 0 2 0 nil 0) (1 1 5 0 nil 0) (1 0 6 0 nil 0))) 1 "give-all-list-rotations" nil))) (when (fboundp (quote set-active)) (set-active box nil)) box))) (quote ((2 0 0 1 nil 0) (1 0 2 0 nil 0) (9 0 3 1 nil 0) (6 0 4 1 nil 0) (7 0 6 0 nil 0) (5 0 6 1 nil 0) (8 0 7 0 nil 0) (8 0 9 0 nil 0) (4 0 9 1 nil 0))) nil 7.01))
